<?xml version="1.0" encoding="utf-8"?>
<!-- Generator: Adobe Illustrator 22.0.1, SVG Export Plug-In . SVG Version: 6.00 Build 0)  -->
<svg version="1.1" id="Layer_1" xmlns="http://www.w3.org/2000/svg" xmlns:xlink="http://www.w3.org/1999/xlink" x="0px" y="0px"
	 viewBox="0 0 1440 417" style="enable-background:new 0 0 1440 417;" xml:space="preserve">
<style type="text/css">
	.st0{clip-path:url(#SVGID_2_);}
	.st1{fill:#2967ED;}
	.st2{fill:#29ABE2;}
	.st3{fill:#00FFC9;}
	.st4{fill:#FFF22D;}
	.st5{fill:#2A2760;}
	.st6{fill:#84A1E0;}
	.st7{fill:#3920A8;}
	.st8{fill:#FFFFFF;}
	.st9{fill:#7C85C4;}
	.st10{fill:#FF713D;}
	.st11{fill:#5A48E6;}
	.st12{fill:#3D329C;}
	.st13{fill:#FBC2AD;}
	.st14{fill:#FBA080;}
	.st15{fill:#F25C8C;}
	.st16{fill:#FFAB2D;}
	.st17{fill:#FF6A99;}
	.st18{fill:#2E238C;}
	.st19{fill:#6B61C2;}
	.st20{fill:#FBAA9C;}
	.st21{fill:#0C1048;}
	.st22{fill:#5C1DAB;}
	.st23{fill:#D3DBF5;}
	.st24{fill:#E82121;}
	.st25{font-family:'Arial-Black';}
	.st26{font-size:55.4431px;}
	.st27{fill:#000DFF;}
	.st28{fill:#57EBFF;}
	.st29{font-size:97.5337px;}
</style>
<g>
	<defs>
		<rect id="SVGID_1_" y="0" width="1440" height="417"/>
	</defs>
	<clipPath id="SVGID_2_">
		<use xlink:href="#SVGID_1_"  style="overflow:visible;"/>
	</clipPath>
	<g class="st0">
		<rect y="0" class="st1" width="1440" height="417"/>
		<g>
			<path class="st2" d="M1162.4,461.7c7.2-10.2,12-22,12-34.4c0.2-38.5-42-64.1-52.2-101.3c-6.8-24.9,3.5-52.8,23.7-68.8
				c51.4-40.9,87.3-5.8,153.4-28.9c83.8-29.3,160.8-85,161.3-85.3l19.3,290L1162.4,461.7z"/>
			<path class="st2" d="M189.3,440.2C189.6,383,231,328.5,286,313c83.6-23.6,169.9,37.2,256.4,28.9c23.8-2.3,47.9-10.5,64.4-27.7
				c22.2-23.2,26.6-58.3,24.6-90.4c-2-32.1-9.2-64.2-5.6-96.1c4.9-43.3,30.1-83.1,64.8-109.4c20-15.1,42.8-25.9,67-32.8H0v454.6
				H189.3z"/>
		</g>
		<g>
			<g>
				<path class="st3" d="M530.1,370.9c-8,0-14.5-6.5-14.5-14.5s6.5-14.5,14.5-14.5s14.5,6.5,14.5,14.5S538.1,370.9,530.1,370.9z
					 M530.1,344.5c-6.5,0-11.8,5.3-11.8,11.8s5.3,11.8,11.8,11.8s11.8-5.3,11.8-11.8S536.6,344.5,530.1,344.5z"/>
			</g>
			<g>
				<path class="st4" d="M667,69.1c-8,0-14.5-6.5-14.5-14.5c0-8,6.5-14.5,14.5-14.5c8,0,14.5,6.5,14.5,14.5
					C681.5,62.6,675,69.1,667,69.1z M667,42.8c-6.5,0-11.8,5.3-11.8,11.8c0,6.5,5.3,11.8,11.8,11.8c6.5,0,11.8-5.3,11.8-11.8
					C678.8,48.1,673.5,42.8,667,42.8z"/>
			</g>
			<g>
				<g>
					<path class="st3" d="M1198.8,33.5c0-1.3,1.1-2.4,2.4-2.4c1.3,0,2.4,1.1,2.4,2.4c0,1.3-1.1,2.4-2.4,2.4
						C1199.9,35.9,1198.8,34.8,1198.8,33.5z"/>
					<path class="st3" d="M1188.1,33.5c0-1.3,1.1-2.4,2.4-2.4c1.3,0,2.4,1.1,2.4,2.4c0,1.3-1.1,2.4-2.4,2.4
						C1189.2,35.9,1188.1,34.8,1188.1,33.5z"/>
					<path class="st3" d="M1177.4,33.5c0-1.3,1.1-2.4,2.4-2.4c1.3,0,2.4,1.1,2.4,2.4c0,1.3-1.1,2.4-2.4,2.4
						C1178.5,35.9,1177.4,34.8,1177.4,33.5z"/>
					<path class="st3" d="M1166.7,33.5c0-1.3,1.1-2.4,2.4-2.4c1.3,0,2.4,1.1,2.4,2.4c0,1.3-1.1,2.4-2.4,2.4
						C1167.8,35.9,1166.7,34.8,1166.7,33.5z"/>
					<path class="st3" d="M1156,33.5c0-1.3,1.1-2.4,2.4-2.4s2.4,1.1,2.4,2.4c0,1.3-1.1,2.4-2.4,2.4S1156,34.8,1156,33.5z"/>
					<path class="st3" d="M1145.2,33.5c0-1.3,1.1-2.4,2.4-2.4c1.3,0,2.4,1.1,2.4,2.4c0,1.3-1.1,2.4-2.4,2.4
						C1146.3,35.9,1145.2,34.8,1145.2,33.5z"/>
					<path class="st3" d="M1134.5,33.5c0-1.3,1.1-2.4,2.4-2.4c1.3,0,2.4,1.1,2.4,2.4c0,1.3-1.1,2.4-2.4,2.4
						C1135.6,35.9,1134.5,34.8,1134.5,33.5z"/>
					<path class="st3" d="M1123.8,33.5c0-1.3,1.1-2.4,2.4-2.4c1.3,0,2.4,1.1,2.4,2.4c0,1.3-1.1,2.4-2.4,2.4
						C1124.9,35.9,1123.8,34.8,1123.8,33.5z"/>
					<path class="st3" d="M1113.1,33.5c0-1.3,1.1-2.4,2.4-2.4c1.3,0,2.4,1.1,2.4,2.4c0,1.3-1.1,2.4-2.4,2.4
						C1114.2,35.9,1113.1,34.8,1113.1,33.5z"/>
					<path class="st3" d="M1102.4,33.5c0-1.3,1.1-2.4,2.4-2.4c1.3,0,2.4,1.1,2.4,2.4c0,1.3-1.1,2.4-2.4,2.4
						C1103.4,35.9,1102.4,34.8,1102.4,33.5z"/>
				</g>
			</g>
			<g>
				<g>
					<path class="st4" d="M367.6,396c0-1.3,1.1-2.4,2.4-2.4c1.3,0,2.4,1.1,2.4,2.4c0,1.3-1.1,2.4-2.4,2.4
						C368.7,398.4,367.6,397.4,367.6,396z"/>
					<path class="st4" d="M356.9,396c0-1.3,1.1-2.4,2.4-2.4c1.3,0,2.4,1.1,2.4,2.4c0,1.3-1.1,2.4-2.4,2.4
						C358,398.4,356.9,397.4,356.9,396z"/>
					<path class="st4" d="M346.2,396c0-1.3,1.1-2.4,2.4-2.4c1.3,0,2.4,1.1,2.4,2.4c0,1.3-1.1,2.4-2.4,2.4
						C347.3,398.4,346.2,397.4,346.2,396z"/>
					<path class="st4" d="M335.5,396c0-1.3,1.1-2.4,2.4-2.4c1.3,0,2.4,1.1,2.4,2.4c0,1.3-1.1,2.4-2.4,2.4
						C336.6,398.4,335.5,397.4,335.5,396z"/>
					<path class="st4" d="M324.8,396c0-1.3,1.1-2.4,2.4-2.4s2.4,1.1,2.4,2.4c0,1.3-1.1,2.4-2.4,2.4S324.8,397.4,324.8,396z"/>
					<path class="st4" d="M314,396c0-1.3,1.1-2.4,2.4-2.4c1.3,0,2.4,1.1,2.4,2.4c0,1.3-1.1,2.4-2.4,2.4
						C315.1,398.4,314,397.4,314,396z"/>
					<path class="st4" d="M303.3,396c0-1.3,1.1-2.4,2.4-2.4c1.3,0,2.4,1.1,2.4,2.4c0,1.3-1.1,2.4-2.4,2.4
						C304.4,398.4,303.3,397.4,303.3,396z"/>
					<path class="st4" d="M292.6,396c0-1.3,1.1-2.4,2.4-2.4c1.3,0,2.4,1.1,2.4,2.4c0,1.3-1.1,2.4-2.4,2.4
						C293.7,398.4,292.6,397.4,292.6,396z"/>
					<path class="st4" d="M281.9,396c0-1.3,1.1-2.4,2.4-2.4c1.3,0,2.4,1.1,2.4,2.4c0,1.3-1.1,2.4-2.4,2.4
						C283,398.4,281.9,397.4,281.9,396z"/>
					<path class="st4" d="M271.2,396c0-1.3,1.1-2.4,2.4-2.4c1.3,0,2.4,1.1,2.4,2.4c0,1.3-1.1,2.4-2.4,2.4
						C272.2,398.4,271.2,397.4,271.2,396z"/>
				</g>
			</g>
		</g>
		<g>
			<rect x="657.1" y="407.1" class="st5" width="538.9" height="2.5"/>
		</g>
		<g>
			<g>
				<rect x="745.8" y="241.2" class="st6" width="325.6" height="100.5"/>
				<g>
					<g>
						<path class="st7" d="M1078.5,328H735.9V111.8c0-3,2.5-5.5,5.5-5.5H1073c3,0,5.5,2.5,5.5,5.5V328z"/>
						<g>
							<g>
								<path class="st8" d="M1078.5,114.4c0-4.5-3.7-8.2-8.2-8.2H744.1c-4.5,0-8.2,3.7-8.2,8.2v19.1h342.6V114.4z"/>
							</g>
							<g>
								<path class="st9" d="M759.3,119.9c0,2.7-2.2,4.9-4.9,4.9c-2.7,0-4.9-2.2-4.9-4.9s2.2-4.9,4.9-4.9
									C757,114.9,759.3,117.2,759.3,119.9z"/>
								<path class="st9" d="M775.9,119.9c0,2.7-2.2,4.9-4.9,4.9c-2.7,0-4.9-2.2-4.9-4.9s2.2-4.9,4.9-4.9
									C773.7,114.9,775.9,117.2,775.9,119.9z"/>
								<path class="st9" d="M792.5,119.9c0,2.7-2.2,4.9-4.9,4.9c-2.7,0-4.9-2.2-4.9-4.9s2.2-4.9,4.9-4.9
									C790.3,114.9,792.5,117.2,792.5,119.9z"/>
							</g>
						</g>
					</g>
					<g>
						<g>
							<rect x="762.8" y="148.3" class="st10" width="90.8" height="56.6"/>
							<g>
								<path class="st8" d="M802.7,169.9v13.4c0,0.7,1.2,1.1,1.9,0.6l8.4-5.9c1.1-0.7,1.1-2,0-2.7l-8.4-5.9
									C803.9,168.8,802.7,169.2,802.7,169.9z"/>
								<g>
									<path class="st8" d="M808.2,194.2c-9.7,0-17.6-7.9-17.6-17.6c0-9.7,7.9-17.6,17.6-17.6c9.7,0,17.6,7.9,17.6,17.6
										C825.8,186.3,817.9,194.2,808.2,194.2z M808.2,160.8c-8.7,0-15.9,7.1-15.9,15.9c0,8.7,7.1,15.9,15.9,15.9
										c8.7,0,15.9-7.1,15.9-15.9C824.1,167.9,817,160.8,808.2,160.8z"/>
								</g>
							</g>
						</g>
						<g>
							<rect x="762.8" y="217.8" class="st11" width="90.8" height="56.6"/>
							<g>
								<path class="st12" d="M802.7,239.4v13.4c0,0.7,1.2,1.1,1.9,0.6l8.4-5.9c1.1-0.7,1.1-2,0-2.7l-8.4-5.9
									C803.9,238.3,802.7,238.7,802.7,239.4z"/>
								<g>
									<path class="st12" d="M808.2,263.7c-9.7,0-17.6-7.9-17.6-17.6c0-9.7,7.9-17.6,17.6-17.6c9.7,0,17.6,7.9,17.6,17.6
										C825.8,255.8,817.9,263.7,808.2,263.7z M808.2,230.2c-8.7,0-15.9,7.1-15.9,15.9c0,8.7,7.1,15.9,15.9,15.9
										c8.7,0,15.9-7.1,15.9-15.9C824.1,237.3,817,230.2,808.2,230.2z"/>
								</g>
							</g>
						</g>
						<g>
							<rect x="762.8" y="287.2" class="st11" width="90.8" height="40.8"/>
							<g>
								<path class="st12" d="M802.7,308.9v13.4c0,0.7,1.2,1.1,1.9,0.6l8.4-5.9c1.1-0.7,1.1-2,0-2.7l-8.4-5.9
									C803.9,307.8,802.7,308.2,802.7,308.9z"/>
								<g>
									<path class="st12" d="M808.2,298c-9.7,0-17.6,7.9-17.6,17.6c0,4.9,2,9.3,5.2,12.5h2.6c-3.7-2.9-6.1-7.4-6.1-12.5
										c0-8.7,7.1-15.9,15.9-15.9s15.9,7.1,15.9,15.9c0,5.1-2.4,9.6-6.1,12.5h2.6c3.2-3.2,5.2-7.6,5.2-12.5
										C825.8,305.9,817.9,298,808.2,298z"/>
								</g>
							</g>
						</g>
					</g>
					<g>
						<g>
							<g>
								<path class="st13" d="M871.8,167.3c0,0,1.5-8.2-3.7-10.3c-5.2-2-6.6,0.9-6.6,0.9s-14.3-12.1-16.4-11.4
									c-2.1,0.6,4.2,10.4,7.7,14.2c0,0-7.5,0.4-5.8,3.8c0,0-3.9,3.1-1.1,4.7c0,0-1.4,1.9-0.7,2.9c0.8,1,4.4,2,7,1.6
									c0,0,3.3,5.8,11.9,5.8l11.2,15.2l11.7-11.5L871.8,167.3z"/>
								<g>
									<path class="st14" d="M861.3,158.3c-1.2,0.5-2.4,0.9-3.5,1.5c-0.6,0.3-1.1,0.6-1.6,1c-0.2,0.2-0.3,0.4-0.3,0.4
										c0,0.1,0.3,0.3,0.5,0.4c1,0.6,2.3,0.8,3.5,0.9c1.2,0.1,2.5-0.1,3.5-0.6l2.1-0.9l-1.5,1.7c-0.6,0.7-1.2,1.5-1.8,2.3
										c-0.5,0.8-1,1.6-1.4,2.5c-0.4,0.9-0.7,1.8-0.9,2.7c-0.2,1-0.2,1.9,0,2.9c-0.3-0.9-0.4-2-0.4-3c0.1-1,0.3-2,0.7-3
										c0.3-1,0.8-1.9,1.3-2.7c0.5-0.9,1.1-1.7,1.8-2.5l0.6,0.8c-1.3,0.6-2.7,0.7-4,0.6c-0.7,0-1.3-0.1-2-0.3
										c-0.7-0.2-1.3-0.4-1.9-0.8c-0.3-0.2-0.6-0.4-0.8-1c-0.1-0.3,0.1-0.6,0.2-0.7c0.1-0.2,0.3-0.3,0.4-0.4
										c0.6-0.4,1.2-0.7,1.8-0.9C858.8,158.9,860,158.5,861.3,158.3z"/>
								</g>
								<g>
									<path class="st14" d="M847.6,165c1.3,0.8,2.6,1.6,4,2.3c0.7,0.3,1.3,0.7,2,0.9c0.7,0.3,1.4,0.5,2,0.4
										c0.3,0,0.6-0.1,0.8-0.2c0.1-0.1,0.2-0.2,0.3-0.3c0-0.1,0.1-0.1,0.1-0.2c0-0.1,0-0.1,0.1-0.2c0.2-0.5-0.2-1.1-0.7-1.6
										c-1-1-2.3-1.9-3.6-2.7c1.5,0.5,2.9,1.1,4.2,2.2c0.3,0.3,0.6,0.6,0.8,1c0.1,0.2,0.2,0.4,0.3,0.7c0,0.3,0.1,0.5,0,0.8
										c0,0.1-0.1,0.3-0.1,0.4c-0.1,0.1-0.1,0.2-0.2,0.3c-0.1,0.2-0.3,0.4-0.5,0.5c-0.4,0.3-0.9,0.4-1.4,0.4
										c-1.8,0-3.2-0.9-4.5-1.7C849.8,167.1,848.6,166.1,847.6,165z"/>
								</g>
								<g>
									<path class="st14" d="M846.5,169.4c1.7,0.5,3.3,1.1,4.9,1.5c0.8,0.2,1.6,0.3,2.4,0.2c0.8-0.1,1.5-0.5,2-1.2
										c-0.1,0.9-0.9,1.7-1.9,1.9c-0.9,0.3-1.9,0.2-2.8,0c-0.9-0.2-1.7-0.5-2.5-0.9C847.9,170.5,847.2,170,846.5,169.4z"/>
								</g>
								<g>
									<path class="st14" d="M852.6,173.7c0.4-0.4,0.6-0.7,0.8-0.9c0.1-0.1,0.3-0.2,0.4-0.3c0.2-0.1,0.3-0.3,0.6-0.4
										c0.3,0.5,0.1,1.1-0.3,1.5C853.7,173.8,853.1,174,852.6,173.7z"/>
								</g>
							</g>
							<path class="st15" d="M972.7,167.5l-65.2,31.2l-23.1-22l-12.8,14.5c0,0,21.4,30.6,30,33.1c8.6,2.5,60.1-13.6,60.1-13.6
								L972.7,167.5z"/>
						</g>
						<g>
							<polygon class="st4" points="960,271.6 943.6,328 1045.7,328 1028.4,271.6 							"/>
							<path class="st16" d="M990.6,328v-21.7c0,0-3.8,0.7-9.2,0c0,0,2.8,3.1,6,3.9L986,328H990.6z"/>
						</g>
						<g>
							<path class="st17" d="M972.7,167.5l-16.2,35.7c0,0-13.2,25.3,6.6,30.3c0,0,0.2,26.7-7.1,38.1c0,0,31.9,20.3,76.9,3.1
								l-2.5-104.5l-26.4-9.9L972.7,167.5z"/>
							<g>
								<path class="st15" d="M975.3,232.7c0.6-0.5,1.5-0.9,2.2-1.1c0.8-0.3,1.6-0.5,2.5-0.6c1.7-0.3,3.4-0.3,5.1-0.1
									c1.7,0.2,3.4,0.5,5,1l2.4,0.7c0.8,0.2,1.6,0.4,2.4,0.5c3.2,0.6,6.5,0.8,9.8,0.7c1.6-0.1,3.3-0.2,4.9-0.5
									c1.6-0.3,3.3-0.6,4.8-1.4c-1.4,1-3,1.6-4.6,2.1c-1.6,0.5-3.3,0.8-5,0.9c-1.7,0.2-3.4,0.2-5.1,0.2c-1.7-0.1-3.4-0.3-5.1-0.6
									c-0.8-0.2-1.7-0.4-2.5-0.6c-0.8-0.3-1.7-0.5-2.4-0.8c-1.6-0.5-3.2-0.9-4.8-1.2c-1.6-0.3-3.3-0.4-4.9-0.3
									C978.5,231.7,976.8,232,975.3,232.7z"/>
							</g>
							<g>
								<path class="st15" d="M975.3,176.4c1.3,0.3,2.6,0.5,3.9,0.7c1.3,0.2,2.6,0.2,4,0.2c2.6,0,5.3-0.4,7.8-1.1
									c1.3-0.3,2.5-0.9,3.7-1.3c1.1-0.6,2.3-1.2,3.4-2c2.2-1.4,4.1-3.4,5.9-5.3c-0.4,0.5-0.8,1.1-1.2,1.6
									c-0.4,0.5-0.8,1.1-1.3,1.6l-1.4,1.4c-0.5,0.5-1,0.9-1.6,1.3c-1,0.9-2.3,1.5-3.4,2.2c-1.3,0.5-2.5,1.1-3.8,1.5
									c-2.6,0.7-5.4,1.1-8.1,0.9C980.5,177.9,977.8,177.4,975.3,176.4z"/>
							</g>
						</g>
						<g>
							<g>
								<path class="st13" d="M970.9,158.7l2.9,14.2c0,0,21.5,7.4,30.2-12.7l-9.3-9.5L970.9,158.7z"/>
								<path class="st14" d="M997.3,153.5l-2.6-2.7l-23.8,7.9l2.3,11.2C979.6,168.5,991.9,164.4,997.3,153.5z"/>
							</g>
							<g>
								<path class="st18" d="M997.6,69.1c0,0,0.4-7.8,10.3-6.3c9.9,1.5,23.1,16.9,19.8,21.8s-8.1,6.3-11.4,5.5L997.6,69.1z"/>
								<path class="st12" d="M998.7,149.1c0,0,22.8-8.9,25.6-33.6C1024.2,115.5,1004.2,133.9,998.7,149.1z"/>
								<path class="st18" d="M944.8,118.5c0,0-5-16.4,5.4-28.6l10,5.9L944.8,118.5z"/>
								
									<ellipse transform="matrix(0.3463 -0.9381 0.9381 0.3463 524.811 996.9374)" class="st13" cx="977.7" cy="121.9" rx="39.1" ry="32.9"/>
								<g>
									<path class="st12" d="M949.7,100.4c12.8,9.3,39.3,5.6,60.1-19.6c0,0,6.7-11.9-18.9-15c0,0-18-4.6-33.6,6.9
										C941.8,84.1,943.9,96.2,949.7,100.4z"/>
									<g>
										<path class="st19" d="M957.7,98c2.2,0,4.5-0.1,6.7-0.4c1.1-0.1,2.2-0.3,3.3-0.5l3.3-0.6c4.4-1,8.6-2.4,12.6-4.4
											c2-0.9,3.9-2.1,5.8-3.2c1.8-1.3,3.7-2.5,5.3-4c3.5-2.8,6.4-6.2,9.2-9.7c-0.6,0.9-1.3,1.9-1.9,2.8c-0.6,0.9-1.2,1.9-2,2.7
											l-2.2,2.5c-0.7,0.9-1.6,1.6-2.4,2.3c-1.6,1.6-3.5,2.8-5.3,4.2c-1.9,1.2-3.8,2.4-5.9,3.3c-4.1,1.9-8.4,3.4-12.9,4.2
											C966.7,98.1,962.2,98.5,957.7,98z"/>
										<path class="st19" d="M951.1,91.9c1.8-0.4,3.6-0.9,5.3-1.4c1.8-0.5,3.5-1.1,5.2-1.7c3.5-1.2,6.9-2.5,10.1-4.2
											c1.6-0.8,3.2-1.7,4.8-2.6c1.6-0.9,3.1-2,4.5-3.1c2.9-2.2,5.4-4.9,7.2-8.1c-0.7,1.7-1.7,3.3-2.8,4.8
											c-1.1,1.5-2.5,2.8-3.9,4c-2.8,2.5-6,4.4-9.3,6c-3.3,1.6-6.8,2.9-10.4,4C958.4,90.6,954.8,91.5,951.1,91.9z"/>
										<path class="st19" d="M950.2,86c1.2-0.5,2.5-1,3.7-1.5c1.2-0.5,2.4-1.1,3.6-1.7c2.3-1.2,4.7-2.4,6.8-3.9
											c2.2-1.4,4.3-3,6.2-4.8c0.9-0.9,1.9-1.8,2.6-2.9c0.9-1,1.5-2.1,2.3-3.2c-0.5,1.2-1.1,2.4-1.8,3.5
											c-0.7,1.2-1.6,2.1-2.5,3.2c-1.8,2-4,3.6-6.2,5.1c-2.3,1.4-4.6,2.7-7.1,3.7C955.3,84.5,952.8,85.4,950.2,86z"/>
									</g>
								</g>
								<g>
									<path class="st12" d="M997.6,87.4c0,0-4.3,16.1-4.6,39.3l18.9-0.3l-7.9,16c0,0,21.2-13.5,20.9-33.2
										c-0.4-19.6-12-30.4-15.9-30.8L997.6,87.4z"/>
									<g>
										<path class="st19" d="M1010.6,86.6c-0.7,1.3-1.4,2.5-2.1,3.8c-0.7,1.3-1.3,2.6-1.9,3.9c-1.2,2.6-2.4,5.2-3.5,7.9
											c-1.1,2.7-2.1,5.3-3.1,8.1c-1,2.7-1.8,5.5-2.8,8.2c0.2-1.4,0.5-2.8,0.8-4.3c0.4-1.4,0.7-2.8,1.1-4.2
											c0.8-2.8,1.8-5.5,2.8-8.2c1.1-2.7,2.3-5.3,3.7-7.9C1007.2,91.4,1008.7,88.9,1010.6,86.6z"/>
										<path class="st19" d="M1014.6,91.9c-0.8,3.2-1.5,6.3-2.2,9.5c-0.3,1.6-0.6,3.2-0.9,4.8c-0.3,1.6-0.4,3.2-0.7,4.8
											c-0.2-1.6-0.3-3.3-0.2-4.9c0.1-1.6,0.3-3.3,0.6-4.9C1012,97.9,1013,94.8,1014.6,91.9z"/>
										<path class="st19" d="M1018,96.2c0.9,2.4,1.5,4.8,1.9,7.3c0.4,2.5,0.5,5.1,0.5,7.6c-0.1,2.5-0.5,5.1-1.1,7.5
											c-0.7,2.5-1.7,4.8-3.1,6.9c0.4-1.2,1-2.3,1.3-3.5c0.2-0.6,0.4-1.2,0.5-1.8l0.4-1.8c0.5-2.4,0.8-4.9,0.9-7.4
											c0.1-2.5,0-5-0.2-7.5c-0.1-1.2-0.2-2.5-0.4-3.7C1018.5,98.6,1018.3,97.4,1018,96.2z"/>
									</g>
								</g>
								<g>
									<path class="st13" d="M996.3,126.7c0,0,7.7-17.6,15.1-10.8c7.4,6.7,0.6,18.3-7.3,19.4L996.3,126.7z"/>
									<g>
										<path class="st14" d="M1011.8,121.9c-0.6-0.9-1.3-1.8-2.2-2.5c-0.9-0.6-1.9-0.9-2.8-0.3c-0.9,0.5-1.6,1.3-2.2,2.2
											c-0.6,0.9-1.1,1.9-1.4,2.9l-0.9-0.5c0.4-0.5,0.9-1,1.5-1.3c0.6-0.3,1.3-0.6,2-0.5c0.7,0.1,1.4,0.4,1.9,0.8
											c0.6,0.5,0.8,1.2,0.8,1.9c0,1.4-0.6,2.5-1.3,3.5c-0.4,0.5-0.9,0.9-1.4,1.2c-0.6,0.3-1.2,0.4-1.8,0.2
											c1.2,0.2,2.2-0.7,2.8-1.7c0.7-0.9,1.1-2.1,1-3.2c0-0.5-0.3-1-0.6-1.3c-0.4-0.3-0.9-0.5-1.4-0.5c-1-0.1-2,0.7-2.6,1.5l0,0
											c-0.2,0.2-0.5,0.2-0.7,0.1c-0.2-0.1-0.2-0.4-0.2-0.6c0.4-1.1,0.9-2.2,1.6-3.1c0.7-1,1.5-1.9,2.6-2.4
											c0.6-0.3,1.2-0.3,1.9-0.2c0.6,0.1,1.1,0.5,1.6,0.9C1010.8,119.9,1011.4,120.9,1011.8,121.9z"/>
									</g>
								</g>
								<g>
									<path class="st8" d="M958.6,139.4c0,0,7.2,0.9,16.7-5c0,0-0.8,8.1-8.3,9.6C959.5,145.5,958.6,139.4,958.6,139.4z"/>
									<g>
										<g>
											<g>
												<path class="st14" d="M964.1,110.6c0.2,1.1,0.3,2.3,0.4,3.5c0.1,1.2,0,2.3-0.1,3.5c-0.1,1.2-0.3,2.4-0.6,3.5
													c-0.4,1.1-0.9,2.3-1.7,3.2c-0.1,0.1-0.2,0.1-0.3,0.2l0,0c-1.6,0.2-3.4,0.6-4.3,1.7c-0.5,0.5-0.6,1.3-0.3,2
													c0.2,0.7,0.6,1.4,1.3,1.7c1.3,0.7,3.1,0.2,4.3-0.9c1.3-1,2.1-2.6,2.6-4.2c-0.2,1.7-0.9,3.4-2.2,4.6
													c-0.6,0.6-1.4,1.1-2.3,1.4c-0.9,0.3-1.9,0.3-2.8-0.1c-0.9-0.4-1.5-1.3-1.8-2.2c-0.3-0.9-0.2-2.1,0.5-2.9
													c0.6-0.8,1.5-1.2,2.4-1.5c0.9-0.3,1.7-0.4,2.6-0.5l-0.3,0.2c0.7-0.8,1.2-1.8,1.6-2.9c0.4-1.1,0.6-2.2,0.8-3.3
													c0.2-1.1,0.2-2.3,0.3-3.4C964.1,112.9,964.1,111.8,964.1,110.6z"/>
											</g>
											<g>
												<path class="st20" d="M986.2,124.4c0.2,0.8-0.2,1.5-0.8,1.6c-0.6,0.1-1.2-0.4-1.4-1.2c-0.2-0.8,0.2-1.5,0.8-1.6
													C985.5,123.1,986.1,123.7,986.2,124.4z"/>
												
													<ellipse transform="matrix(0.9786 -0.206 0.206 0.9786 -5.5236 205.6177)" class="st20" cx="984.9" cy="129.3" rx="0.9" ry="1.1"/>
												<path class="st20" d="M982,125.3c0.2,0.8-0.2,1.5-0.8,1.6c-0.6,0.1-1.2-0.4-1.4-1.2c-0.2-0.8,0.2-1.5,0.8-1.6
													C981.2,124,981.8,124.6,982,125.3z"/>
											</g>
											<g>
												<path class="st20" d="M945.8,124.4c-0.2,0.8,0.2,1.5,0.8,1.6c0.6,0.1,1.2-0.4,1.4-1.2c0.2-0.8-0.2-1.5-0.8-1.6
													C946.5,123.1,945.9,123.7,945.8,124.4z"/>
												<path class="st20" d="M946.3,129.2c-0.1,0.6,0.1,1.2,0.6,1.3c0.5,0.1,0.9-0.3,1.1-0.9c0.1-0.6-0.1-1.2-0.6-1.3
													C946.9,128.1,946.4,128.6,946.3,129.2z"/>
												<path class="st20" d="M950.1,125.3c-0.2,0.8,0.2,1.5,0.8,1.6c0.6,0.1,1.2-0.4,1.4-1.2c0.2-0.8-0.2-1.5-0.8-1.6
													C950.8,124,950.2,124.6,950.1,125.3z"/>
											</g>
										</g>
										<g>
											<path class="st21" d="M981.7,113.4c-0.3,1.7-1.6,3-2.9,2.8c-1.4-0.2-2.3-1.8-2-3.5c0.3-1.7,1.6-3,2.9-2.8
												C981,110.1,981.9,111.7,981.7,113.4z"/>
											<path class="st21" d="M977,104c0,0,6.7,1.5,10.6,4.3c0,0,1.7-1.6,2.5-4.3c0,0-8.3-3.9-11.1-4.2
												C979,99.8,977.7,101.5,977,104z"/>
										</g>
										<g>
											<path class="st21" d="M956.9,113.4c-0.2,1.7-1.6,3-2.9,2.8c-1.4-0.2-2.3-1.8-2-3.5c0.2-1.7,1.6-3,2.9-2.8
												C956.3,110.1,957.2,111.7,956.9,113.4z"/>
											<path class="st21" d="M961.7,103.5c0,0-5.9,1.4-9.3,3.8c0,0-1.5-1.4-2.2-3.8c0,0,7.4-3.5,9.8-3.7
												C960,99.8,961.2,101.3,961.7,103.5z"/>
										</g>
									</g>
								</g>
							</g>
						</g>
						<g>
							<g>
								<path class="st13" d="M1010.8,300.3c0,0-8.6,4.9-8,8.8c0,0,0.6,11.5,4.6,7.4c0,0,0.7,3.5,4.9,0.7c0,0,0.5,1.3,2.1,1.3
									c1.7,0,2.9-1.3,2.9-1.3s0.3,1.4,3.1,1.3c1.4,0,5.6-10.4,3.4-13.5l5.4-10.1l-14.6-5.8L1010.8,300.3z"/>
								<g>
									<g>
										<path class="st14" d="M1007.4,315.9c-0.1-0.8-0.1-1.7-0.2-2.5c0-0.4-0.1-0.8,0-1.3c0.1-0.4,0.2-0.8,0.5-1.2l0.1,0
											c0.2,0.4,0.3,0.9,0.4,1.3c0,0.4-0.1,0.8-0.2,1.2C1007.9,314.3,1007.7,315.1,1007.4,315.9L1007.4,315.9z"/>
									</g>
									<g>
										<path class="st14" d="M1012.3,316.6c-0.1-0.9-0.1-1.8-0.2-2.7c0-0.4-0.1-0.9,0-1.3c0.1-0.4,0.2-0.9,0.5-1.3l0.1,0
											c0.2,0.5,0.3,0.9,0.4,1.4c0,0.4-0.1,0.9-0.2,1.3C1012.8,314.9,1012.6,315.8,1012.3,316.6L1012.3,316.6z"/>
									</g>
									<g>
										<path class="st14" d="M1017.5,316.5c-0.1-0.9-0.1-1.8-0.2-2.7c0-0.4-0.1-0.9,0-1.3c0.1-0.4,0.2-0.9,0.5-1.3l0.1,0
											c0.2,0.5,0.3,0.9,0.4,1.4c0,0.4-0.1,0.9-0.2,1.3C1018,314.8,1017.8,315.6,1017.5,316.5L1017.5,316.5z"/>
									</g>
								</g>
							</g>
							<g>
								<path class="st17" d="M1030.4,170.1c0,0,9.5,2.8,10.8,17.5c1.4,14.7,4.4,60.1,1.9,73.7c-2.5,13.6-15,41.4-15,41.4l-17.6-7.2
									c0,0,10.3-35.3,10.1-41.7c-0.3-6.4-7.1-50.1-4.7-63.9C1019,172.1,1021.5,170.7,1030.4,170.1z"/>
								<g>
									<path class="st15" d="M1016.1,275.8c0.9-4.1,1.9-8.2,2.7-12.4c0.4-2.1,0.8-4.1,1.1-6.2c0.1-1,0.3-2.1,0.3-3.1
										c0-1-0.2-2.1-0.3-3.1c-1.1-8.3-2.2-16.7-3.1-25.1c-0.4-4.2-0.8-8.4-1.2-12.6c-0.3-4.2-0.6-8.4-0.6-12.7
										c0-4.2,0.1-8.5,1-12.7c0.4-2.1,0.9-4.1,1.5-6.2c0.6-2,1.2-4.1,2.2-5.9c-1.6,3.9-2.3,8.1-2.9,12.2
										c-0.7,4.1-0.7,8.3-0.6,12.5c0.4,8.4,1.2,16.8,2.1,25.2c0.4,4.2,0.9,8.4,1.4,12.6c0.5,4.2,1,8.4,1.4,12.6
										c0.1,1.1,0.2,2.1,0.2,3.2c0,1.1-0.2,2.2-0.4,3.2c-0.4,2.1-0.8,4.2-1.3,6.2C1018.4,267.6,1017.3,271.7,1016.1,275.8z"/>
								</g>
							</g>
						</g>
					</g>
				</g>
			</g>
			<g>
				<g>
					
						<ellipse transform="matrix(0.8998 -0.4364 0.4364 0.8998 57.2041 374.2657)" class="st22" cx="843.3" cy="62.6" rx="29.1" ry="29.1"/>
					
						<ellipse transform="matrix(0.1502 -0.9887 0.9887 0.1502 654.7394 886.9205)" class="st8" cx="843.3" cy="62.6" rx="22.3" ry="22.3"/>
					<g>
						<polygon class="st9" points="830.7,71.8 829.7,69.7 843.5,62.9 843.5,46.4 845.8,46.4 845.8,64.3 						"/>
					</g>
				</g>
				<g>
					<path class="st10" d="M1100.5,92H1048c-0.3,0-0.6-0.3-0.6-0.6V61.5c0-0.3,0.3-0.6,0.6-0.6h52.5c0.3,0,0.6,0.3,0.6,0.6v29.9
						C1101.1,91.7,1100.8,92,1100.5,92z"/>
					<g>
						<path class="st8" d="M1101.1,61.8V62l-26.8,20.5L1047.4,62v-0.2c0-0.5,0.4-0.8,0.8-0.8h0.5l25.4,19.5l25.4-19.5h0.5
							C1100.7,61,1101.1,61.3,1101.1,61.8z"/>
					</g>
				</g>
				<g>
					<g>
						<path class="st10" d="M1179.3,407.1h-122.4c-5.7,0-10.3-4.6-10.3-10.3v-10c0-5.7,4.6-10.3,10.3-10.3h122.4V407.1z"/>
						<path class="st8" d="M1179.3,402.4h-92.3c-4,0-7.2-3.2-7.2-7.2v-7c0-4,3.2-7.2,7.2-7.2h92.3V402.4z"/>
						<rect x="1176.9" y="376.5" class="st10" width="9.2" height="4.6"/>
						<rect x="1176.9" y="402.4" class="st10" width="9.2" height="4.6"/>
						<g>
							<path class="st23" d="M1179.3,387v1.8h-99.1c0.2-0.6,0.4-1.2,0.7-1.8H1179.3z"/>
							<path class="st23" d="M1179.3,394.8v1.8h-98.4c-0.3-0.6-0.5-1.2-0.7-1.8H1179.3z"/>
						</g>
					</g>
					<g>
						<polygon class="st22" points="1136.5,376.5 1104.1,376.5 1098.3,324.5 1142.3,324.5 						"/>
						<g>
							<path class="st22" d="M1146.4,364.3H1135v-4.7h11.4c0.6,0,1.1-0.5,1.1-1.1v-23.6c0-0.6-0.5-1.1-1.1-1.1h-7v-4.7h7
								c3.2,0,5.8,2.6,5.8,5.8v23.6C1152.2,361.7,1149.6,364.3,1146.4,364.3z"/>
						</g>
						<g>
							<path class="st8" d="M1131.2,318c-3.3-1.6-6-4.9-6.7-9.1c-0.4-2.1-0.1-4.3,0.6-6.3c0.6-1.8,1.3-3.5,2.1-5.1
								c1.5-3.2,3.2-6,4.4-9c0.6-1.5,1.1-2.9,1.3-4.5c0.2-1.6,0.2-3.3,0-5.1c1.3,1.3,2.3,3,2.8,4.9c0.5,1.9,0.5,3.9,0.3,5.9
								c-0.5,3.9-2.1,7.3-3.6,10.4c-0.8,1.6-1.5,3.1-2.2,4.5c-0.6,1.3-1,2.6-1.1,4C1128.8,311.5,1129.6,314.7,1131.2,318z"/>
							<path class="st8" d="M1114.8,318c-3.3-1.6-6-4.9-6.7-9.1c-0.4-2.1-0.1-4.3,0.6-6.3c0.6-1.8,1.3-3.5,2.1-5.1
								c1.5-3.2,3.2-6,4.4-9c0.6-1.5,1.1-2.9,1.3-4.5c0.2-1.6,0.2-3.3,0-5.1c1.3,1.3,2.3,3,2.8,4.9c0.5,1.9,0.5,3.9,0.3,5.9
								c-0.5,3.9-2.1,7.3-3.6,10.4c-0.8,1.6-1.5,3.1-2.2,4.5c-0.6,1.3-1,2.6-1.1,4C1112.4,311.5,1113.3,314.7,1114.8,318z"/>
						</g>
					</g>
				</g>
				<path class="st3" d="M714.2,183.3v-12.5h-7.1c-0.5-1.8-1.2-3.6-2.1-5.2l5-5l-8.8-8.8l-5,5c-1.6-0.9-3.4-1.6-5.2-2.1v-7.1h-12.5
					v7.1c-1.8,0.5-3.6,1.2-5.2,2.1l-5-5l-8.8,8.8l5,5c-0.9,1.6-1.6,3.4-2.2,5.2h-7.1v12.5h7.1c0.5,1.8,1.2,3.6,2.2,5.2l-5,5l8.8,8.8
					l5-5c1.6,0.9,3.4,1.6,5.2,2.2v7.1h12.5v-7.1c1.8-0.5,3.6-1.2,5.2-2.2l5,5l8.8-8.8l-5-5c0.9-1.6,1.6-3.4,2.1-5.2H714.2z
					 M684.7,188.7c-6.4,0-11.6-5.2-11.6-11.6c0-6.4,5.2-11.6,11.6-11.6c6.4,0,11.6,5.2,11.6,11.6
					C696.3,183.5,691.1,188.7,684.7,188.7z"/>
				<g>
					<g>
						<g>
							<polygon class="st12" points="1123.1,225.7 1115.4,216.6 1103.5,215.3 1123.1,178.4 1142.8,188.8 							"/>
							<polygon class="st12" points="1150,225.7 1157.8,216.6 1169.7,215.3 1150,178.4 1130.4,188.8 							"/>
						</g>
					</g>
					<path class="st4" d="M1173.1,174.1c0,3.7-5.2,6.5-6.3,9.8c-1.1,3.4,1.4,8.8-0.7,11.6c-2.1,2.9-7.9,2.2-10.8,4.3
						c-2.9,2.1-4,7.9-7.4,9c-3.3,1.1-7.6-2.9-11.3-2.9s-8,4-11.3,2.9c-3.4-1.1-4.5-6.9-7.4-9c-2.9-2.1-8.7-1.4-10.8-4.3
						c-2.1-2.9,0.4-8.2-0.7-11.6c-1.1-3.3-6.3-6.1-6.3-9.8c0-3.7,5.2-6.5,6.3-9.8c1.1-3.4-1.4-8.8,0.7-11.6
						c2.1-2.9,7.9-2.2,10.8-4.3c2.9-2.1,4-7.9,7.4-9c3.3-1.1,7.6,2.9,11.3,2.9s8-4,11.3-2.9c3.4,1.1,4.5,6.9,7.4,9
						c2.9,2.1,8.7,1.4,10.8,4.3c2.1,2.9-0.4,8.2,0.7,11.6C1167.9,167.6,1173.1,170.4,1173.1,174.1z"/>
					
						<ellipse transform="matrix(0.2314 -0.9728 0.9728 0.2314 704.1833 1239.4918)" class="st17" cx="1136.6" cy="174.1" rx="25.3" ry="25.3"/>
					
						<ellipse transform="matrix(0.231 -0.9729 0.9729 0.231 704.6171 1239.6678)" class="st8" cx="1136.6" cy="174.1" rx="19.4" ry="19.4"/>
				</g>
				<g>
					<polygon class="st3" points="971.8,332.1 971.8,320.9 960.6,332.1 869.5,332.1 869.5,373.7 979,373.7 979,332.1 					"/>
					<g>
						<g>
							<rect x="880.5" y="343.3" class="st12" width="87.5" height="2.2"/>
							<rect x="880.5" y="352.3" class="st12" width="87.5" height="2.2"/>
							<rect x="880.5" y="361.4" class="st12" width="87.5" height="2.2"/>
						</g>
					</g>
				</g>
				<g>
					<rect x="690.1" y="294.7" class="st12" width="14.9" height="7.7"/>
					<g>
						<rect x="671.2" y="299.2" class="st4" width="80.4" height="107.9"/>
						<rect x="671.2" y="299.2" class="st10" width="12.9" height="107.9"/>
						<rect x="697.1" y="322.7" class="st8" width="37.3" height="22.4"/>
					</g>
				</g>
			</g>
		</g>
	</g>
</g>
<text transform="matrix(1.0059 0 0 1 255.2388 154.0161)"><tspan x="0" y="0" class="st24 st25 st26">C</tspan><tspan x="43.1" y="0" class="st8 st25 st26">r</tspan><tspan x="67.7" y="0" class="st4 st25 st26">e</tspan><tspan x="104.7" y="0" class="st27 st25 st26">A</tspan><tspan x="147.8" y="0" class="st22 st25 st26">c</tspan><tspan x="184.8" y="0" class="st3 st25 st26">t</tspan><tspan x="209.4" y="0" class="st10 st25 st26">i</tspan><tspan x="227.9" y="0" class="st8 st25 st26">v</tspan><tspan x="261.8" y="0" class="st7 st25 st26">e</tspan></text>
<text transform="matrix(1.0059 0 0 1 253.7539 238.8852)" class="st28 st25 st29">Force</text>
</svg>
