<?xml version="1.0" encoding="utf-8"?>
<!-- Generator: Adobe Illustrator 22.0.1, SVG Export Plug-In . SVG Version: 6.00 Build 0)  -->
<svg version="1.1" xmlns="http://www.w3.org/2000/svg" xmlns:xlink="http://www.w3.org/1999/xlink" x="0px" y="0px"
	 viewBox="0 0 173 173" style="enable-background:new 0 0 173 173;" xml:space="preserve">
<style type="text/css">
	.st0{fill:#1D4751;}
	.st1{fill:#113035;}
	.st2{fill:#3DCEB5;}
	.st3{fill:#FFAF50;}
	.st4{fill:#13353A;}
	.st5{fill:#F77872;}
	.st6{fill:#B59BC5;}
	.st7{fill:#F8E9B2;}
</style>
<g id="Layer_1">
	<g>
		<rect x="0" y="0" class="st0" width="173" height="173"/>
		<g>
			<g>
				<g>
					<path class="st1" d="M68.4,40.5C68.4,48,73.9,54,80.7,54c6.8,0,12.3-6.1,12.3-13.5c0-7.5-5.5-13.5-12.3-13.5
						C73.9,27,68.4,33.1,68.4,40.5z M71.6,40.5c0-5.5,4.1-10,9.1-10c5,0,9.1,4.5,9.1,10c0,5.5-4.1,10-9.1,10
						C75.7,50.5,71.6,46,71.6,40.5z"/>
					<path class="st1" d="M71,37.8c0-1.7-1.4-3.1-3.1-3.1h-4.1c-1.7,0-3.1,1.4-3.1,3.1v5.7c0,1.7,1.4,3.1,3.1,3.1h4.1
						c1.7,0,3.1-1.4,3.1-3.1V37.8z"/>
					<path class="st1" d="M64.6,40.8c0-1.1-0.9-2-2-2H17.3c-1.1,0-2,0.9-2,2v0.1c0,1.1,0.9,2,2,2h45.3C63.7,42.9,64.6,42,64.6,40.8
						L64.6,40.8z"/>
					<path class="st1" d="M34.1,38.7c0-0.7-0.6-1.2-1.2-1.2h-0.1c-0.7,0-1.2,0.6-1.2,1.2v4.9c0,0.7,0.6,1.2,1.2,1.2h0.1
						c0.7,0,1.2-0.6,1.2-1.2V38.7z"/>
					<g>
						<path class="st1" d="M20.9,42h4.5c1.3,0,2.4,0.9,2.4,2.2v4.3c0,1.1-0.6,2.1-1.7,2.4v-4c0-0.7-0.5-1-1.1-1h-0.1
							c-0.5,0-1,0.3-1,1v4.2H22v-4.2c0-0.7-0.5-1-1-1h-0.1c-0.5,0-1,0.3-1,1v3.8c-0.9-0.4-1.3-1.2-1.3-2.2v-4.3
							C18.5,42.9,19.6,42,20.9,42z"/>
					</g>
				</g>
				<g>
					<path class="st1" d="M72.3,69.5c0.4-2.5,2.7-4.1,5.2-3.8L91,67.6c2.5,0.4,4.3,2.5,3.9,5l-10,70.8c-0.4,2.5-2.7,4.2-5.2,3.9
						l-13.6-1.9c-2.5-0.4-4.2-2.7-3.9-5.2L72.3,69.5z"/>
					<g>
						<g>
							<path class="st1" d="M84.5,71.7c-0.6-1.6-2.4-2.4-4-1.7c-1.6,0.6-2.4,2.4-1.7,4c0.6,1.6,2.4,2.4,4,1.7
								C84.4,75.1,85.1,73.3,84.5,71.7z"/>
						</g>
						<g>
							<g>
								<g>
									<path class="st1" d="M81.7,70.5c0.6-0.2,1.2-0.3,1.7-0.2c-0.8-0.6-1.9-0.8-3-0.4c-1.6,0.6-2.4,2.4-1.7,4
										c0.4,1,1.3,1.7,2.3,1.9c-0.5-0.3-0.8-0.8-1.1-1.4C79.4,72.9,80.1,71.1,81.7,70.5z"/>
								</g>
							</g>
						</g>
					</g>
				</g>
				<g>
					<g>
						<path class="st1" d="M86.6,72.3c-0.6-2.4,0.9-4.8,3.3-5.4l13.3-3.4c2.4-0.6,4.9,0.7,5.5,3.2l17.8,69.3
							c0.6,2.4-0.9,4.9-3.3,5.6l-13.3,3.4c-2.4,0.6-4.9-0.8-5.6-3.3L86.6,72.3z"/>
					</g>
					<g>
						<g>
							<path class="st1" d="M98.7,69.7c-1.2-1.2-3.2-1.2-4.4,0c-1.2,1.2-1.2,3.2,0,4.4c1.2,1.2,3.2,1.2,4.4,0
								C99.9,72.9,99.9,70.9,98.7,69.7z"/>
						</g>
						<g>
							<g>
								<g>
									<path class="st1" d="M95.7,69.7c0.4-0.4,1-0.7,1.5-0.8c-1-0.2-2.1,0-2.9,0.8c-1.2,1.2-1.2,3.2,0,4.4
										c0.8,0.8,1.9,1.1,2.9,0.9c-0.6-0.1-1.1-0.4-1.5-0.8C94.4,72.8,94.5,70.9,95.7,69.7z"/>
								</g>
							</g>
						</g>
					</g>
				</g>
				<g>
					<g>
						<path class="st1" d="M100.9,69.5c-1.5-2-1-4.8,1-6.3l11-8.2c2-1.5,4.8-1.2,6.3,0.8l42.8,57.3c1.5,2,1.1,4.9-0.9,6.4l-11,8.2
							c-2,1.5-4.9,1.1-6.4-0.9L100.9,69.5z"/>
					</g>
					<g>
						<g>
							<path class="st1" d="M111.1,62.5c-1.6-0.7-3.4,0.1-4.1,1.6c-0.7,1.6,0.1,3.4,1.6,4.1c1.6,0.7,3.4-0.1,4.1-1.6
								C113.4,65,112.7,63.2,111.1,62.5z"/>
						</g>
						<g>
							<g>
								<g>
									<path class="st1" d="M108.3,63.6c0.2-0.6,0.6-1,1.1-1.3c-1,0.2-1.9,0.8-2.3,1.8c-0.7,1.6,0.1,3.4,1.6,4.1
										c1,0.4,2.1,0.3,3-0.3c-0.6,0.1-1.2,0-1.7-0.2C108.4,67,107.6,65.2,108.3,63.6z"/>
								</g>
							</g>
						</g>
					</g>
				</g>
				<path class="st1" d="M82,70.6c-0.1,0-0.4,0-0.8-0.4c-0.8-0.8-1.3-2.7-1.2-5.6c0-1.6-0.1-3.4-0.1-5.3c-0.3-6.5-0.3-10.5,1.4-11
					c0.6-0.2,1-0.2,1.4,0.1c0.6,0.4,0.7,1.4,0.7,1.5c0,0.2-0.1,0.3-0.3,0.3c-0.2,0-0.3-0.1-0.3-0.3c0-0.2-0.1-0.8-0.4-1
					c-0.2-0.1-0.5-0.1-0.8,0c0,0,0,0,0,0c-1.3,0.4-1.1,5.9-0.9,10.3c0.1,1.9,0.2,3.8,0.1,5.4c0,3.6,0.6,4.7,1,5.1
					C81.8,70,82,70,82,70l0,0c0.2,0,0.3,0.1,0.3,0.3C82.3,70.5,82.2,70.6,82,70.6C82,70.6,82,70.6,82,70.6z"/>
				<path class="st1" d="M83.6,66.9C83.6,66.9,83.5,66.9,83.6,66.9c-0.2,0-0.3-0.2-0.3-0.4C83.8,62.4,83,54.1,83,54
					c0-0.2,0.1-0.3,0.3-0.4c0.2,0,0.3,0.1,0.4,0.3c0,0.3,0.8,8.4,0.3,12.6C83.9,66.7,83.7,66.9,83.6,66.9z"/>
				<path class="st1" d="M95.6,70c-0.1,0.1-0.4,0.1-0.9,0c-1.1-0.4-2.5-2.3-3.9-5.3c-0.8-1.6-1.7-3.5-2.7-5.5
					c-3.4-6.6-5.4-10.7-4.2-11.9c0.4-0.5,0.8-0.6,1.3-0.5c0.8,0.2,1.3,1.2,1.3,1.3c0.1,0.2,0,0.4-0.1,0.5c-0.2,0.1-0.4,0-0.5-0.2
					c-0.1-0.2-0.4-0.8-0.8-0.8c-0.2-0.1-0.5,0.1-0.7,0.4c0,0,0,0,0,0c-1,0.9,1.9,6.5,4.3,11.1c1,2,2,3.8,2.8,5.5
					c1.7,3.7,2.9,4.6,3.4,4.9c0.2,0.1,0.4,0.1,0.4,0.1h0c0.2-0.1,0.4,0,0.5,0.2C95.8,69.6,95.8,69.9,95.6,70
					C95.6,70,95.6,70,95.6,70z"/>
				<path class="st1" d="M95.2,65.4C95.2,65.4,95.2,65.4,95.2,65.4c-0.2,0.1-0.4-0.1-0.5-0.3c-1.6-4.7-6.6-13.3-6.7-13.4
					c-0.1-0.2-0.1-0.4,0.1-0.5c0.2-0.1,0.4,0,0.5,0.2c0.2,0.4,5.1,8.7,6.7,13.5C95.4,65.2,95.3,65.4,95.2,65.4z"/>
				<path class="st1" d="M109,64.1c-0.1,0.1-0.3,0.3-0.9,0.3c-1.4-0.1-3.6-1.5-6.6-4.2c-1.6-1.4-3.5-3-5.6-4.7
					c-6.9-5.7-11-9.3-10.4-11c0.2-0.6,0.5-0.9,1-1c0.9-0.1,1.9,0.8,2,0.9c0.2,0.2,0.2,0.4,0.1,0.5c-0.1,0.1-0.4,0.1-0.5-0.1
					c-0.2-0.2-0.8-0.6-1.2-0.6c-0.2,0-0.4,0.2-0.5,0.6c0,0,0,0,0,0c-0.5,1.3,5.3,6.1,10,10c2,1.7,4,3.3,5.6,4.8
					c3.6,3.3,5.3,3.8,5.9,3.9c0.3,0,0.4-0.1,0.4-0.1l0,0c0.1-0.1,0.3-0.1,0.5,0C109.1,63.7,109.2,63.9,109,64.1
					C109.1,64.1,109,64.1,109,64.1z"/>
				<path class="st1" d="M106.6,59.9C106.6,59.9,106.6,59.9,106.6,59.9c-0.2,0.1-0.4,0.1-0.6-0.1c-4.4-4.5-14.3-12.1-14.4-12.2
					c-0.2-0.2-0.3-0.4-0.2-0.6c0.1-0.1,0.4-0.1,0.6,0c0.4,0.3,10.1,7.7,14.5,12.3C106.6,59.5,106.7,59.7,106.6,59.9z"/>
			</g>
		</g>
		<g>
			<path class="st2" d="M17.7,37.5V36c0.3,0.2,0.5,0.4,0.8,0.5c0.3,0.1,0.6,0.2,0.9,0.2c0.2,0,0.3,0,0.5,0c0.1,0,0.2-0.1,0.3-0.1
				c0.1-0.1,0.2-0.1,0.2-0.2c0-0.1,0.1-0.2,0.1-0.3c0-0.1,0-0.2-0.1-0.3c-0.1-0.1-0.2-0.2-0.3-0.3c-0.1-0.1-0.3-0.2-0.4-0.2
				c-0.2-0.1-0.4-0.2-0.6-0.2c-0.5-0.2-0.9-0.5-1.1-0.8c-0.2-0.3-0.4-0.7-0.4-1.1c0-0.3,0.1-0.6,0.2-0.9c0.1-0.2,0.3-0.4,0.5-0.6
				c0.2-0.2,0.5-0.3,0.8-0.3c0.3-0.1,0.6-0.1,1-0.1c0.3,0,0.6,0,0.9,0.1c0.3,0,0.5,0.1,0.7,0.2v1.3c-0.1-0.1-0.2-0.1-0.4-0.2
				c-0.1-0.1-0.3-0.1-0.4-0.1c-0.1,0-0.3-0.1-0.4-0.1c-0.1,0-0.3,0-0.4,0c-0.2,0-0.3,0-0.4,0c-0.1,0-0.2,0.1-0.3,0.1
				c-0.1,0.1-0.2,0.1-0.2,0.2c-0.1,0.1-0.1,0.2-0.1,0.3c0,0.1,0,0.2,0.1,0.3c0.1,0.1,0.1,0.2,0.2,0.2c0.1,0.1,0.2,0.2,0.4,0.2
				c0.1,0.1,0.3,0.1,0.5,0.2c0.3,0.1,0.5,0.2,0.7,0.3c0.2,0.1,0.4,0.3,0.5,0.4c0.1,0.2,0.3,0.3,0.3,0.5c0.1,0.2,0.1,0.4,0.1,0.7
				c0,0.4-0.1,0.7-0.2,0.9c-0.1,0.2-0.3,0.4-0.6,0.6c-0.2,0.2-0.5,0.3-0.8,0.3c-0.3,0.1-0.6,0.1-1,0.1c-0.4,0-0.7,0-1-0.1
				C18.2,37.7,17.9,37.6,17.7,37.5z"/>
			<path class="st2" d="M28.3,34.9c0,1.9-0.9,2.9-2.7,2.9c-1.7,0-2.6-0.9-2.6-2.8v-3.7h1.5V35c0,1,0.4,1.6,1.2,1.6
				c0.8,0,1.2-0.5,1.2-1.5v-3.8h1.4V34.9z"/>
			<path class="st2" d="M34.4,37.5c-0.5,0.2-1.1,0.3-1.8,0.3c-1,0-1.8-0.3-2.3-0.9c-0.6-0.6-0.8-1.4-0.8-2.3c0-1,0.3-1.9,1-2.5
				c0.6-0.6,1.5-1,2.5-1c0.6,0,1.2,0.1,1.6,0.2v1.4c-0.4-0.3-0.9-0.4-1.5-0.4c-0.6,0-1.1,0.2-1.5,0.6c-0.4,0.4-0.6,0.9-0.6,1.5
				c0,0.6,0.2,1.1,0.5,1.5c0.3,0.4,0.8,0.6,1.4,0.6c0.6,0,1.1-0.1,1.6-0.4V37.5z"/>
			<path class="st2" d="M39.8,37.5c-0.5,0.2-1.1,0.3-1.8,0.3c-1,0-1.8-0.3-2.3-0.9c-0.6-0.6-0.8-1.4-0.8-2.3c0-1,0.3-1.9,1-2.5
				c0.6-0.6,1.5-1,2.5-1c0.6,0,1.2,0.1,1.6,0.2v1.4c-0.4-0.3-0.9-0.4-1.5-0.4c-0.6,0-1.1,0.2-1.5,0.6c-0.4,0.4-0.6,0.9-0.6,1.5
				c0,0.6,0.2,1.1,0.5,1.5c0.3,0.4,0.8,0.6,1.4,0.6c0.6,0,1.1-0.1,1.6-0.4V37.5z"/>
			<path class="st2" d="M44.8,37.7H41v-6.4h3.7v1.2h-2.3v1.4h2.1v1.2h-2.1v1.5h2.4V37.7z"/>
			<path class="st2" d="M45.6,37.5V36c0.3,0.2,0.5,0.4,0.8,0.5c0.3,0.1,0.6,0.2,0.9,0.2c0.2,0,0.3,0,0.5,0c0.1,0,0.2-0.1,0.3-0.1
				c0.1-0.1,0.2-0.1,0.2-0.2c0-0.1,0.1-0.2,0.1-0.3c0-0.1,0-0.2-0.1-0.3c-0.1-0.1-0.2-0.2-0.3-0.3c-0.1-0.1-0.3-0.2-0.4-0.2
				c-0.2-0.1-0.4-0.2-0.6-0.2c-0.5-0.2-0.9-0.5-1.1-0.8c-0.2-0.3-0.4-0.7-0.4-1.1c0-0.3,0.1-0.6,0.2-0.9c0.1-0.2,0.3-0.4,0.5-0.6
				c0.2-0.2,0.5-0.3,0.8-0.3c0.3-0.1,0.6-0.1,1-0.1c0.3,0,0.6,0,0.9,0.1c0.3,0,0.5,0.1,0.7,0.2v1.3c-0.1-0.1-0.2-0.1-0.4-0.2
				c-0.1-0.1-0.3-0.1-0.4-0.1c-0.1,0-0.3-0.1-0.4-0.1c-0.1,0-0.3,0-0.4,0c-0.2,0-0.3,0-0.4,0c-0.1,0-0.2,0.1-0.3,0.1
				c-0.1,0.1-0.2,0.1-0.2,0.2c-0.1,0.1-0.1,0.2-0.1,0.3c0,0.1,0,0.2,0.1,0.3c0.1,0.1,0.1,0.2,0.2,0.2c0.1,0.1,0.2,0.2,0.4,0.2
				c0.1,0.1,0.3,0.1,0.5,0.2c0.3,0.1,0.5,0.2,0.7,0.3c0.2,0.1,0.4,0.3,0.5,0.4c0.1,0.2,0.3,0.3,0.3,0.5c0.1,0.2,0.1,0.4,0.1,0.7
				c0,0.4-0.1,0.7-0.2,0.9c-0.1,0.2-0.3,0.4-0.6,0.6c-0.2,0.2-0.5,0.3-0.8,0.3c-0.3,0.1-0.6,0.1-1,0.1c-0.4,0-0.7,0-1-0.1
				C46.1,37.7,45.8,37.6,45.6,37.5z"/>
			<path class="st2" d="M50.7,37.5V36c0.3,0.2,0.5,0.4,0.8,0.5c0.3,0.1,0.6,0.2,0.9,0.2c0.2,0,0.3,0,0.5,0c0.1,0,0.2-0.1,0.3-0.1
				c0.1-0.1,0.2-0.1,0.2-0.2c0-0.1,0.1-0.2,0.1-0.3c0-0.1,0-0.2-0.1-0.3c-0.1-0.1-0.2-0.2-0.3-0.3c-0.1-0.1-0.3-0.2-0.4-0.2
				c-0.2-0.1-0.4-0.2-0.6-0.2c-0.5-0.2-0.9-0.5-1.1-0.8c-0.2-0.3-0.4-0.7-0.4-1.1c0-0.3,0.1-0.6,0.2-0.9c0.1-0.2,0.3-0.4,0.5-0.6
				c0.2-0.2,0.5-0.3,0.8-0.3c0.3-0.1,0.6-0.1,1-0.1c0.3,0,0.6,0,0.9,0.1c0.3,0,0.5,0.1,0.7,0.2v1.3c-0.1-0.1-0.2-0.1-0.4-0.2
				c-0.1-0.1-0.3-0.1-0.4-0.1c-0.1,0-0.3-0.1-0.4-0.1s-0.3,0-0.4,0c-0.2,0-0.3,0-0.4,0c-0.1,0-0.2,0.1-0.3,0.1
				c-0.1,0.1-0.2,0.1-0.2,0.2c-0.1,0.1-0.1,0.2-0.1,0.3c0,0.1,0,0.2,0.1,0.3c0.1,0.1,0.1,0.2,0.2,0.2c0.1,0.1,0.2,0.2,0.4,0.2
				c0.1,0.1,0.3,0.1,0.5,0.2c0.3,0.1,0.5,0.2,0.7,0.3c0.2,0.1,0.4,0.3,0.5,0.4c0.1,0.2,0.3,0.3,0.3,0.5c0.1,0.2,0.1,0.4,0.1,0.7
				c0,0.4-0.1,0.7-0.2,0.9c-0.1,0.2-0.3,0.4-0.6,0.6c-0.2,0.2-0.5,0.3-0.8,0.3c-0.3,0.1-0.6,0.1-1,0.1c-0.4,0-0.7,0-1-0.1
				C51.2,37.7,50.9,37.6,50.7,37.5z"/>
		</g>
		<g>
			<g>
				<path class="st2" d="M64.9,39.2c0,7.5,5.5,13.5,12.3,13.5c6.8,0,12.3-6.1,12.3-13.5c0-7.5-5.5-13.5-12.3-13.5
					C70.5,25.7,64.9,31.8,64.9,39.2z M68.2,39.2c0-5.5,4.1-10,9.1-10c5,0,9.1,4.5,9.1,10c0,5.5-4.1,10-9.1,10
					C72.3,49.2,68.2,44.7,68.2,39.2z"/>
				<path class="st2" d="M67.6,36.5c0-1.7-1.4-3.1-3.1-3.1h-4.1c-1.7,0-3.1,1.4-3.1,3.1v5.7c0,1.7,1.4,3.1,3.1,3.1h4.1
					c1.7,0,3.1-1.4,3.1-3.1V36.5z"/>
				<path class="st2" d="M61.1,39.5c0-1.1-0.9-2-2-2H13.8c-1.1,0-2,0.9-2,2v0.1c0,1.1,0.9,2,2,2h45.3C60.2,41.6,61.1,40.7,61.1,39.5
					L61.1,39.5z"/>
				<path class="st2" d="M30.6,37.4c0-0.7-0.6-1.2-1.2-1.2h-0.1c-0.7,0-1.2,0.6-1.2,1.2v4.9c0,0.7,0.6,1.2,1.2,1.2h0.1
					c0.7,0,1.2-0.6,1.2-1.2V37.4z"/>
				<g>
					<path class="st2" d="M17.5,40.7h4.5c1.3,0,2.4,0.9,2.4,2.2v4.3c0,1.1-0.6,2.1-1.7,2.4v-4c0-0.7-0.5-1-1.1-1h-0.1
						c-0.5,0-1,0.3-1,1v4.2h-1.9v-4.2c0-0.7-0.5-1-1-1h-0.1c-0.5,0-1,0.3-1,1v3.8C15.5,49,15,48.2,15,47.2v-4.3
						C15,41.6,16.1,40.7,17.5,40.7z"/>
				</g>
			</g>
			<g>
				<path class="st3" d="M68.8,68.2c0.4-2.5,2.7-4.1,5.2-3.8l13.6,1.9c2.5,0.4,4.3,2.5,3.9,5l-10,70.8c-0.4,2.5-2.7,4.2-5.2,3.9
					l-13.6-1.9c-2.5-0.4-4.2-2.7-3.9-5.2L68.8,68.2z"/>
				<g>
					<path class="st0" d="M81,70.4c-0.6-1.6-2.4-2.4-4-1.7c-1.6,0.6-2.4,2.4-1.7,4c0.6,1.6,2.4,2.4,4,1.7C80.9,73.8,81.7,72,81,70.4
						z"/>
					<g>
						<g>
							<g>
								<path class="st4" d="M78.3,69.2c0.6-0.2,1.2-0.3,1.7-0.2c-0.8-0.6-1.9-0.8-3-0.4c-1.6,0.6-2.4,2.4-1.7,4
									c0.4,1,1.3,1.7,2.3,1.9c-0.5-0.3-0.8-0.8-1.1-1.4C75.9,71.6,76.7,69.8,78.3,69.2z"/>
							</g>
						</g>
					</g>
				</g>
			</g>
			<g>
				<path class="st5" d="M83.1,71c-0.6-2.4,0.9-4.8,3.3-5.4l13.3-3.4c2.4-0.6,4.9,0.7,5.5,3.2l17.8,69.3c0.6,2.4-0.9,4.9-3.3,5.6
					l-13.3,3.4c-2.4,0.6-4.9-0.8-5.6-3.3L83.1,71z"/>
				<g>
					<path class="st0" d="M95.3,68.4c-1.2-1.2-3.2-1.2-4.4,0c-1.2,1.2-1.2,3.2,0,4.4c1.2,1.2,3.2,1.2,4.4,0
						C96.4,71.6,96.5,69.6,95.3,68.4z"/>
					<g>
						<g>
							<g>
								<path class="st4" d="M92.2,68.4c0.4-0.4,1-0.7,1.5-0.8c-1-0.2-2.1,0-2.9,0.8c-1.2,1.2-1.2,3.2,0,4.4
									c0.8,0.8,1.9,1.1,2.9,0.9c-0.6-0.1-1.1-0.4-1.5-0.8C91,71.6,91,69.6,92.2,68.4z"/>
							</g>
						</g>
					</g>
				</g>
			</g>
			<g>
				<path class="st6" d="M97.4,68.2c-1.5-2-1-4.8,1-6.3l11-8.2c2-1.5,4.8-1.2,6.3,0.8l42.8,57.3c1.5,2,1.1,4.9-0.9,6.4l-11,8.2
					c-2,1.5-4.9,1.1-6.4-0.9L97.4,68.2z"/>
				<g>
					<path class="st0" d="M107.7,61.2c-1.6-0.7-3.4,0.1-4.1,1.6c-0.7,1.6,0.1,3.4,1.6,4.1c1.6,0.7,3.4-0.1,4.1-1.6
						C110,63.7,109.2,61.9,107.7,61.2z"/>
					<g>
						<g>
							<g>
								<path class="st4" d="M104.8,62.3c0.2-0.6,0.6-1,1.1-1.3c-1,0.2-1.9,0.8-2.3,1.8c-0.7,1.6,0.1,3.4,1.6,4.1
									c1,0.4,2.1,0.3,3-0.3c-0.6,0.1-1.2,0-1.7-0.2C104.9,65.7,104.2,63.9,104.8,62.3z"/>
							</g>
						</g>
					</g>
				</g>
			</g>
			<path class="st7" d="M78.5,69.3c-0.1,0-0.4,0-0.8-0.4c-0.8-0.8-1.3-2.7-1.2-5.6c0-1.6-0.1-3.4-0.1-5.3c-0.3-6.5-0.3-10.5,1.4-11
				c0.6-0.2,1-0.2,1.4,0.1c0.6,0.4,0.7,1.4,0.7,1.5c0,0.2-0.1,0.3-0.3,0.3c-0.2,0-0.3-0.1-0.3-0.3c0-0.2-0.1-0.8-0.4-1
				c-0.2-0.1-0.5-0.1-0.8,0c0,0,0,0,0,0c-1.3,0.4-1.1,5.9-0.9,10.3c0.1,1.9,0.2,3.8,0.1,5.4c0,3.6,0.6,4.7,1,5.1
				c0.2,0.2,0.3,0.2,0.3,0.2l0,0c0.2,0,0.3,0.1,0.3,0.3C78.9,69.2,78.7,69.3,78.5,69.3C78.6,69.3,78.5,69.3,78.5,69.3z"/>
			<path class="st7" d="M80.1,65.6C80.1,65.6,80.1,65.6,80.1,65.6c-0.2,0-0.3-0.2-0.3-0.4c0.5-4.1-0.3-12.4-0.3-12.5
				c0-0.2,0.1-0.3,0.3-0.4c0.2,0,0.3,0.1,0.4,0.3c0,0.3,0.8,8.4,0.3,12.6C80.4,65.4,80.3,65.6,80.1,65.6z"/>
			<path class="st7" d="M92.1,68.7c-0.1,0.1-0.4,0.1-0.9,0c-1.1-0.4-2.5-2.3-3.9-5.3c-0.8-1.6-1.7-3.5-2.7-5.5
				c-3.4-6.6-5.4-10.7-4.2-11.9c0.4-0.5,0.8-0.6,1.3-0.5c0.8,0.2,1.3,1.2,1.3,1.3c0.1,0.2,0,0.4-0.1,0.5c-0.2,0.1-0.4,0-0.5-0.2
				c-0.1-0.2-0.4-0.8-0.8-0.8c-0.2-0.1-0.5,0.1-0.7,0.4c0,0,0,0,0,0c-1,0.9,1.9,6.5,4.3,11.1c1,2,2,3.8,2.8,5.5
				c1.7,3.7,2.9,4.6,3.4,4.9c0.2,0.1,0.4,0.1,0.4,0.1h0c0.2-0.1,0.4,0,0.5,0.2C92.4,68.3,92.3,68.6,92.1,68.7
				C92.2,68.7,92.2,68.7,92.1,68.7z"/>
			<path class="st7" d="M91.7,64.1C91.7,64.1,91.7,64.1,91.7,64.1c-0.2,0.1-0.4-0.1-0.5-0.3c-1.6-4.7-6.6-13.3-6.7-13.4
				c-0.1-0.2-0.1-0.4,0.1-0.5c0.2-0.1,0.4,0,0.5,0.2c0.2,0.4,5.1,8.7,6.7,13.5C91.9,63.9,91.9,64.1,91.7,64.1z"/>
			<path class="st7" d="M105.6,62.8c-0.1,0.1-0.3,0.3-0.9,0.3c-1.4-0.1-3.6-1.5-6.6-4.2c-1.6-1.4-3.5-3-5.6-4.7
				c-6.9-5.7-11-9.3-10.4-11c0.2-0.6,0.5-0.9,1-1c0.9-0.1,1.9,0.8,2,0.9c0.2,0.2,0.2,0.4,0.1,0.5c-0.1,0.1-0.4,0.1-0.5-0.1
				c-0.2-0.2-0.8-0.6-1.2-0.6c-0.2,0-0.4,0.2-0.5,0.6c0,0,0,0,0,0c-0.5,1.3,5.3,6.1,10,10c2,1.7,4,3.3,5.6,4.8
				c3.6,3.3,5.3,3.8,5.9,3.9c0.3,0,0.4-0.1,0.4-0.1l0,0c0.1-0.1,0.3-0.1,0.5,0C105.6,62.4,105.7,62.6,105.6,62.8
				C105.6,62.8,105.6,62.8,105.6,62.8z"/>
			<path class="st7" d="M103.1,58.6C103.1,58.6,103.1,58.6,103.1,58.6c-0.2,0.1-0.4,0.1-0.6-0.1c-4.4-4.5-14.3-12.1-14.4-12.2
				c-0.2-0.2-0.3-0.4-0.2-0.6c0.1-0.1,0.4-0.1,0.6,0c0.4,0.3,10.1,7.7,14.5,12.3C103.2,58.2,103.2,58.4,103.1,58.6z"/>
		</g>
		<g>
			<g>
				<path class="st0" d="M65,129l2.2,0.3l-0.1,1.1l8.3,1.1l0.1-1.1l2.2,0.3l-0.6,5l-2.2-0.3l0.1-1.1l-8.3-1.1l-0.1,1.1l-2.2-0.3
					L65,129z"/>
				<path class="st0" d="M78,128.8l-12.7-1.6l0.6-4.5c0.6-4.5,2.9-6.5,7-6c2,0.3,3.5,1.1,4.5,2.5c1,1.4,1.4,3.1,1.1,5.1L78,128.8z
					 M68,124.6l8,1l0.2-1.4c0.2-1.2-0.1-2.3-0.7-3.1c-0.7-0.8-1.6-1.3-2.9-1.4c-1.2-0.2-2.2,0.1-3,0.7c-0.8,0.6-1.3,1.5-1.4,2.8
					L68,124.6z"/>
				<path class="st0" d="M80.6,107.8l-1,7.6L67,113.8l0.9-7.3l2.3,0.3l-0.6,4.5l2.8,0.4l0.5-4.1l2.3,0.3l-0.5,4.1l2.9,0.4l0.6-4.8
					L80.6,107.8z"/>
				<path class="st0" d="M82.3,94.5l-0.4,3.1L79,98.2l-0.6,4.5l2.7,1.3l-0.4,3.1l-12.1-6.2l0.4-3.4L82.3,94.5z M76.7,98.6l-4.4,0.8
					c-0.3,0.1-0.7,0.1-1.2,0.1l0,0.1c0.4,0.1,0.7,0.2,1.1,0.4l4.1,1.9L76.7,98.6z"/>
			</g>
		</g>
		<g>
			<g>
				<path class="st0" d="M111,134.9l2.8-0.7l0.5,1.8l-8.1,2.1l-0.7-2.8c-0.5-2,0.1-3.3,1.8-3.7c0.8-0.2,1.5-0.1,2.2,0.4
					c0.6,0.5,1.1,1.2,1.3,2.1L111,134.9z M107.1,135.8l2.5-0.6l-0.2-0.7c-0.2-1-0.8-1.3-1.6-1.1c-0.8,0.2-1.1,0.8-0.9,1.8
					L107.1,135.8z"/>
				<path class="st0" d="M111.2,124.1l1.2,4.8l-8.1,2.1l-0.5-1.8l6.6-1.7l-0.8-3L111.2,124.1z"/>
				<path class="st0" d="M109,115.6l0.5,2l-1.6,1l0.7,2.9l1.9,0.1l0.5,2l-8.8-0.9l-0.6-2.2L109,115.6z M106.6,119.4l-2.5,1.6
					c-0.2,0.1-0.4,0.2-0.7,0.3l0,0c0.2,0,0.5-0.1,0.7,0l3,0.2L106.6,119.4z"/>
				<path class="st0" d="M106.9,107.3l0.5,1.8l-4.2,4.6c-0.2,0.3-0.4,0.5-0.6,0.6l0,0c0.3-0.1,0.7-0.2,1.3-0.4l4.4-1.1l0.4,1.7
					l-8.1,2.1l-0.5-2l4.1-4.5c0.2-0.2,0.4-0.4,0.6-0.6l0,0c-0.2,0.1-0.5,0.2-1.1,0.3l-4.5,1.1l-0.4-1.7L106.9,107.3z"/>
				<path class="st0" d="M104.5,98.3l0.5,1.8l-4.2,4.6c-0.2,0.3-0.4,0.5-0.6,0.6l0,0c0.3-0.1,0.7-0.2,1.3-0.4l4.4-1.1l0.4,1.7
					l-8.1,2.1l-0.5-2l4.1-4.5c0.2-0.2,0.4-0.4,0.6-0.6l0,0c-0.2,0.1-0.5,0.2-1.1,0.3l-4.5,1.1l-0.4-1.7L104.5,98.3z"/>
				<path class="st0" d="M95.4,96l1.4-0.4l0.2,0.7l5.2-1.3l-0.2-0.7l1.4-0.4l0.8,3.2l-1.4,0.4l-0.2-0.7l-5.2,1.3l0.2,0.7l-1.4,0.4
					L95.4,96z"/>
				<path class="st0" d="M101.3,85.5l0.5,1.8L97.5,92c-0.2,0.3-0.4,0.5-0.6,0.6l0,0c0.3-0.1,0.7-0.2,1.3-0.4l4.4-1.1l0.4,1.7
					l-8.1,2.1l-0.5-2l4.1-4.5c0.2-0.2,0.4-0.4,0.6-0.6l0,0c-0.2,0.1-0.5,0.2-1.1,0.3l-4.5,1.1l-0.4-1.7L101.3,85.5z"/>
				<path class="st0" d="M98.6,77.2c0.7,0.7,1.1,1.6,1.4,2.8c0.3,1.3,0.2,2.4-0.3,3.3c-0.5,0.9-1.4,1.6-2.7,1.9
					c-1.3,0.3-2.4,0.2-3.4-0.4c-1-0.6-1.7-1.6-2-3c-0.2-0.9-0.3-1.6-0.2-2.3l1.7-0.4c-0.2,0.7-0.2,1.5,0,2.4
					c0.2,0.8,0.6,1.3,1.2,1.7c0.6,0.3,1.3,0.4,2.1,0.2c0.8-0.2,1.4-0.6,1.8-1.1c0.3-0.5,0.4-1.2,0.2-1.9c-0.1-0.4-0.3-0.8-0.5-1
					l-1.6,0.4l0.4,1.6l-1.4,0.4l-0.9-3.4L98.6,77.2z"/>
			</g>
		</g>
		<g>
			<g>
				<path class="st0" d="M112.7,75.3l-1.1-1.4l0.8-2c0.1-0.1,0.1-0.3,0.1-0.4c0-0.1,0.1-0.2,0.1-0.4c0-0.1,0-0.2,0-0.3
					c0-0.1-0.1-0.2-0.1-0.3l-0.3-0.3l-2.1,1.7l-1-1.3l5.6-4.3l1.5,2c1.1,1.4,1.1,2.4,0.1,3.2c-0.2,0.2-0.4,0.3-0.6,0.3
					c-0.2,0.1-0.4,0.1-0.6,0.1c-0.2,0-0.4,0-0.6-0.1c-0.2-0.1-0.4-0.2-0.6-0.3l0,0c0,0.1,0.1,0.2,0.1,0.3c0,0.1,0,0.3,0,0.4
					c0,0.1-0.1,0.3-0.1,0.4c0,0.1-0.1,0.3-0.1,0.4L112.7,75.3z M114.7,68.3l-1.5,1.2l0.4,0.5c0.2,0.3,0.5,0.4,0.7,0.5
					c0.3,0,0.5,0,0.8-0.2c0.5-0.4,0.5-0.9,0.1-1.4L114.7,68.3z"/>
				<path class="st0" d="M115.7,79.2l-2.6-3.3l5.6-4.3l2.5,3.2l-1,0.8l-1.5-2l-1.2,1l1.4,1.8l-1,0.8l-1.4-1.8l-1.3,1l1.6,2.1
					L115.7,79.2z"/>
				<path class="st0" d="M120.2,85l-1.1-1.4l0.9-1.4l-1.5-2l-1.5,0.6l-1.1-1.4l7.1-2.3l1.2,1.5L120.2,85z M120.8,81.2l1.4-2.1
					c0.1-0.2,0.2-0.3,0.4-0.5l0,0c-0.2,0.1-0.4,0.2-0.6,0.3l-2.4,0.9L120.8,81.2z"/>
				<path class="st0" d="M123.3,89l-2.6-3.3l5.6-4.3l1,1.3l-4.6,3.5l1.6,2.1L123.3,89z"/>
				<path class="st0" d="M130.8,87.1l-1,0.8l-0.4-0.5l-3.6,2.8l0.4,0.5l-1,0.8l-1.7-2.2l1-0.8l0.4,0.5l3.6-2.8l-0.4-0.5l1-0.8
					L130.8,87.1z"/>
				<path class="st0" d="M129,96.3l-3.5-4.5l0.7-0.6l6-0.1l-2.1-2.6l1-0.8l3.3,4.3l-0.7,0.5l-6,0.2l2.2,2.8L129,96.3z"/>
				<path class="st0" d="M133.4,102l-1.1-1.4l0.9-1.4l-1.5-2l-1.5,0.6l-1.1-1.4l7.1-2.3l1.2,1.5L133.4,102z M134,98.2l1.4-2.1
					c0.1-0.2,0.2-0.3,0.4-0.5l0,0c-0.2,0.1-0.4,0.2-0.6,0.3l-2.4,0.9L134,98.2z"/>
				<path class="st0" d="M141.1,102.5l-1.2-1.6l-4.5,3.5l-1-1.3l4.5-3.5l-1.2-1.6l1-0.8l3.4,4.4L141.1,102.5z"/>
				<path class="st0" d="M144.1,104.2l-1,0.8l-0.4-0.5l-3.6,2.8l0.4,0.5l-1,0.8l-1.7-2.2l1-0.8l0.4,0.5l3.6-2.8l-0.4-0.5l1-0.8
					L144.1,104.2z"/>
				<path class="st0" d="M140.9,111.7c-0.6-0.8-0.9-1.6-0.7-2.6c0.1-0.9,0.6-1.7,1.4-2.3c0.9-0.7,1.8-1,2.7-0.9
					c0.9,0.1,1.7,0.6,2.4,1.4c0.6,0.8,0.9,1.6,0.7,2.5c-0.1,0.9-0.6,1.7-1.5,2.3c-0.9,0.7-1.8,1-2.7,0.9
					C142.3,113,141.5,112.5,140.9,111.7z M145.6,108.1c-0.3-0.4-0.8-0.7-1.3-0.7c-0.5,0-1.1,0.2-1.6,0.6c-0.6,0.4-0.9,0.9-1,1.4
					c-0.1,0.5,0,1,0.3,1.4c0.3,0.4,0.8,0.7,1.3,0.7c0.5,0,1-0.2,1.6-0.6c0.6-0.4,0.9-0.9,1.1-1.4C146,109,145.9,108.6,145.6,108.1z"
					/>
				<path class="st0" d="M147.7,120.3l-1-1.3l1.7-5c0.1-0.3,0.2-0.5,0.2-0.6l0,0c-0.2,0.2-0.5,0.4-0.9,0.7l-3.1,2.4l-0.9-1.2
					l5.6-4.3l1.1,1.4l-1.7,4.8c-0.1,0.2-0.2,0.4-0.2,0.6l0,0c0.1-0.1,0.4-0.3,0.7-0.6l3.1-2.4l0.9,1.2L147.7,120.3z"/>
			</g>
		</g>
	</g>
</g>
<g id="Layer_2">
</g>
</svg>
