<?xml version="1.0" encoding="utf-8"?>
<!-- Generator: Adobe Illustrator 22.0.1, SVG Export Plug-In . SVG Version: 6.00 Build 0)  -->
<svg version="1.1" id="_x3C_Layer_x3E_" xmlns="http://www.w3.org/2000/svg" xmlns:xlink="http://www.w3.org/1999/xlink" x="0px"
	 y="0px" viewBox="0 0 288.6 289.1" style="enable-background:new 0 0 288.6 289.1;" xml:space="preserve">
<style type="text/css">
	.st0{fill:#FFFFFF;}
	.st1{fill:#DEEBE9;}
	.st2{fill:#BED5DC;}
	.st3{fill:#436E8E;}
	.st4{opacity:0.4;}
	.st5{fill:#9BBCB6;}
	.st6{fill:#96B4E0;}
	.st7{fill:#6F4975;}
	.st8{fill:#F7B686;}
	.st9{fill:#2F1A31;}
	.st10{fill:#CED891;}
	.st11{fill:#DD8964;}
	.st12{opacity:0.5;}
	.st13{fill:#E08B65;}
	.st14{fill:#56335B;}
	.st15{fill:#060633;}
	.st16{fill:#E28569;}
	.st17{fill:#020202;}
	.st18{fill:#96A7E2;}
	.st19{opacity:0.3;}
	.st20{fill:#74A1BD;}
	.st21{fill:#42428E;}
</style>
<rect x="895" y="-656.9" class="st0" width="2760" height="1840"/>
<g>
	<path class="st1" d="M246.8,281.6c-23,4.4-46.7,2.6-95.1-2.1c-27.2-2.6-81.8,1.7-109.1,2.1c-19.9,0.2-36-22.6-36-50.5V146V57.1
		c0-27.9,16.2-52.1,36-50.5c18.4,1.5,45.5,7.6,73.8,3.9c33.6-4.4,97.4-8.1,130.3-3.9c19.8,2.6,36,22.6,36,50.5v173.9
		C282.8,259,266.5,277.8,246.8,281.6z"/>
</g>
<g>
	<ellipse class="st2" cx="143.2" cy="234.7" rx="136.5" ry="19.5"/>
</g>
<g>
	<g>
		<path class="st3" d="M220.6,186.2C220.6,186.2,220.6,186.2,220.6,186.2l-33.1-4.5c0,0,0,0-0.1,0c0,0,0,0,0-0.1
			c0-0.1,0.8-6.2-1.2-14.1c-1.2-4.6-3.1-9-5.7-12.9c-3.3-4.9-7.6-9.1-13-12.6c-8.9-5.4-15.6-12-19.9-19.7
			c-4.5-8.2-6.1-17.4-4.7-27.3c1.1-7.9,4.2-16.1,8.9-23.7c4.6-7.4,10.8-14.3,17.9-19.9c7.4-5.8,15.5-10.2,24.1-12.8
			c9.2-2.9,18.5-3.7,27.6-2.4c21.2,2.9,40.5,14,51.6,29.9c4.1,5.8,6.9,12,8.4,18.4c1.6,6.7,1.7,13.5,0.2,20.2
			c-5,23.6-15.1,38.6-30.8,45.8c-1.3,0.6-8.3,4.1-15.1,10.1c-3.9,3.4-7.1,7.1-9.5,10.9C223.3,176.1,221.4,181.1,220.6,186.2
			C220.7,186.2,220.7,186.2,220.6,186.2z M187.6,181.6l32.9,4.5c0.7-5.1,2.6-10,5.6-14.7c2.5-3.8,5.7-7.5,9.6-11
			c6.9-6.1,13.8-9.5,15.2-10.2c15.7-7.2,25.7-22.2,30.7-45.7c1.4-6.6,1.3-13.4-0.2-20.1c-1.5-6.4-4.3-12.5-8.4-18.3
			c-11.1-15.8-30.4-27-51.5-29.8c-9.1-1.2-18.4-0.4-27.5,2.4c-8.6,2.7-16.7,7-24,12.8c-7.1,5.6-13.2,12.5-17.8,19.9
			c-4.7,7.6-7.7,15.7-8.9,23.6c-1.4,9.9,0.2,19,4.6,27.2c4.2,7.7,10.9,14.3,19.8,19.7c5.4,3.5,9.7,7.7,13,12.6
			c2.6,3.9,4.6,8.3,5.8,12.9C188.3,174.9,187.7,180.7,187.6,181.6z"/>
	</g>
	<g class="st4">
		<path class="st3" d="M182.2,71.3c-1,0-1.9-0.3-2.8-0.8c-2.9-1.7-4.1-5.8-2.8-9.8c1.3-4.1,4.9-7.9,9.7-10.3
			c3.6-1.8,7.3-2.4,9.9-1.5c6.8,2.4,10.4,4.8,10.8,7.2c0.2,1.2-0.4,2.5-1.9,3.6c0,0,0,0,0,0c-0.1,0-10.1,1.5-16.7,8.5
			C186.3,70.3,184.2,71.3,182.2,71.3z M193.4,48.7c-2.1,0-4.6,0.7-7.1,1.9c-4.7,2.4-8.3,6.2-9.6,10.2c-1.3,3.9-0.1,7.9,2.7,9.6
			c2.6,1.5,5.8,0.7,8.6-2.3c6.5-6.9,16.2-8.4,16.8-8.5c1.4-1.1,2-2.3,1.9-3.4c-0.4-2.3-4-4.7-10.7-7
			C195.2,48.9,194.4,48.7,193.4,48.7z M204.9,59.7L204.9,59.7L204.9,59.7z"/>
	</g>
</g>
<g>
	<g>
		<path class="st3" d="M108.7,100.1c-1.5,0-2.8-1-3.1-2.4l-1.1-4.2c-0.3-1.3-1.4-2.2-2.7-2.3l0,0c-0.1,0-0.2,0-0.2,0
			c-1.2,0-2.2,0.7-2.7,1.8L97,96.7c-0.5,1.1-1.7,1.9-2.9,1.9c-0.5,0-0.9-0.1-1.4-0.3l-5-2.3c-0.8-0.4-1.4-1-1.7-1.8
			c-0.3-0.8-0.3-1.7,0.1-2.5l1.7-3.7c0.5-1.1,0.3-2.5-0.6-3.4l0,0c-0.6-0.6-1.4-0.9-2.2-0.9c-0.5,0-0.9,0.1-1.3,0.3l-4,1.9
			c-0.4,0.2-0.9,0.3-1.4,0.3c-1.2,0-2.4-0.7-2.9-1.9l-2.4-5c-0.4-0.8-0.4-1.7-0.1-2.5c0.3-0.8,0.9-1.5,1.7-1.8l4.6-2.2
			c1.1-0.5,1.8-1.6,1.7-2.8c0-0.3,0-0.6,0-0.9c0-1.2-0.7-2.2-1.8-2.7l-4.3-2c-1.6-0.8-2.3-2.7-1.6-4.3l2.3-5
			c0.5-1.1,1.7-1.9,2.9-1.9c0.5,0,0.9,0.1,1.4,0.3l3.2,1.5c0.4,0.2,0.8,0.3,1.3,0.3c0.9,0,1.7-0.4,2.3-1c0.7-0.8,1.4-1.5,2.2-2.2
			c0.9-0.8,1.3-2,1-3.1l-1.1-4.4c-0.5-1.7,0.6-3.5,2.3-4l5.3-1.4c0.3-0.1,0.5-0.1,0.8-0.1c1.5,0,2.8,1,3.1,2.4l0.8,3.1
			c0.3,1.3,1.5,2.2,2.8,2.3c0.3,0,0.5,0,0.8,0c1.2,0.1,2.4-0.6,2.9-1.7l1.2-2.6c0.5-1.1,1.7-1.9,2.9-1.9c0.5,0,0.9,0.1,1.4,0.3
			l5,2.3c0.8,0.4,1.4,1,1.7,1.8c0.3,0.8,0.3,1.7-0.1,2.5l-1.2,2.6c-0.5,1.1-0.3,2.5,0.5,3.4c0.2,0.2,0.4,0.4,0.5,0.6
			c0.6,0.6,1.4,1,2.3,1c0.5,0,0.9-0.1,1.3-0.3l2.9-1.4c0.4-0.2,0.9-0.3,1.4-0.3c1.2,0,2.4,0.7,2.9,1.9l2.4,5
			c0.8,1.6,0.1,3.5-1.5,4.3l-4.1,1.9c-1.1,0.5-1.7,1.6-1.7,2.8c0,1-0.1,2.1-0.2,3.1c-0.2,1.3,0.5,2.6,1.7,3.2l3.2,1.5
			c1.6,0.8,2.3,2.7,1.6,4.3l-2.3,5c-0.5,1.1-1.7,1.9-2.9,1.9c0,0,0,0,0,0c-0.5,0-0.9-0.1-1.4-0.3l-4.3-2c-0.4-0.2-0.9-0.3-1.3-0.3
			c-0.7,0-1.4,0.2-1.9,0.7c-0.2,0.2-0.5,0.4-0.7,0.6c-1,0.7-1.4,2-1.1,3.2l1.3,4.9c0.5,1.7-0.6,3.5-2.3,4l-5.3,1.4
			C109.3,100.1,109,100.1,108.7,100.1z M101.5,91c0.1,0,0.2,0,0.2,0l0,0c1.4,0.1,2.6,1.1,2.9,2.4l1.1,4.2c0.3,1.3,1.6,2.3,2.9,2.3
			c0.3,0,0.5,0,0.8-0.1l5.3-1.4c1.6-0.4,2.6-2.1,2.2-3.7l-1.3-4.9c-0.3-1.3,0.1-2.6,1.1-3.4c0.2-0.2,0.5-0.4,0.7-0.6
			c0.6-0.5,1.3-0.7,2.1-0.7c0.5,0,1,0.1,1.4,0.3l4.3,2c0.4,0.2,0.8,0.3,1.3,0.3h0c1.2,0,2.3-0.7,2.8-1.8l2.3-5c0.7-1.5,0-3.3-1.5-4
			l-3.2-1.5c-1.3-0.6-2-2-1.8-3.4c0.1-1,0.2-2,0.2-3.1c0-1.3,0.7-2.4,1.8-3l4.1-1.9c1.5-0.7,2.2-2.5,1.4-4l-2.4-5
			c-0.5-1.1-1.6-1.7-2.7-1.7c-0.5,0-0.9,0.1-1.3,0.3l-2.9,1.4c-0.4,0.2-0.9,0.3-1.4,0.3c-0.9,0-1.8-0.4-2.4-1.1
			c-0.2-0.2-0.4-0.4-0.5-0.6c-0.9-0.9-1.2-2.4-0.6-3.6l1.2-2.6c0.3-0.7,0.4-1.6,0.1-2.3c-0.3-0.8-0.8-1.4-1.6-1.7l-5-2.3
			c-0.4-0.2-0.8-0.3-1.3-0.3c-1.2,0-2.3,0.7-2.8,1.8l-1.2,2.6c-0.6,1.2-1.8,2-3.1,1.9c-0.3,0-0.5,0-0.8,0c-1.4-0.1-2.6-1-3-2.4
			l-0.8-3.1c-0.3-1.3-1.6-2.3-2.9-2.3c-0.3,0-0.5,0-0.8,0.1l-5.3,1.4c-1.6,0.4-2.6,2.1-2.2,3.7l1.1,4.4c0.3,1.2-0.1,2.5-1.1,3.3
			c-0.8,0.7-1.5,1.4-2.2,2.1c-0.6,0.7-1.5,1.1-2.4,1.1c-0.5,0-0.9-0.1-1.4-0.3l-3.2-1.5c-0.4-0.2-0.8-0.3-1.3-0.3
			c-1.2,0-2.3,0.7-2.8,1.8l-2.3,5c-0.7,1.5,0,3.3,1.5,4l4.3,2c1.1,0.5,1.9,1.7,1.9,2.9c0,0.3,0,0.6,0,0.9c0,1.3-0.7,2.5-1.9,3
			L74.8,75c-0.7,0.3-1.3,1-1.6,1.7c-0.3,0.8-0.2,1.6,0.1,2.3l2.4,5c0.5,1.1,1.6,1.7,2.7,1.7c0.5,0,0.9-0.1,1.3-0.3l4-1.9
			c0.4-0.2,0.9-0.3,1.4-0.3c0.9,0,1.7,0.4,2.3,1l0,0c0.9,1,1.2,2.4,0.6,3.6l-1.7,3.7c-0.3,0.7-0.4,1.6-0.1,2.3
			c0.3,0.8,0.8,1.4,1.6,1.7l5,2.3c0.4,0.2,0.8,0.3,1.3,0.3c1.2,0,2.3-0.7,2.8-1.8l1.7-3.7C99.1,91.7,100.2,91,101.5,91z"/>
	</g>
	<g>
		<path class="st3" d="M101.7,81.6c-1.9,0-3.6-0.4-5.1-1c-2.8-1.3-4.8-3.8-5.7-7.2c-0.8-3.2-0.6-6.7,0.8-9.5
			c1.7-3.6,5.7-5.8,10.6-5.8c2.3,0,4.5,0.5,6.4,1.4c2.9,1.3,5.1,3.6,6.2,6.4c1.1,2.8,1.1,5.9-0.2,8.7
			C112.5,79.1,106.5,81.6,101.7,81.6z M102.3,58.2c-4.8,0-8.8,2.2-10.5,5.6c-1.3,2.8-1.6,6.3-0.8,9.4c0.9,3.3,2.9,5.8,5.5,7.1
			c1.4,0.7,3.2,1,5,1c4.8,0,10.7-2.4,12.9-6.9c1.3-2.7,1.4-5.8,0.2-8.6c-1.1-2.7-3.3-5-6.1-6.3C106.8,58.7,104.6,58.2,102.3,58.2z"
			/>
	</g>
</g>
<g>
	<g>
		<path class="st5" d="M216.4,36.2c-37.9-5.1-73.7,26.3-78.3,58.9c-2.9,20.5,7.2,36.6,24.5,47c23.4,15.2,19.9,39.6,19.9,39.6
			l33.1,4.5c3.2-22.1,27.3-34.4,30.3-35.8c14.7-6.8,25.4-20.7,30.8-45.8C283.5,72.3,254.3,41.3,216.4,36.2z"/>
	</g>
	<g>
		<path class="st6" d="M217.8,177.8c0,0,10.2,3,6,14.3c0,0,6.3,8.9-1.7,14.5c0,0,4.8,9.1-2.1,16.3c-6.9,7.2-49-2.2-51.8-7
			s-0.3-9.7,3.4-10.4c0,0-4.5-4.7-2.5-9.4c2-4.8,4.8-5.4,4.8-5.4s-3.5-2.7-3-9.3C171.7,174.7,180.4,167.3,217.8,177.8z"/>
	</g>
	<g class="st4">
		<path class="st0" d="M199.9,59.7c0,0-10.1,1.4-16.8,8.5c-6.7,7.1-14,0.6-11.5-7.4c2.5-8,13.6-13.8,19.4-11.7
			C196.9,51.1,205.8,55,199.9,59.7z"/>
	</g>
	<g>
		<g>
			<path class="st7" d="M222.2,207.3c-0.1,0-0.2,0-0.3-0.1c0,0-3.7-1.9-9.5-3.4c-5.3-1.4-13.6-2.6-22.6-1c-0.4,0.1-0.8-0.2-0.9-0.6
				c-0.1-0.4,0.2-0.8,0.6-0.9c9.3-1.7,17.8-0.4,23.3,1c5.9,1.5,9.6,3.4,9.8,3.5c0.4,0.2,0.5,0.6,0.3,1
				C222.7,207.2,222.5,207.3,222.2,207.3z"/>
		</g>
	</g>
	<g>
		<g>
			<path class="st7" d="M223.9,192.8c-0.1,0-0.2,0-0.3-0.1c-0.1,0-5.2-2-12-3.6c-6.3-1.4-15.3-2.8-22.7-1.1
				c-0.4,0.1-0.8-0.2-0.9-0.5c-0.1-0.4,0.2-0.8,0.6-0.9c7.7-1.8,17-0.4,23.4,1.1c6.9,1.6,12.1,3.6,12.2,3.7c0.4,0.1,0.6,0.6,0.4,0.9
				C224.4,192.6,224.2,192.8,223.9,192.8z"/>
		</g>
	</g>
</g>
<g>
	<g>
		<g>
			<path class="st8" d="M138.8,141.6c1.1-1.1-2.2-5.1-2.2-5.1c-0.4-0.3-7.4,6.3-15.4,3.8c-2.8-0.9-6.8-5.9-7.1-6.6
				c0-0.1-6.3,2.2-6.3,2.2c0.5,1.3,1.1,5.6,4.2,8.4C118.3,150.1,132.9,149.5,138.8,141.6z"/>
		</g>
	</g>
	<g>
		<path class="st9" d="M101.5,222.2c0,0,0.1,2.2,1.5,2.8c1.5,0.6,5.7,1.2,4.1,2.6c-0.9,0.8-5.2,0.3-6.4,0.3c-1.2,0-2.3,0.5-3.2-0.3
			c-1-0.9,0-5.3,0-5.3s1,0.5,2,0.5C100.9,222.6,101.5,222.2,101.5,222.2z"/>
	</g>
	<g>
		<path class="st7" d="M114.2,156.8c0,0,0.3,9.8-2.8,28.5c-2.3,13.5-4.9,27.2-6.2,33.7c-0.5,2.3-2.4,4-4.8,4.1l-1.3,0.1
			c-2.5,0.1-4.6-2.1-4.4-4.6l3.2-44.2l0.8-14.6L114.2,156.8z"/>
	</g>
	<g>
		<path class="st9" d="M87.7,222.2c0,0,0.1,2.2,1.5,2.8c1.5,0.6,5.7,1.2,4.1,2.6c-0.9,0.8-5.2,0.3-6.4,0.3c-1.2,0-2.3,0.5-3.2-0.3
			c-1-0.9,0-5.3,0-5.3s1,0.5,2,0.5C87,222.6,87.7,222.2,87.7,222.2z"/>
	</g>
	<g>
		<path class="st7" d="M100.3,156.8c0,0,0.3,9.8-2.8,28.5c-2.3,13.5-4.9,27.2-6.2,33.7c-0.5,2.3-2.4,4-4.8,4.1l-1.3,0.1
			c-2.5,0.1-4.6-2.1-4.4-4.6l3.2-44.2l0.8-14.6L100.3,156.8z"/>
	</g>
	<g>
		<path class="st9" d="M83.3,167.5c0,1.2,7.2,1.6,16,1.4c8.8-0.3,15.9-1.5,15.8-2.7c0-1.2-7.1-1.9-15.9-1.6
			C90.3,164.9,83.2,166.3,83.3,167.5z"/>
	</g>
	<g>
		<path class="st10" d="M85.4,134.2c0,0,1.6-6.2,13.1-6.2c16.6-0.1,15.1,15.2,16.6,38.3c0,0-16.3-2.3-31.8,1
			C83.3,167.2,81.8,143.6,85.4,134.2z"/>
	</g>
	<g>
		<path class="st10" d="M81.2,133.3l7.5,4.2c0,0,16.5,1.5,20.8,0.8c4.4-0.7,5.6-3.9,5.6-3.9s-4.7-4.8-12.6-6.1
			c-0.7-0.1-1.5-0.2-2.3-0.3c-1.3-0.1-2.7-0.1-4,0.1C86.2,129.1,81.2,133.3,81.2,133.3z"/>
	</g>
	<g>
		<path class="st8" d="M96.9,126.5l0.9-2.8l0.3-0.8l1.5-4.8l0.2,4.8l0.1,2.9l0,0.9c0,0.6,0.1,1.2,0.6,1.8c0.2,0.2,0.9,1.5-0.4,2.1
			c-1.1,0.5-4.1-0.8-5.3-2.3C94.8,128.2,96.6,127.4,96.9,126.5z"/>
	</g>
	<g>
		<path class="st7" d="M113.7,167.2c0,0-9.6-2.8-29.3,1l-0.2,2.8l29,1L113.7,167.2z"/>
	</g>
	<g>
		<path class="st9" d="M81,133.4c-0.6,0.9,0.3,2.7,2.1,4c1.8,1.3,3.8,1.6,4.4,0.7c0.6-0.9-0.3-2.7-2.1-4
			C83.6,132.9,81.7,132.5,81,133.4z"/>
	</g>
	<g>
		<g>
			<path class="st8" d="M140.1,139L140.1,139c0.2,0.3,0.6,0.4,0.9,0.2l5-3c0.3-0.2,0.4-0.6,0.2-0.9l0,0c-0.2-0.3-0.6-0.4-0.9-0.2
				l-5,3C140,138.2,139.9,138.7,140.1,139z"/>
		</g>
		<g>
			<path class="st8" d="M139.2,137.5L139.2,137.5c0.2,0.3,0.6,0.4,0.9,0.2l5.6-3.4c0.3-0.2,0.4-0.6,0.2-0.9l0,0
				c-0.2-0.3-0.6-0.4-0.9-0.2l-5.6,3.4C139.1,136.7,139,137.2,139.2,137.5z"/>
		</g>
		<g>
			<path class="st8" d="M136.1,138.8l0.2,0.1c0.4,0.2,0.9-0.1,1.1-0.5l1.6-4.2c0.2-0.4-0.1-0.9-0.5-1.1l-0.2-0.1
				c-0.4-0.2-0.9,0.1-1.1,0.5l-1.6,4.2C135.4,138.2,135.6,138.7,136.1,138.8z"/>
		</g>
		<g>
			<path class="st8" d="M138.3,136L138.3,136c0.2,0.3,0.6,0.4,0.9,0.2l4.5-2.7c0.3-0.2,0.4-0.6,0.2-0.9l0,0
				c-0.2-0.3-0.6-0.4-0.9-0.2l-4.5,2.7C138.2,135.2,138.1,135.7,138.3,136z"/>
		</g>
		<g>
			<path class="st8" d="M137.9,141.7c0,0,3.9,0,5.6-2.2c0.6-0.8-2.2-5.1-3.3-5c-1.1,0.1-3.9,2.2-3.9,2.2L137.9,141.7z"/>
		</g>
		<g>
			<path class="st8" d="M141,140.5L141,140.5c0.2,0.3,0.6,0.4,0.9,0.2l4.5-2.7c0.3-0.2,0.4-0.6,0.2-0.9l0,0
				c-0.2-0.3-0.6-0.4-0.9-0.2l-4.5,2.7C140.9,139.7,140.8,140.2,141,140.5z"/>
		</g>
	</g>
	<g>
		<path class="st9" d="M112.1,137.6c-0.5-1.7-2.1-3.9-2.1-3.9l0.2-0.1c0,0,1.6,2.2,2.1,4L112.1,137.6z"/>
	</g>
	<g>
		<g>
			<path class="st0" d="M98.9,137.8c0.2,0.3,0.4,0.5,0.6,0.6c0.5,0.4,1,0.8,1.5,1.3c0.6,0.5,1.2,1,1.3,1.8c0.1,0.5-0.1,1.1,0.1,1.6
				c0.2,0.5,0.8,0.8,1.4,0.9c0.6,0.1,2.1,0.2,2.6,1c0.2,0.3,0.6,0.4,1,0.4c0.7-0.1,0.9-0.9,0.4-1.5c-0.3-0.3-0.5-0.7-0.8-1
				c-0.4-0.6-0.7-1.3-0.7-2.1c0-0.9,0.2-2-0.3-2.8c-0.3-0.5-0.8-0.7-1.3-1c-0.9-0.5-2-1.1-2.2-2.2c-0.1-0.4,0-0.9-0.3-1.3
				c-0.2-0.3-0.6-0.4-0.9-0.4c-0.3,0-0.7,0-0.9,0.3c-0.2,0.2-0.1,0.6-0.1,0.9c-0.1,0.8-1,1.2-1.4,1.8
				C98.6,136.6,98.6,137.3,98.9,137.8z M100.2,136.7c0.2-0.3,0.6-0.4,0.9-0.4c0.1,0,0.2,0.1,0.3,0.2c0.1,0.1,0.2,0.3,0.3,0.4
				c0.1,0.2,0.3,0.4,0.6,0.5c0.3,0.2,0.7,0.2,1,0.2c0.6,0,1.6,0.2,1.6,1c0,0.5-0.5,0.6-0.9,0.6c-0.6,0-1-0.2-1.6-0.4
				c-0.7-0.3-1.5-0.3-2-0.9C100.1,137.6,100,137.1,100.2,136.7z"/>
		</g>
		<g>
			<path class="st7" d="M112.6,146.8c0,0-1.5,10.2-2.5,10.3c-1.1,0.1-5,0.3-6.3,0c-1.2-0.3-1.9-10.5-1.5-10.7
				C102.6,146.1,113,145.6,112.6,146.8z"/>
		</g>
		<g>
			<g>
				<path class="st7" d="M102.6,153l0.5-0.9c-1.3-0.7-3.2-2-3.4-2.8c0-0.1,0-0.2,0.1-0.3c0.9-1.1,2.8,0.1,2.8,0.1l0.5-0.9
					c0,0-0.7-0.4-1.5-0.6c-1.5-0.4-2.3,0.2-2.7,0.7c-0.3,0.3-0.4,0.7-0.3,1.1C99,151.1,102,152.7,102.6,153z"/>
			</g>
		</g>
	</g>
	<g>
		<g>
			<g>
				<path class="st8" d="M102,150.1c0,0,2.3-2.8,4.4-2.9c2.1-0.1,4.8,1.4,3.5,1.7c-1.3,0.3-3,0.3-3,0.3s3.8,0.2,3.3,1.1
					c-0.4,0.9-3.7,0.6-3.7,0.6s4.4,0.7,3.8,1.3c-0.7,0.7-4,0.2-4,0.2s4.1,0.8,3.3,1.5c-0.8,0.8-3.4-0.7-3.8,0.2
					c-0.4,0.9-2.5,4.1-5,3.2L102,150.1z"/>
			</g>
		</g>
		<g>
			<path class="st11" d="M105.4,149.6l-0.1-0.1c0.5-0.5,1.6-0.2,1.6-0.2l0,0.2C106.9,149.4,105.9,149.2,105.4,149.6z"/>
		</g>
		<g>
			<path class="st11" d="M104.7,151.3l-0.1-0.1c0.8-0.5,1.8-0.3,1.9-0.3l0,0.2C106.5,151.1,105.5,150.8,104.7,151.3z"/>
		</g>
		<g>
			<path class="st11" d="M104.6,152.8l-0.1-0.1c0.5-0.6,1.7-0.3,1.8-0.3l0,0.2C106.2,152.5,105,152.3,104.6,152.8z"/>
		</g>
	</g>
	<g>
		<g>
			<path class="st8" d="M101.4,157.5c1.4,0,1-7.5,1-7.5c-8.4,0.9-12-1.2-13.5-3c-3.1-3.8-1.4-9.4-1.4-9.5c0,0,0.3-1.1-2.3-2.5
				c-1.2-0.7-2.3-0.9-3-1c-0.6,0-1.1,0.3-1.3,0.9c-0.7,2.7-2.3,10.9,2.4,16.6C86.6,155.5,94.5,157.5,101.4,157.5z"/>
		</g>
	</g>
	<g class="st12">
		<path class="st13" d="M87.5,152.9c-0.4,0-0.9-0.1-1.3-0.4l0,0l0,0c-1-0.6-1.4-1.6-1-2.3c0.1-0.3,0.4-0.4,0.7-0.5
			c0.5-0.1,1.2,0,1.8,0.4c1,0.6,1.4,1.6,1,2.3c-0.1,0.3-0.4,0.4-0.7,0.5C87.7,152.9,87.6,152.9,87.5,152.9z M86.2,150
			c-0.1,0-0.2,0-0.3,0c-0.2,0-0.4,0.1-0.5,0.3c-0.3,0.5,0.1,1.3,0.9,1.8l0,0c0.5,0.3,1,0.4,1.5,0.3c0.2,0,0.4-0.1,0.5-0.3
			c0.3-0.5-0.1-1.3-0.9-1.8C87,150.1,86.5,150,86.2,150z"/>
	</g>
	<g>
		<path class="st9" d="M99.8,125.7c0,0-1.6-0.3-2.3-1.3l2.4,0.5L99.8,125.7z"/>
	</g>
	<g>
		<path class="st14" d="M103.3,116.3c0,0,0.3,1.2,0,2.6c-0.3,1.5-1.8-2.1-1.8-2.1L103.3,116.3z"/>
	</g>
	<g>
		<path class="st8" d="M103.5,119.3c-0.4-2.8-2.6-4.8-4.9-4.5c-2.3,0.3-3.9,2.8-3.6,5.7c0.4,2.8,2.6,4.8,4.9,4.5
			C102.3,124.7,103.9,122.1,103.5,119.3z"/>
	</g>
	<g>
		<path class="st9" d="M95,119l2.1-0.2c0.5,0,0.9-0.3,1.1-0.7c0.4-0.7,0.9-1,2.9-0.9c2.4,0.1,4-1.4,4.3-2.6c0.3-1.3-1-2.2-2.2-1.6
			c-1.2,0.6-0.7-0.9-1.9-1.1c-2.2-0.3-2.6,1.4-4.4,1.3c-2.4-0.1-6.6,1.7-4.6,5.9L95,119z"/>
	</g>
	<g>
		<path class="st15" d="M99.5,119.7C99.5,119.6,99.5,119.6,99.5,119.7c0-0.1,0-0.2,0-0.2c0,0-0.7-0.1-1,0.6c0,0,0,0.1,0,0.1
			c0,0,0.1,0,0.1,0C98.9,119.8,99.4,119.7,99.5,119.7C99.5,119.7,99.5,119.7,99.5,119.7z"/>
	</g>
	<g>
		<path class="st15" d="M99.1,120.8c0.1,0.2,0.2,0.3,0.4,0.3c0.1,0,0.2-0.2,0.2-0.4c-0.1-0.2-0.2-0.3-0.4-0.3
			C99.2,120.4,99.1,120.6,99.1,120.8z"/>
	</g>
	<g>
		<path class="st15" d="M102.7,119.4C102.7,119.4,102.7,119.4,102.7,119.4c0.1-0.1,0-0.1,0-0.2c0,0-0.5-0.4-0.9,0.1c0,0,0,0.1,0,0.1
			c0,0,0.1,0,0.1,0C102.3,119.3,102.6,119.4,102.7,119.4C102.7,119.4,102.7,119.4,102.7,119.4z"/>
	</g>
	<g>
		<path class="st15" d="M101.9,120.3c0,0.2,0.1,0.4,0.2,0.4c0.1,0,0.3-0.1,0.3-0.3c0-0.2-0.1-0.4-0.2-0.4
			C102.1,119.9,101.9,120.1,101.9,120.3z"/>
	</g>
	<g>
		<path class="st14" d="M92.2,119.1c0,0,1.4,3.1,3.4,3.3c0,0-1.1-2.7,1.8-3.8C97.5,118.6,94.3,118.1,92.2,119.1z"/>
	</g>
	<g>
		<path class="st8" d="M95.1,120.9c0.3,0.5,0.9,0.7,1.3,0.5c0.4-0.2,0.4-0.9,0.1-1.4c-0.3-0.5-0.9-0.7-1.3-0.5
			C94.8,119.8,94.8,120.4,95.1,120.9z"/>
	</g>
	<g>
		<path class="st0" d="M102.3,122.2c0,0-1.3,0.4-2.8,0.2c0,0,0.2,1.3,1.7,1.1C102,123.4,102.3,122.2,102.3,122.2z"/>
	</g>
	<g>
		<path class="st9" d="M102.8,112.7c-0.6,0-0.7-0.6-0.7-0.6l0.1,0c0,0,0,0.5,0.6,0.5L102.8,112.7
			C102.9,112.7,102.8,112.7,102.8,112.7z"/>
	</g>
	<g>
		<path class="st0" d="M101.7,116.5L101.7,116.5c0-0.1,0.6-0.3,1.3-0.6c0.6-0.3,1.3-0.9,1.4-1.6c0-0.4,0-0.6-0.2-0.8
			c-0.3-0.2-0.7-0.1-1.1,0c-0.1,0-0.1,0-0.2,0l0-0.1c0.1,0,0.1,0,0.2,0c0.4-0.1,0.9-0.2,1.2,0c0.2,0.2,0.2,0.4,0.2,0.8
			C104.3,115.7,101.8,116.4,101.7,116.5z"/>
	</g>
	<g>
		<path class="st0" d="M96.6,113.7c-0.2,0-0.5,0-0.8-0.1l0-0.1c2.5,0.3,3.8-1.1,3.8-1.1l0,0C99.6,112.6,98.6,113.7,96.6,113.7z"/>
	</g>
</g>
<g>
	<g>
		<path class="st2" d="M252.3,96.5L257,97c1.8,0.2,3.5-1.1,3.7-2.9l0.6-5.8c0.2-1.8-1.1-3.5-2.9-3.7l-3.4-0.4
			c-1.5-0.2-2.6-1.2-2.9-2.7c-0.1-0.3-0.1-0.5-0.2-0.8c-0.3-1.3,0.3-2.7,1.4-3.5l2.6-1.7c1.5-1,1.9-3.1,0.9-4.6l-3.2-4.9
			c-1-1.5-3.1-1.9-4.6-0.9l-2.6,1.7c-1.1,0.7-2.6,0.7-3.7-0.1c-0.2-0.2-0.5-0.3-0.7-0.5c-1.2-0.8-1.8-2.3-1.3-3.7l1-3.2
			c0.5-1.8-0.5-3.6-2.2-4.1l-5.6-1.7c-1.8-0.5-3.6,0.5-4.1,2.2l-1.4,4.6c-0.4,1.2-1.4,2.1-2.7,2.3c-1.1,0.2-2.1,0.4-3.2,0.7
			c-1.4,0.4-2.9-0.1-3.7-1.3l-2.1-3.1c-1-1.5-3.1-1.9-4.6-0.9l-4.9,3.2c-1.5,1-1.9,3.1-0.9,4.6l2.8,4.2c0.7,1.1,0.8,2.5,0.1,3.6
			c-0.2,0.3-0.3,0.5-0.5,0.8c-0.6,1.1-1.9,1.8-3.2,1.6l-5.4-0.6c-1.8-0.2-3.5,1.1-3.7,2.9l-0.6,5.8c-0.2,1.8,1.1,3.5,2.9,3.7
			l4.6,0.5c1.4,0.2,2.6,1.2,2.9,2.6c0,0,0,0,0,0c0.3,1.3-0.3,2.7-1.4,3.5l-3.6,2.4c-1.5,1-1.9,3.1-0.9,4.6l3.2,4.9
			c1,1.5,3.1,1.9,4.6,0.9l3.6-2.4c1.1-0.8,2.6-0.7,3.7,0.1c0,0,0,0,0,0c1.2,0.8,1.7,2.3,1.3,3.7l-1.3,4.4c-0.5,1.8,0.5,3.6,2.2,4.1
			l5.6,1.7c1.8,0.5,3.6-0.5,4.1-2.2l1.6-5.2c0.4-1.3,1.5-2.2,2.8-2.3c0.3,0,0.6-0.1,0.9-0.1c1.3-0.2,2.5,0.4,3.2,1.5l2.8,4.2
			c1,1.5,3.1,1.9,4.6,0.9l4.9-3.2c1.5-1,1.9-3.1,0.9-4.6l-2.1-3.1c-0.8-1.2-0.7-2.8,0.2-4c0.7-0.8,1.3-1.7,1.9-2.7
			C249.8,97,251,96.4,252.3,96.5z M236.3,97.1c-5.6,3.7-15.8,1.1-19.5-4.6c-3.7-5.6-0.8-13.9,4.8-17.6c5.6-3.7,13.9-0.2,17.6,5.4
			C243,85.9,241.9,93.3,236.3,97.1z"/>
	</g>
	<g>
		<g>
			<path class="st3" d="M224.2,122.7c-0.3,0-0.7,0-1-0.1l-5.6-1.7c-0.9-0.3-1.6-0.9-2-1.7c-0.4-0.8-0.5-1.7-0.3-2.6l1.3-4.4
				c0.4-1.3-0.1-2.7-1.2-3.6l0,0c-0.5-0.4-1.2-0.6-1.9-0.6c-0.6,0-1.2,0.2-1.8,0.5l-3.6,2.4c-0.6,0.4-1.2,0.6-1.9,0.6
				c-1.2,0-2.2-0.6-2.8-1.5l-3.2-4.9c-0.5-0.8-0.7-1.7-0.5-2.6c0.2-0.9,0.7-1.7,1.5-2.2l3.6-2.4c1.1-0.7,1.7-2.1,1.4-3.4l0,0
				c-0.3-1.4-1.4-2.4-2.8-2.5l-4.6-0.5c-0.9-0.1-1.7-0.5-2.3-1.3c-0.6-0.7-0.8-1.6-0.7-2.5l0.6-5.8c0.2-1.7,1.6-3,3.4-3
				c0.1,0,0.3,0,0.4,0l5.4,0.6c0.1,0,0.2,0,0.4,0c1.2,0,2.2-0.6,2.8-1.6c0.2-0.3,0.3-0.5,0.5-0.8c0.6-1,0.6-2.4-0.1-3.5l-2.8-4.2
				c-1-1.6-0.6-3.7,1-4.7l4.9-3.2c0.6-0.4,1.2-0.6,1.9-0.6c1.2,0,2.2,0.6,2.9,1.5l2.1,3.1c0.6,0.9,1.6,1.4,2.7,1.4
				c0.3,0,0.6,0,0.9-0.1c1-0.3,2.1-0.5,3.2-0.7c1.2-0.2,2.3-1.1,2.6-2.2l1.4-4.6c0.4-1.4,1.8-2.4,3.3-2.4c0.3,0,0.7,0,1,0.1l5.6,1.7
				c0.9,0.3,1.6,0.9,2,1.7c0.4,0.8,0.5,1.7,0.3,2.6l-1,3.2c-0.4,1.4,0.1,2.8,1.3,3.6c0.2,0.2,0.5,0.3,0.7,0.5
				c0.5,0.4,1.2,0.6,1.8,0.6c0.6,0,1.2-0.2,1.8-0.5l2.6-1.7c0.6-0.4,1.2-0.6,1.9-0.6c1.2,0,2.2,0.6,2.8,1.5l3.2,4.9
				c0.5,0.8,0.7,1.7,0.5,2.6c-0.2,0.9-0.7,1.7-1.5,2.2l-2.6,1.7c-1.1,0.7-1.7,2.1-1.4,3.3c0.1,0.3,0.1,0.6,0.2,0.8
				c0.3,1.4,1.4,2.4,2.8,2.6l3.4,0.4c0.9,0.1,1.7,0.5,2.3,1.3c0.6,0.7,0.8,1.6,0.7,2.5l-0.6,5.8c-0.2,1.7-1.6,3-3.4,3
				c-0.1,0-0.2,0-0.4,0l-4.8-0.5c-0.1,0-0.2,0-0.3,0c-1.1,0-2.2,0.6-2.8,1.6c-0.6,0.9-1.2,1.8-1.9,2.7c-0.9,1.1-1,2.7-0.2,3.8
				l2.1,3.1c0.5,0.8,0.7,1.7,0.5,2.6c-0.2,0.9-0.7,1.7-1.5,2.2l-4.9,3.2c-0.6,0.4-1.2,0.6-1.9,0.6c-1.2,0-2.2-0.6-2.9-1.5l-2.8-4.2
				c-0.6-0.9-1.6-1.5-2.7-1.5c-0.2,0-0.3,0-0.5,0c-0.3,0-0.6,0.1-0.9,0.1c-1.3,0.1-2.3,1-2.7,2.3l-1.6,5.2
				C227.1,121.7,225.7,122.7,224.2,122.7z M213.6,107.8c0.7,0,1.4,0.2,2,0.6l0,0c1.2,0.9,1.7,2.4,1.3,3.8l-1.3,4.4
				c-0.2,0.8-0.2,1.7,0.2,2.4c0.4,0.8,1.1,1.3,1.9,1.6l5.6,1.7c0.3,0.1,0.6,0.1,0.9,0.1c1.4,0,2.7-0.9,3.1-2.3l1.6-5.2
				c0.4-1.3,1.5-2.3,2.9-2.4c0.3,0,0.6-0.1,0.9-0.1c0.2,0,0.3,0,0.5,0c1.1,0,2.2,0.6,2.8,1.5l2.8,4.2c0.6,0.9,1.6,1.4,2.7,1.4
				c0.6,0,1.2-0.2,1.8-0.5l4.9-3.2c0.7-0.5,1.2-1.2,1.4-2c0.2-0.8,0-1.7-0.5-2.4l-2.1-3.1c-0.8-1.3-0.7-2.9,0.2-4.1
				c0.7-0.8,1.3-1.7,1.9-2.7c0.6-1,1.7-1.7,2.9-1.7c0.1,0,0.2,0,0.4,0l4.8,0.5c0.1,0,0.2,0,0.4,0c1.6,0,3-1.2,3.2-2.9l0.6-5.8
				c0.1-0.9-0.2-1.7-0.7-2.4c-0.5-0.7-1.3-1.1-2.2-1.2l-3.4-0.4c-1.5-0.2-2.7-1.3-3-2.8c-0.1-0.3-0.1-0.5-0.2-0.8
				c-0.3-1.4,0.3-2.8,1.5-3.6l2.6-1.7c0.7-0.5,1.2-1.2,1.4-2c0.2-0.8,0-1.7-0.5-2.4l-3.2-4.9c-0.6-0.9-1.6-1.4-2.7-1.4
				c-0.6,0-1.2,0.2-1.8,0.5l-2.6,1.7c-0.6,0.4-1.2,0.6-1.9,0.6c-0.7,0-1.4-0.2-1.9-0.6c-0.2-0.2-0.4-0.3-0.7-0.5
				c-1.3-0.8-1.8-2.4-1.4-3.8l1-3.2c0.2-0.8,0.2-1.7-0.2-2.4c-0.4-0.8-1.1-1.3-1.9-1.6l-5.6-1.7c-0.3-0.1-0.6-0.1-0.9-0.1
				c-1.4,0-2.7,0.9-3.1,2.3l-1.4,4.6c-0.4,1.3-1.5,2.2-2.8,2.4c-1.1,0.2-2.1,0.4-3.2,0.7c-0.3,0.1-0.7,0.1-1,0.1
				c-1.2,0-2.2-0.6-2.9-1.5l-2.1-3.1c-0.6-0.9-1.6-1.4-2.7-1.4c-0.6,0-1.2,0.2-1.8,0.5l-4.9,3.2c-1.5,1-1.9,3-0.9,4.5l2.8,4.2
				c0.7,1.1,0.8,2.6,0.1,3.7c-0.2,0.3-0.3,0.5-0.5,0.8c-0.6,1.1-1.7,1.7-3,1.7c-0.1,0-0.2,0-0.4,0l-5.4-0.6c-0.1,0-0.2,0-0.4,0
				c-1.6,0-3,1.2-3.2,2.9l-0.6,5.8c-0.1,0.9,0.2,1.7,0.7,2.4c0.5,0.7,1.3,1.1,2.2,1.2l4.6,0.5c1.5,0.2,2.6,1.2,3,2.7l0,0
				c0.3,1.4-0.3,2.8-1.5,3.6l-3.6,2.4c-0.7,0.5-1.2,1.2-1.4,2c-0.2,0.8,0,1.7,0.5,2.4l3.2,4.9c0.6,0.9,1.6,1.4,2.7,1.4
				c0.6,0,1.2-0.2,1.8-0.5l3.6-2.4C212.3,108,213,107.8,213.6,107.8z"/>
		</g>
	</g>
</g>
<g>
	<path class="st16" d="M168.1,123.1l0,2.8c0,1.1,0.9,2,2,2l3.4,0c1.1,0,2-0.9,2-2l0-2c0-0.9,0.6-1.6,1.4-1.9c0.2,0,0.3-0.1,0.5-0.2
		c0.8-0.3,1.6,0,2.1,0.6l1.2,1.4c0.7,0.8,1.9,1,2.8,0.3l2.7-2.2c0.8-0.7,1-1.9,0.3-2.8l-1.2-1.4c-0.5-0.6-0.6-1.5-0.2-2.2
		c0.1-0.1,0.2-0.3,0.2-0.4c0.4-0.8,1.3-1.2,2.1-1l2,0.4c1.1,0.2,2.1-0.5,2.3-1.6l0.6-3.4c0.2-1.1-0.5-2.1-1.6-2.3l-2.8-0.5
		c-0.8-0.1-1.3-0.7-1.5-1.5c-0.2-0.6-0.4-1.2-0.6-1.8c-0.3-0.8-0.1-1.7,0.6-2.3l1.7-1.4c0.8-0.7,1-1.9,0.3-2.8l-2.2-2.7
		c-0.7-0.8-1.9-1-2.8-0.3l-2.3,1.9c-0.6,0.5-1.4,0.6-2.1,0.3c-0.2-0.1-0.3-0.2-0.5-0.2c-0.7-0.3-1.2-1-1.2-1.8l0-3.2
		c0-1.1-0.9-2-2-2l-3.4,0c-1.1,0-2,0.9-2,2l0,2.7c0,0.8-0.5,1.6-1.3,1.9c0,0,0,0,0,0c-0.8,0.3-1.6,0-2.1-0.6l-1.6-2
		c-0.7-0.8-1.9-1-2.8-0.3l-2.7,2.2c-0.8,0.7-1,1.9-0.3,2.8l1.6,2c0.5,0.6,0.6,1.5,0.2,2.2c0,0,0,0,0,0c-0.4,0.7-1.2,1.1-2.1,1
		l-2.7-0.5c-1.1-0.2-2.1,0.5-2.3,1.6l-0.6,3.4c-0.2,1.1,0.5,2.1,1.6,2.3l3.1,0.6c0.8,0.1,1.4,0.7,1.5,1.5c0,0.2,0.1,0.4,0.1,0.5
		c0.2,0.7-0.1,1.5-0.7,2l-2.3,1.9c-0.8,0.7-1,1.9-0.3,2.8l2.2,2.7c0.7,0.8,1.9,1,2.8,0.3l1.7-1.4c0.7-0.6,1.6-0.6,2.3-0.1
		c0.5,0.4,1.1,0.7,1.7,0.9C167.7,121.7,168.1,122.4,168.1,123.1z M166.8,113.7c-2.5-3.1-1.6-9.2,1.5-11.8c3.1-2.5,8.1-1.3,10.7,1.7
		c2.5,3.1,1,8.2-2.1,10.7C173.7,117,169.3,116.8,166.8,113.7z"/>
</g>
<g>
	<path class="st2" d="M202.2,141.6l0,1.9c0,0.7,0.6,1.3,1.3,1.3l2.3,0c0.7,0,1.3-0.6,1.3-1.3l0-1.3c0-0.6,0.4-1.1,0.9-1.2
		c0.1,0,0.2-0.1,0.3-0.1c0.5-0.2,1.1,0,1.4,0.4l0.8,0.9c0.5,0.6,1.3,0.6,1.8,0.2l1.8-1.4c0.6-0.5,0.6-1.3,0.2-1.8l-0.8-0.9
		c-0.3-0.4-0.4-1-0.1-1.4c0.1-0.1,0.1-0.2,0.2-0.3c0.3-0.5,0.8-0.8,1.4-0.7l1.3,0.2c0.7,0.1,1.4-0.3,1.5-1l0.4-2.2
		c0.1-0.7-0.3-1.4-1-1.5l-1.8-0.4c-0.5-0.1-0.9-0.5-1-1c-0.1-0.4-0.2-0.8-0.4-1.2c-0.2-0.5-0.1-1.1,0.4-1.5l1.1-0.9
		c0.6-0.5,0.6-1.3,0.2-1.8l-1.4-1.8c-0.5-0.6-1.3-0.6-1.8-0.2l-1.5,1.3c-0.4,0.3-0.9,0.4-1.4,0.2c-0.1-0.1-0.2-0.1-0.3-0.2
		c-0.5-0.2-0.8-0.7-0.8-1.2l0-2.1c0-0.7-0.6-1.3-1.3-1.3l-2.3,0c-0.7,0-1.3,0.6-1.3,1.3l0,1.8c0,0.6-0.4,1-0.9,1.2c0,0,0,0,0,0
		c-0.5,0.2-1.1,0-1.4-0.4l-1.1-1.3c-0.5-0.6-1.3-0.6-1.8-0.2l-1.8,1.4c-0.6,0.5-0.6,1.3-0.2,1.8l1.1,1.3c0.3,0.4,0.4,1,0.1,1.5
		c0,0,0,0,0,0c-0.3,0.5-0.8,0.7-1.4,0.6l-1.8-0.3c-0.7-0.1-1.4,0.3-1.5,1l-0.4,2.2c-0.1,0.7,0.3,1.4,1,1.5l2.1,0.4
		c0.5,0.1,0.9,0.5,1,1c0,0.1,0.1,0.2,0.1,0.4c0.1,0.5,0,1-0.4,1.3l-1.5,1.3c-0.6,0.5-0.6,1.3-0.2,1.8l1.4,1.8
		c0.5,0.6,1.3,0.6,1.8,0.2l1.1-0.9c0.4-0.4,1.1-0.4,1.5-0.1c0.4,0.2,0.7,0.4,1.1,0.6C201.9,140.6,202.2,141.1,202.2,141.6z
		 M201.3,135.4c-1.7-2-1.1-6.1,1-7.8c2-1.7,5.4-0.9,7,1.1c1.7,2,0.7,5.4-1.4,7.1C205.9,137.5,203,137.4,201.3,135.4z"/>
</g>
<g>
	<g>
		<g>
			<polygon class="st9" points="43.2,229.5 41.4,229.8 41.5,206.7 42.9,207.3 			"/>
		</g>
		<g>
			<path class="st9" d="M48.6,230.7c0,0-9.6,0.2-12.9,0.2c-0.4,0-0.6-0.5-0.6-0.8l0,0c0-0.4,0.5-0.8,0.9-0.8
				c3.2,0,12.6,0.1,12.6,0.1c0.4,0,0.6,0.3,0.6,0.6l0,0C49.2,230.5,48.9,230.7,48.6,230.7z"/>
		</g>
		<g>
			<path class="st9" d="M35.6,231.9c0.1-0.7,0.7-1.2,1.5-1.2c0.7,0,1.5,0.5,1.5,1.2c0,0.9-0.9,1.5-1.6,1.5
				C36.1,233.4,35.4,232.8,35.6,231.9z"/>
		</g>
		<g>
			<path class="st9" d="M45.9,231.9c0.1-0.7,0.7-1.2,1.5-1.2c0.7,0,1.5,0.5,1.5,1.2c0,0.9-0.9,1.5-1.6,1.5
				C46.4,233.4,45.7,232.8,45.9,231.9z"/>
		</g>
		<g>
			<path class="st9" d="M37.8,207.4c0,0-0.3,1.5,3.2,2c3.6,0.5,5.1-2,5.1-2H37.8z"/>
		</g>
	</g>
	<g>
		<path class="st16" d="M49.2,205.1c0-4.3-0.2-22.8-6.2-24.4c-6.8-1.8-15.6-5.1-18.1,0.9c-2.6,6,6,24.5,6,24.5s0.5,1.6,2.2,1.8
			c1.7,0.2,23.2,0.8,23.3,0C56.4,207.3,52.3,206,49.2,205.1z"/>
	</g>
	<g>
		<g>
			<path class="st8" d="M60.4,167.4l10.3,12.2c0,0-11.7,3.1-11.6,2.9c0.1-0.2-2.1-13.3-2.1-13.3L60.4,167.4z"/>
		</g>
		<g>
			<path class="st9" d="M70.3,233.1c0,0-0.1,2.2,1.4,2.8c1.4,0.7,5.6,1.5,4,2.8c-1,0.7-5.2,0-6.4-0.1c-1.2-0.1-2.4,0.4-3.2-0.5
				c-0.9-0.9,0.3-5.3,0.3-5.3s1,0.6,1.9,0.6C69.6,233.6,70.3,233.1,70.3,233.1z"/>
		</g>
		<g>
			<path class="st9" d="M82.3,232.1c0,0-0.1,2.2,1.4,2.8c1.4,0.7,5.6,1.5,4,2.8c-1,0.7-5.2,0-6.4-0.1c-1.2-0.1-2.4,0.4-3.2-0.5
				c-0.9-0.9,0.3-5.3,0.3-5.3s1,0.6,1.9,0.6C81.6,232.5,82.3,232.1,82.3,232.1z"/>
		</g>
		<g>
			<g>
				<path class="st3" d="M85,229.6c-1.1-14.2-1.3-23.7-5.8-29.8c-4.9-6.7-18-11.5-23.1-11.8c-8.3-0.5-12.2,0.7-12.2,0.7
					c-6.2,12.9,3.5,14.6,10.7,15c0.2,0,0.5,0,0.7,0c4.4,0.3,12.1,1.4,15,5.7c2.3,3.4,3.9,8.2,4.6,20.6c0.1,2.4,2.1,4.2,4.5,4.2
					C79.5,234.2,85.4,234.7,85,229.6z"/>
			</g>
		</g>
		<g>
			<g>
				<path class="st3" d="M73.3,230.3c0.1-14.2,0.6-21.4-3.7-27.7c-2.7-4-6.9-7.1-12.2-9.1c-3.8-1.4-8.4-2.3-13.4-2.6
					c-8.3-0.5-12-1.5-12-1.5c-6.7,16.5,17.8,13,24.1,20c2.8,3.1,6.2,8.9,6.9,21.3c0.1,2.4,2.1,4.2,4.5,4.2
					C67.6,234.9,73.3,235.5,73.3,230.3z"/>
			</g>
		</g>
		<g>
			<path class="st17" d="M73.3,216.4c0-0.1-0.4-8.5-1.8-11.4c-1.8-3.7-7-7.6-12.3-9.2l0-0.1c5.4,1.6,10.6,5.5,12.4,9.3
				C72.9,207.8,73.4,216.3,73.3,216.4L73.3,216.4z"/>
		</g>
		<g>
			<path class="st18" d="M37.9,163.2c0,0,3.5-6,11.6-4.2c8.1,1.8,11.4,10.1,12,30c0,0-7.5-0.3-27.2,6.3c-2.3,0.8-5.8,0.2-4.6-3.8
				C31.9,184.1,34.1,169.4,37.9,163.2z"/>
		</g>
		<g>
			<path class="st18" d="M29,165l8.3,1.6c0,0,14.6,4.3,18.7,4.3c4.1,0,5.8-3,5.8-3s-3.3-5.6-10.2-8.2c-0.6-0.2-1.3-0.5-2-0.7
				c-1.2-0.3-2.4-0.6-3.6-0.6C32.1,158.3,29,165,29,165z"/>
		</g>
		<g>
			<path class="st9" d="M29,165c-0.2,0.7,1.6,1.8,3.9,2.4c2.3,0.7,4.4,0.7,4.6,0.1c0.2-0.7-1.6-1.8-3.9-2.4
				C31.2,164.4,29.1,164.3,29,165z"/>
		</g>
		<g>
			<g>
				<path class="st8" d="M49.7,191.6c0,0,4.7-0.3,5.9,0.7c1.2,1,2,3.2,1.1,2.7c-0.9-0.5-1.8-1.4-1.8-1.4s2,2,1.3,2.3
					s-2.4-1.5-2.4-1.5s2.1,2.6,1.4,2.6c-0.7,0-2.3-2-2.3-2s1.9,2.5,1.1,2.5c-0.8,0-1.6-2.1-2.2-1.8c-0.7,0.3-2.6,1.7-3.5-0.1
					L49.7,191.6z"/>
			</g>
		</g>
		<g>
			<g>
				<path class="st8" d="M32.4,186.5c3.4,5.6,7.9,7.9,15.8,9.4l1.5-4.2c-5.7-1-8.7-5.2-11-9c-3.3-5.4-2.7-11.9-2.2-14.9
					c0-0.3-0.1-0.6-0.3-0.7c-0.7-0.6-2.6-1.7-6-1.8c-0.3,0-0.6,0.2-0.6,0.5C28.1,171.1,28.1,179.4,32.4,186.5z"/>
			</g>
		</g>
		<g class="st19">
			<path class="st13" d="M34.1,185.3c-0.1,0-0.3,0-0.4-0.1c-0.4-0.2-0.8-0.5-1-1l0,0c-0.4-0.8-0.1-1.7,0.5-2c0.2-0.1,0.5-0.1,0.8,0
				c0.4,0.2,0.8,0.5,1,1c0.4,0.8,0.1,1.7-0.5,2C34.4,185.3,34.3,185.3,34.1,185.3z M33.6,182.4c-0.1,0-0.2,0-0.3,0.1
				c-0.5,0.2-0.6,0.9-0.3,1.6l0,0c0.2,0.4,0.5,0.7,0.8,0.9c0.2,0.1,0.4,0.1,0.6,0c0.5-0.2,0.6-0.9,0.3-1.6c-0.2-0.4-0.5-0.7-0.8-0.9
				C33.8,182.4,33.7,182.4,33.6,182.4z"/>
		</g>
		<g>
			<g>
				<path class="st16" d="M50,156.2L50,156.2c0-0.1,0.9-0.4,1.1-1.1c0.1-0.4,0-0.8-0.4-1.2c-0.2-0.2-0.3-0.4-0.4-0.5
					c-0.9-1.1-1.2-1.5-1.2-2.5l0.1,0c-0.1,1,0.2,1.3,1.1,2.5c0.1,0.2,0.3,0.3,0.4,0.5c0.4,0.4,0.5,0.9,0.4,1.2
					C51,155.9,50.1,156.2,50,156.2z"/>
			</g>
			<g>
				<path class="st16" d="M49.2,150.9c0,0-0.1,1.6,1.1,3c1.2,1.5,0.3,2.8-1.2,2.3c-1.4-0.4-1.7,1.4-3.6,0.6
					C43.6,156.1,49.2,150.9,49.2,150.9z"/>
			</g>
			<g>
				<path class="st8" d="M42,158.6c0.7-0.2,1.3-0.7,1.6-1.4l0.7-2.3l0.2-0.7l1.1-3.9l0.2,3.9l0.1,2.3l0,0.7c0,0.5,0.5,1.3,1.1,1.4
					c0,0,0.8,1-0.3,1.5C45.3,160.6,42.9,159.8,42,158.6L42,158.6z"/>
			</g>
			<g>
				<path class="st9" d="M44.2,154.8C44.2,154.8,44.2,154.9,44.2,154.8c0.3,1.3,1.7,1.7,1.7,1.7l0,0l-0.1-2.3c-0.4-0.1-1-0.2-1.3,0
					C44.2,154.3,44.2,154.5,44.2,154.8z"/>
			</g>
			<g>
				<path class="st8" d="M49.4,150.4c-0.3-2.5-2.2-4.3-4.2-4c-2,0.3-3.4,2.5-3.1,4.9c0.3,2.5,2.2,4.3,4.2,4
					C48.4,155.1,49.7,152.9,49.4,150.4z"/>
			</g>
			<g>
				<path class="st8" d="M42.7,151.9c0.5,0.3,1,0.3,1.3-0.1c0.3-0.4,0.1-1-0.4-1.3c-0.5-0.3-1-0.3-1.3,0.1
					C42.1,151,42.3,151.6,42.7,151.9z"/>
			</g>
			<g>
				<g>
					<path class="st15" d="M46.2,150.9C46.2,150.9,46.2,150.8,46.2,150.9c0.1-0.1,0-0.1,0-0.2c0,0-0.6-0.2-1,0.4c0,0,0,0.1,0,0.1
						c0,0,0.1,0,0.1,0C45.6,150.9,46.1,150.9,46.2,150.9C46.1,150.9,46.1,150.9,46.2,150.9z"/>
				</g>
			</g>
			<g>
				<path class="st15" d="M45.6,151.9c0,0.2,0.2,0.3,0.3,0.3c0.1,0,0.2-0.2,0.2-0.4c0-0.2-0.2-0.3-0.3-0.3
					C45.7,151.5,45.6,151.7,45.6,151.9z"/>
			</g>
			<g>
				<g>
					<path class="st15" d="M49.2,150.9C49.2,150.9,49.2,150.9,49.2,150.9c0.1-0.1,0.1-0.1,0.1-0.1c0,0-0.5-0.4-1.1,0
						c0,0-0.1,0.1,0,0.1c0,0,0.1,0,0.1,0C48.6,150.7,49.1,150.9,49.2,150.9C49.1,150.9,49.1,150.9,49.2,150.9z"/>
				</g>
			</g>
			<g>
				<path class="st15" d="M48.3,151.6c-0.1,0.2,0,0.4,0.1,0.4c0.1,0,0.3-0.1,0.4-0.3c0.1-0.2,0-0.4-0.1-0.4
					C48.5,151.3,48.3,151.4,48.3,151.6z"/>
			</g>
			<g>
				<path class="st16" d="M46.9,147c0,0,0.1,1.6-1.8,2.1c-1.9,0.5-3.1,1.5-2.7,2.9c0.4,1.4,3.9,3.9,1.8,5.3
					c-2.2,1.4-1.9-0.7-4.4,0.1c-2.4,0.8-3.3-2.5-1.8-4.6c1.5-2.1,0.1-7.2,6.6-7.8c6.5-0.6,4.8,4.8,4.8,4.8S47.1,148.7,46.9,147z"/>
			</g>
			<g>
				<path class="st0" d="M43.5,157.6L43.5,157.6c0.4-0.3,0.7-0.6,0.7-1c0.1-1.1-1.3-2.5-2.5-3.7c-0.3-0.3-0.6-0.6-0.9-0.9
					c-0.8-0.8-1-1.9-0.5-2.8c0.5-1,1.6-1.6,3-1.4c1.3,0.1,2.1-0.2,2.6-0.6c0.5-0.4,0.7-0.8,0.7-0.8l0,0c0,0-0.8,1.6-3.3,1.4
					c-1.3-0.1-2.4,0.4-2.9,1.4c-0.5,0.9-0.3,1.9,0.5,2.8c0.3,0.3,0.6,0.6,0.9,0.9c1.2,1.3,2.7,2.7,2.5,3.7
					C44.3,157,44,157.3,43.5,157.6z"/>
			</g>
			<g>
				<g>
					<path class="st7" d="M47.8,152.3C47.8,152.3,47.8,152.3,47.8,152.3c0-0.4-0.1-0.8-0.1-1.2c0,0-0.1,0-0.1-0.1
						C47.6,151.5,47.7,152,47.8,152.3z M47.6,152c0,0.1,0.1,0.3,0.1,0.4c0.2,0.6,0.5,1.2,1,1.4c0,0,0,0,0,0c0.2,0.1,0.4,0.1,0.6,0.1
						c0.1,0,0.3-0.1,0.4-0.1c0.1-0.1,0.2-0.1,0.3-0.2c0.1-0.1,0.2-0.2,0.2-0.3c0.2-0.3,0.4-0.7,0.5-1.2c0.3-1.4-0.2-2.8-1.1-3.2
						c-0.1,0-0.1,0-0.2-0.1c-0.2-0.1-0.4-0.1-0.6,0c-0.1,0-0.2,0.1-0.2,0.1c-0.1,0-0.2,0.1-0.3,0.2c0,0-0.1,0.1-0.1,0.1
						c-0.3,0.3-0.6,0.9-0.7,1.5c0,0,0,0.1,0,0.1c0,0,0,0,0,0c0,0,0,0,0,0c0,0.1,0,0.2,0,0.3C47.5,151.4,47.6,151.7,47.6,152z
						 M50.6,151.6c0,0.1,0,0.2,0,0.3c-0.1,0.4-0.2,0.8-0.4,1.1c-0.1,0.1-0.1,0.2-0.2,0.3c-0.1,0.1-0.2,0.2-0.3,0.2
						c-0.3,0.1-0.5,0.1-0.8,0c0,0,0,0,0,0c-0.4-0.2-0.8-0.7-0.9-1.4c-0.1-0.3-0.1-0.7-0.1-1.1c0-0.1,0-0.2,0-0.3c0-0.1,0-0.1,0-0.2
						c0.1-0.6,0.3-1.1,0.7-1.4c0.1-0.1,0.2-0.2,0.3-0.2c0.1,0,0.2-0.1,0.2-0.1c0,0,0.1,0,0.1,0c0,0,0,0,0,0c0.1,0,0.2,0,0.3,0
						c0,0,0.1,0,0.1,0C50.3,149.3,50.7,150.4,50.6,151.6C50.6,151.6,50.6,151.6,50.6,151.6z"/>
				</g>
			</g>
			<g class="st19">
				<path class="st0" d="M43.3,150.3c-0.1,1.3,0.5,2.6,1.4,2.9c0.9,0.3,1.8-0.5,1.9-1.8c0.1-1.3-0.5-2.6-1.4-2.9
					C44.3,148.2,43.4,149,43.3,150.3z"/>
			</g>
			<g class="st19">
				<path class="st0" d="M47.6,150.7c-0.1,1.3,0.4,2.7,1.3,3c0.8,0.3,1.6-0.5,1.7-1.8c0.1-1.3-0.4-2.7-1.3-3
					C48.5,148.6,47.7,149.4,47.6,150.7z"/>
			</g>
			<g>
				<g>
					<path class="st7" d="M43.2,151.1c0.1,0.4,0.2,0.8,0.4,1.1c0.3,0.5,0.6,0.9,1.1,1.1c0,0,0.1,0,0.1,0c0.2,0.1,0.4,0.1,0.6,0.1
						c0.1,0,0.2,0,0.3-0.1c0.1,0,0.2-0.1,0.3-0.1c0.5-0.3,0.9-1,1-1.8c0-0.1,0-0.2,0-0.2c0-0.1,0-0.2,0-0.3c0-0.8-0.4-1.6-0.8-2.1
						c-0.2-0.2-0.5-0.4-0.7-0.5c-0.4-0.1-0.8-0.1-1.2,0.2c-0.5,0.3-0.8,0.9-0.9,1.6c0,0.1,0,0.2,0,0.2c0,0.1,0,0.2,0,0.2
						C43.2,150.6,43.2,150.8,43.2,151.1z M46.3,152.6c-0.1,0.2-0.3,0.3-0.4,0.4c-0.1,0-0.1,0.1-0.2,0.1c-0.3,0.1-0.6,0.1-0.9,0
						c0,0-0.1,0-0.1,0c-0.4-0.2-0.7-0.5-1-1c-0.3-0.5-0.4-1.1-0.4-1.7c0-0.1,0-0.2,0-0.3c0-0.1,0-0.3,0.1-0.4c0-0.1,0-0.2,0.1-0.2
						c0,0,0,0,0,0c0-0.1,0.1-0.3,0.2-0.4c0.2-0.3,0.4-0.5,0.6-0.7c0.2-0.1,0.3-0.2,0.5-0.2c0.2,0,0.3,0,0.5,0.1
						c0.2,0.1,0.5,0.2,0.7,0.4c0.5,0.5,0.8,1.2,0.8,2.1c0,0.1,0,0.2,0,0.3c0,0.1,0,0.1,0,0.2C46.7,151.8,46.5,152.2,46.3,152.6
						C46.3,152.6,46.3,152.6,46.3,152.6z"/>
				</g>
			</g>
			<g>
				<g>
					<path class="st7" d="M47.8,151.2c0,0-0.1,0-0.1,0l0,0c0,0-0.4-0.3-1.1-0.1c-0.1,0-0.2,0-0.2-0.1c0-0.1,0-0.2,0.1-0.2
						c0.8-0.3,1.3,0.1,1.4,0.1c0.1,0,0.1,0.1,0,0.2C47.9,151.2,47.9,151.2,47.8,151.2z"/>
				</g>
			</g>
			<g>
				<path class="st9" d="M46.8,154.1c-0.5,0-0.9-0.2-0.9-0.2c-0.1,0-0.1-0.1,0-0.2c0-0.1,0.1-0.1,0.2-0.1c0,0,0.8,0.4,1.4,0
					c0.1,0,0.1,0,0.2,0c0,0.1,0,0.1,0,0.2C47.3,154.1,47,154.1,46.8,154.1z"/>
			</g>
		</g>
	</g>
	<g>
		<g>
			<g>
				<path class="st9" d="M55.7,240.3l-0.3,0c-0.2,0-0.3-0.3-0.3-0.7l2-48.2l3.7-1.8l-4.5,49.8C56.2,239.9,56,240.3,55.7,240.3z"/>
			</g>
		</g>
		<g>
			<path class="st20" d="M169.5,191.9c0,3.4-27.5,6.1-61.4,6.1s-61.4-2.7-61.4-6.1c0-3.4,27.5-6.1,61.4-6.1S169.5,188.5,169.5,191.9
				z"/>
		</g>
		<g>
			<rect x="46.6" y="189" class="st20" width="122.9" height="2.8"/>
		</g>
		<g>
			<ellipse class="st2" cx="108" cy="189" rx="61.4" ry="6.1"/>
		</g>
		<g>
			<path class="st21" d="M64.1,193.5C64,193.5,64,193.5,64.1,193.5c-5.2-0.5-9.3-1.1-12.3-1.8c-0.1,0-0.2-0.1-0.1-0.2
				c0-0.1,0.1-0.2,0.2-0.1c3,0.7,7.1,1.3,12.2,1.8c0.1,0,0.2,0.1,0.2,0.2C64.2,193.5,64.2,193.5,64.1,193.5z"/>
		</g>
		<g>
			<path class="st21" d="M159.1,192.7c-0.1,0-0.2-0.1-0.2-0.2c0-0.1,0.1-0.2,0.2-0.2c0.1,0,6-0.9,8.3-1.8c0.1,0,0.2,0,0.2,0.1
				c0,0.1,0,0.2-0.1,0.2C165.1,191.7,159.3,192.6,159.1,192.7C159.1,192.7,159.1,192.7,159.1,192.7z"/>
		</g>
	</g>
	<g>
		<g>
			<path class="st9" d="M59.8,188.3h14.9c0.3,0,0.6-0.2,0.7-0.5l3.1-9.3c0.2-0.5-0.2-0.9-0.7-0.9H63.4c-0.7,0-1.2,0.4-1.4,1
				l-2.9,8.7C58.9,187.8,59.3,188.3,59.8,188.3z"/>
		</g>
		<g>
			<path class="st9" d="M60.7,188.3h14.9c0.3,0,0.6-0.2,0.7-0.5l3.1-9.3c0.2-0.5-0.2-0.9-0.7-0.9H64.4c-0.7,0-1.2,0.4-1.4,1
				l-2.9,8.7C59.9,187.8,60.2,188.3,60.7,188.3z"/>
		</g>
		<g>
			<path class="st1" d="M71.2,182.6c0-0.4-0.4-0.5-0.8-0.5c-0.4,0-0.9,0.4-0.9,0.9c0,0.5,0.4,0.6,0.8,0.6
				C70.6,183.6,71.2,183,71.2,182.6z"/>
		</g>
		<g>
			<path class="st9" d="M54.8,186.9h20.8v1.3h-21c-0.1,0-0.2-0.1-0.2-0.2v-0.6C54.4,187.2,54.6,186.9,54.8,186.9z"/>
		</g>
		<g>
			<path class="st3" d="M61.8,182.2L61.8,182.2c-0.1-0.1,0.6-2.8,1.1-3.7c0.5-0.9,1.1-1,1.1-1.1l0,0.1c0,0-0.6,0.2-1,1
				C62.5,179.5,61.8,182.2,61.8,182.2z"/>
		</g>
		<g>
			<path class="st3" d="M59.6,187L59.6,187c0.5-0.1,0.6-0.3,0.6-0.3l1.2-3.5l0.1,0l-1.2,3.5C60.3,186.7,60.1,187,59.6,187z"/>
		</g>
	</g>
</g>
<g>
	<g>
		<path class="st9" d="M134.1,237.9c0,0-0.1,2.1-1.5,2.6c-1.4,0.6-5.5,1-4,2.4c0.9,0.8,5,0.4,6.1,0.4c1.2,0,2.2,0.5,3.1-0.2
			c1-0.8,0.1-5.1,0.1-5.1s-1,0.5-1.9,0.5C134.7,238.4,134.1,237.9,134.1,237.9z"/>
	</g>
	<g>
		<path class="st9" d="M121.8,240.1c0,0-0.1,2.1-1.5,2.6c-1.4,0.5-5.5,0.9-4,2.3c0.8,0.8,4.9,0.4,6.1,0.5c1.2,0,2.2,0.6,3.1-0.2
			c1-0.8,0.2-5.1,0.2-5.1s-1,0.5-1.9,0.4C122.4,240.5,121.8,240.1,121.8,240.1z"/>
	</g>
	<g>
		<g>
			<path class="st7" d="M122.7,241.8c-2.4-0.3-4.1-2.4-4-4.8c0.9-13.5,2.2-20.4,6.8-26c2.9-3.6,7.2-7.1,12.4-8.9
				c4.4-1.6,8.2-2.3,13-2.2c7.9,0.2,11.5,1.7,11.5,1.7c4.8,12.8-4.5,13.6-11.4,13.4c-0.2,0-0.5,0-0.7,0c-4.2-0.1-11.6,0.3-14.8,4.2
				c-2.5,3.1-4.4,7.5-6.1,19.3c-0.3,2.3-2.4,3.8-4.6,3.6L122.7,241.8z"/>
		</g>
	</g>
	<g>
		<g>
			<path class="st7" d="M134.7,239.4c-2.4-0.3-4.2-2.2-4-4.4c0.8-12.3,1.9-18.5,6.4-23.6c2.9-3.3,7-5.6,12.3-6.8
				c3.8-0.9,8.1-1.2,13-1.1c7.9,0.3,11.5-0.2,11.5-0.2c5.3,20.8-17.8,9.7-24.4,15.3c-2.9,2.4-6.5,7.2-8,17.9
				c-0.3,2.1-2.3,3.5-4.6,3.2L134.7,239.4z"/>
		</g>
	</g>
	<g>
		<path class="st17" d="M130.9,230.9L130.9,230.9c-0.1,0,0.5-3.1,3.1-6.3c1.5-1.9,3.4-3.4,5.6-4.6c2.7-1.5,6-2.4,9.6-2.8l0,0.1
			c-8.2,0.8-12.8,4.4-15.1,7.4C131.5,227.8,130.9,230.9,130.9,230.9z"/>
	</g>
	<g>
		<path class="st8" d="M158.6,165.5l-0.8-3.3l-0.2-1l-1.3-5.6l-0.6,5.5l-0.4,3.3l-0.1,1c-0.1,0.7-0.5,0.8-1.1,1.4
			c-0.2,0.2-1.7,1.6-0.2,2.4c1.9,1,5.5,0,7-1.6C160.9,167.6,158.9,166.5,158.6,165.5z"/>
	</g>
	<g>
		<path class="st8" d="M151.6,156.7c0.7-3.2,3.4-5.4,6-4.8c2.7,0.5,4.3,3.6,3.6,6.8c-0.7,3.2-3.4,5.4-6,4.8
			C152.6,162.9,151,159.9,151.6,156.7z"/>
	</g>
	<g>
		<path class="st9" d="M153.8,155.4c-2.8-0.1-4-1.8-4-3.3c0.1-1.9,1.4-3.5,2.8-2.7c1.4,0.8,0.9-1,2.2-1.1c2.6-0.2,2.9,1.7,5,1.9
			c2.7,0.3,5.5,5.1,3,8.2C162.8,158.5,156,155.5,153.8,155.4z"/>
	</g>
	<g>
		<path class="st9" d="M151.5,153.3c0,0,2.8,3.1,2.3,4.7c-0.5,1.6-0.5,2.2,1.2,3.2c1.7,1,0,2.3,2.4,2.6c2.3,0.3,5.4-2.3,5.7-6.8
			c0.2-2.5-1.1-4.3-1.1-4.3L151.5,153.3z"/>
	</g>
	<g>
		<path class="st8" d="M152.2,157.8c0.4-0.5,1-0.6,1.4-0.2s0.4,1,0.1,1.4c-0.4,0.5-1,0.6-1.4,0.2
			C151.9,158.9,151.9,158.3,152.2,157.8z"/>
	</g>
	<g>
		<path class="st9" d="M162.2,157.8C162.2,157.8,162.2,157.8,162.2,157.8c-0.3-0.6-0.9-0.9-0.9-0.9c0,0-0.1-0.1,0-0.1
			c0,0,0.1-0.1,0.1,0C161.4,156.8,162,157.1,162.2,157.8C162.3,157.8,162.3,157.8,162.2,157.8C162.2,157.8,162.2,157.8,162.2,157.8z
			"/>
	</g>
	<g>
		<path class="st9" d="M161.3,156.6C161.2,156.6,161.2,156.6,161.3,156.6c-0.1-0.1-0.1-0.1,0-0.1c0,0,0.7-0.2,0.8-0.8
			c0,0,0-0.1,0.1-0.1c0,0,0.1,0,0.1,0.1C162.2,156.4,161.3,156.6,161.3,156.6C161.3,156.6,161.3,156.6,161.3,156.6z"/>
	</g>
	<g>
		<path class="st9" d="M152.9,149c-0.1,0-0.1,0-0.2,0c-0.2-0.1-0.4-0.2-0.6-0.4c-0.3-0.2-0.6-0.5-1.2-0.3c0,0-0.1,0-0.1-0.1
			c0,0,0-0.1,0.1-0.1c0.7-0.2,1,0.1,1.3,0.3c0.2,0.1,0.3,0.3,0.5,0.3c0.1,0,0.2,0,0.3,0c0.3-0.2,0.5-1,0.5-1c0,0,0-0.1,0.1-0.1
			c0,0,0.1,0,0.1,0.1c0,0-0.1,0.8-0.6,1.1C153,149,152.9,149,152.9,149z"/>
	</g>
	<g>
		<path class="st9" d="M159.9,149.4c-1.1,0-1.9-0.9-2-0.9c0,0,0-0.1,0-0.1c0,0,0.1,0,0.1,0c0,0,0.9,1,2,0.9c0,0,0.1,0,0.1,0.1
			c0,0,0,0.1-0.1,0.1C160,149.4,160,149.4,159.9,149.4z"/>
	</g>
	<g>
		<path class="st9" d="M152.9,159.5c-0.2,0-0.3,0-0.3,0c0,0,0,0,0,0c0,0,0,0,0,0c0,0,0.6,0.2,1.1-0.6c0,0,0,0,0,0c0,0,0,0,0,0
			C153.5,159.4,153.2,159.5,152.9,159.5z"/>
	</g>
	<g>
		<path class="st16" d="M157.8,165.8c-12.4,0-14.8,8.2-14.8,8.2s3.9,1.1,3.9,2.4c0,4.4-2.8,16.7-2.2,24.3c0,0,13.2,21.9,30.5,3.6
			C175.2,204.3,182.2,165.8,157.8,165.8z"/>
	</g>
	<g>
		<g>
			<g>
				<polygon class="st9" points="160.9,239.8 163.1,239.8 163.1,216 161.7,217.6 				"/>
			</g>
			<g>
				<path class="st9" d="M155.5,241.1c0,0,9.8,0.2,13,0.2c0.4,0,0.6-0.5,0.6-0.9l0,0c0-0.4-0.5-0.8-0.9-0.8
					c-3.2,0-12.8,0.1-12.8,0.1c-0.4,0-0.7,0.3-0.7,0.7l0,0C154.8,240.8,155.1,241.1,155.5,241.1z"/>
			</g>
			<g>
				<path class="st9" d="M168.6,242.3c-0.1-0.7-0.7-1.2-1.5-1.2c-0.7,0-1.5,0.5-1.5,1.2c0,0.9,0.9,1.5,1.6,1.5
					C168.1,243.8,168.8,243.2,168.6,242.3z"/>
			</g>
			<g>
				<path class="st9" d="M158.2,242.3c-0.1-0.7-0.7-1.2-1.5-1.2c-0.7,0-1.5,0.5-1.5,1.2c0,0.9,0.9,1.5,1.6,1.5
					S158.4,243.2,158.2,242.3z"/>
			</g>
			<g>
				<path class="st9" d="M166.3,217.5c0,0,0.4,1.6-3.3,2.1c-3.6,0.5-5.2-2.1-5.2-2.1H166.3z"/>
			</g>
		</g>
		<g>
			<path class="st3" d="M157.6,215.1c0-4.4,0.6-22,6.8-23.1c2.4-0.5,11.1-1.6,12.2,2.1c2,6.3-3.4,21.9-3.4,21.9s-0.5,1.7-2.2,1.8
				c-1.8,0.2-23.3,0.8-23.5,0C146.7,214.7,154.6,216,157.6,215.1z"/>
		</g>
	</g>
	<g>
		<path class="st9" d="M154.1,176.3c-0.1,0.5-2.7,0.4-5.7-0.2c-3.1-0.6-5.4-1.6-5.3-2.1c0.1-0.5,2.7-0.4,5.7,0.2
			C151.8,174.8,154.2,175.8,154.1,176.3z"/>
	</g>
	<g>
		<g>
			<path class="st8" d="M124.4,190.9c-1.3-0.6,0.4-5.3,0.4-5.3c0.3-0.4,8.6,3.5,15.1-1.3c2.3-1.7,3.9-8.9,3.9-9.7
				c0,0,1.7-0.4,4.5,0.1c2.3,0.4,4.6,1.9,4.6,1.9c-0.1,1.4-1.2,7-3.1,10.4C145.8,194.3,132.1,196.3,124.4,190.9z"/>
		</g>
	</g>
	<g class="st12">
		<path class="st13" d="M141.1,190.1c-0.3,0-0.5-0.1-0.7-0.3c-0.4-0.5-0.2-1.3,0.4-1.9c0.3-0.3,0.7-0.4,1-0.5c0.4,0,0.7,0,0.9,0.3
			c0.2,0.2,0.3,0.6,0.2,0.9c-0.1,0.3-0.3,0.7-0.6,0.9C142,189.9,141.5,190.1,141.1,190.1z M142,187.8c0,0-0.1,0-0.1,0
			c-0.3,0-0.6,0.2-0.8,0.4c-0.5,0.5-0.7,1.1-0.4,1.4c0.3,0.3,1,0.2,1.5-0.2c0.3-0.2,0.4-0.5,0.5-0.8c0.1-0.3,0-0.5-0.1-0.6
			C142.4,187.8,142.2,187.8,142,187.8z"/>
	</g>
	<g>
		<g>
			<path class="st8" d="M123.2,187.9L123.2,187.9c-0.2,0.4-0.7,0.5-1.1,0.3l-4.9-2.9c-0.4-0.2-0.5-0.7-0.3-1.1l0,0
				c0.2-0.4,0.7-0.5,1.1-0.3l4.9,2.9C123.3,187.1,123.4,187.6,123.2,187.9z"/>
		</g>
		<g>
			<path class="st8" d="M124.2,186.2L124.2,186.2c-0.2,0.4-0.7,0.5-1.1,0.3l-6.4-3.7c-0.4-0.2-0.5-0.7-0.3-1.1l0,0
				c0.2-0.4,0.7-0.5,1.1-0.3l6.4,3.7C124.3,185.3,124.4,185.8,124.2,186.2z"/>
		</g>
		<g>
			<path class="st8" d="M127.9,187.7l-0.3,0.1c-0.5,0.2-1-0.1-1.2-0.5l-1.9-4.8c-0.2-0.5,0.1-1,0.5-1.2l0.3-0.1
				c0.5-0.2,1,0.1,1.2,0.5l1.9,4.8C128.6,186.9,128.3,187.5,127.9,187.7z"/>
		</g>
		<g>
			<path class="st8" d="M125.2,184.4L125.2,184.4c-0.2,0.4-0.7,0.5-1.1,0.3l-5.2-3c-0.4-0.2-0.5-0.7-0.3-1.1l0,0
				c0.2-0.4,0.7-0.5,1.1-0.3l5.2,3C125.3,183.6,125.4,184.1,125.2,184.4z"/>
		</g>
		<g>
			<path class="st8" d="M125.8,191c0,0-4.5,0-6.5-2.5c-0.7-0.9,1.1-6.6,2.4-6.5c1.2,0.1,5.9,3.2,5.9,3.2L125.8,191z"/>
		</g>
		<g>
			<path class="st8" d="M122.2,189.6L122.2,189.6c-0.2,0.4-0.7,0.5-1.1,0.3l-4-2.3c-0.4-0.2-0.5-0.7-0.3-1l0,0
				c0.2-0.4,0.7-0.5,1-0.3l4,2.3C122.3,188.8,122.4,189.3,122.2,189.6z"/>
		</g>
	</g>
</g>
<g>
	<g>
		<path class="st2" d="M275,241.1c0,0-4.8-5-3.2-7.8c1.7-2.8,4.5,6.1,4.5,6.1s-1.5-10.6,1.6-10.7c3-0.2,0,10.7,0,10.7
			s1.1-2.5,2.2-2.7c1.1-0.2,0.8,2.2-1.2,4.4H275z"/>
	</g>
	<g>
		<path class="st21" d="M275.3,241.3c0,0-1.4-1.4-2.5-3.3c-1.5-2.5-1.9-4.4-1.1-5.8c0.3-0.5,0.7-0.8,1.1-0.7c0.8,0.1,1.8,1.4,2.9,4
			c0.3,0.8,0.6,1.5,0.9,2.2c-0.3-2.8-0.6-8.3,0.9-10.1c0.3-0.4,0.7-0.6,1.2-0.6c0.4,0,0.8,0.1,1.1,0.5c1.4,1.7,0.1,7.7-0.5,10.5
			c0.5-0.8,1.2-1.7,1.9-1.8c0.3,0,0.6,0.1,0.8,0.4c0.4,0.8-0.2,2.9-1.9,5l-0.3-0.2c1.7-2,2.2-3.9,1.9-4.5c-0.1-0.2-0.2-0.2-0.4-0.2
			c-0.9,0.1-2,2.2-2.4,3l-0.3-0.1c0,0,0.7-2.4,1.1-5.1c0.6-3.4,0.5-5.7-0.1-6.5c-0.2-0.3-0.5-0.4-0.8-0.3c-0.4,0-0.7,0.2-0.9,0.5
			c-1.9,2.3-0.7,11.4-0.7,11.5l-0.3,0.1c-0.6-2-2.6-7.2-4-7.4c-0.3,0-0.5,0.1-0.7,0.5c-1.8,3.1,3.5,8.6,3.6,8.6L275.3,241.3z"/>
	</g>
</g>
<g>
	<g>
		<path class="st2" d="M186.2,226.1c0,0-5.3-5.5-3.5-8.6c1.8-3.1,4.9,6.7,4.9,6.7s-1.6-11.6,1.7-11.8c3.3-0.2,0,11.8,0,11.8
			s1.2-2.8,2.4-3c1.2-0.2,0.9,2.4-1.3,4.9H186.2z"/>
	</g>
	<g>
		<path class="st21" d="M186.5,226.2c-0.3-0.3-6.1-6.4-4-10c0.3-0.6,0.7-0.8,1.2-0.8c0.9,0.1,2,1.5,3.2,4.3c0.4,0.8,0.7,1.7,0.9,2.4
			c-0.3-3-0.6-9.1,1-11.1c0.4-0.4,0.8-0.7,1.3-0.7c0.5,0,0.9,0.1,1.2,0.5c1.5,1.9,0.2,8.4-0.6,11.5c0.6-0.9,1.3-1.9,2.1-2
			c0.4-0.1,0.7,0.1,0.8,0.4c0.5,0.9-0.2,3.2-2.1,5.5l-0.3-0.3c1.9-2.2,2.4-4.3,2.1-5c-0.1-0.2-0.2-0.2-0.4-0.2
			c-1,0.1-2.2,2.4-2.6,3.3l-0.4-0.1c0,0,0.7-2.7,1.2-5.6c0.6-3.8,0.6-6.3-0.2-7.2c-0.2-0.3-0.5-0.4-0.9-0.4c-0.4,0-0.7,0.2-1,0.6
			c-2.1,2.6-0.8,12.5-0.7,12.6l-0.4,0.1c-0.7-2.2-2.8-8-4.4-8.2c-0.3,0-0.6,0.2-0.8,0.6c-2,3.4,3.9,9.5,3.9,9.5L186.5,226.2z"/>
	</g>
</g>
<g>
	<g>
		<path class="st2" d="M202.7,244.5c0,0-3.7-3.8-2.4-5.9c1.3-2.1,3.4,4.6,3.4,4.6s-1.1-8,1.2-8.1c2.3-0.1,0,8.1,0,8.1s0.8-1.9,1.7-2
			c0.8-0.1,0.6,1.6-0.9,3.3H202.7z"/>
	</g>
	<g>
		<path class="st21" d="M203,244.6c0,0-1.1-1.1-1.9-2.5c-1.2-1.9-1.4-3.3-0.8-4.4c0.2-0.4,0.5-0.6,0.8-0.5c1.1,0.1,2.2,2.9,2.9,4.6
			c-0.2-2.1-0.4-6.2,0.7-7.6c0.2-0.3,0.5-0.5,0.9-0.5c0.3,0,0.6,0.1,0.8,0.4c1,1.3,0.1,5.8-0.4,7.9c0.4-0.6,0.9-1.3,1.5-1.4
			c0.3,0,0.5,0.1,0.6,0.3c0.3,0.6-0.1,2.2-1.5,3.7l-0.2-0.2c1.3-1.5,1.7-3,1.4-3.4c-0.1-0.1-0.2-0.2-0.3-0.1
			c-0.7,0.1-1.5,1.7-1.8,2.2l-0.3-0.1c0,0,0.5-1.8,0.8-3.8c0.4-2.6,0.4-4.3-0.1-4.9c-0.2-0.2-0.3-0.3-0.6-0.3
			c-0.3,0-0.5,0.1-0.7,0.4c-1.4,1.8-0.5,8.6-0.5,8.7l-0.3,0.1c-0.5-1.5-2-5.5-3-5.6c-0.2,0-0.4,0.1-0.6,0.4
			c-1.4,2.3,2.7,6.5,2.7,6.5L203,244.6z"/>
	</g>
</g>
<g>
	<g>
		<path class="st2" d="M102.1,244.5c0,0-3.7-3.8-2.4-5.9c1.3-2.1,3.4,4.6,3.4,4.6s-1.1-8,1.2-8.1c2.3-0.1,0,8.1,0,8.1s0.8-1.9,1.7-2
			c0.8-0.1,0.6,1.6-0.9,3.3H102.1z"/>
	</g>
	<g>
		<path class="st21" d="M102.3,244.6c0,0-1.1-1.1-1.9-2.5c-1.2-1.9-1.4-3.3-0.8-4.4c0.2-0.4,0.5-0.6,0.8-0.5
			c1.1,0.1,2.2,2.9,2.9,4.6c-0.2-2.1-0.4-6.2,0.7-7.6c0.2-0.3,0.5-0.5,0.9-0.5c0.3,0,0.6,0.1,0.8,0.4c1,1.3,0.1,5.8-0.4,7.9
			c0.4-0.6,0.9-1.3,1.5-1.4c0.3,0,0.5,0.1,0.6,0.3c0.3,0.6-0.1,2.2-1.5,3.7l-0.2-0.2c1.3-1.5,1.7-3,1.4-3.4
			c-0.1-0.1-0.2-0.2-0.3-0.1c-0.7,0.1-1.5,1.7-1.8,2.2l-0.3-0.1c0,0,0.5-1.8,0.8-3.8c0.4-2.6,0.4-4.3-0.1-4.9
			c-0.2-0.2-0.3-0.3-0.6-0.3c-0.3,0-0.5,0.1-0.7,0.4c-1.4,1.8-0.5,8.6-0.5,8.7l-0.3,0.1c-0.5-1.5-2-5.5-3-5.6
			c-0.2,0-0.4,0.1-0.6,0.4c-1.4,2.3,2.7,6.5,2.7,6.5L102.3,244.6z"/>
	</g>
</g>
<g>
	<g>
		<path class="st2" d="M15.9,231.4c0,0-4.9-5.1-3.2-8c1.7-2.9,4.6,6.2,4.6,6.2s-1.5-10.8,1.6-11c3.1-0.2,0,11,0,11s1.1-2.6,2.3-2.8
			c1.1-0.2,0.8,2.2-1.2,4.5H15.9z"/>
	</g>
	<g>
		<path class="st21" d="M16.2,231.5c-0.2-0.2-5.7-5.9-3.7-9.3c0.3-0.5,0.7-0.8,1.1-0.7c0.9,0.1,1.8,1.4,3,4c0.3,0.8,0.6,1.6,0.9,2.2
			c-0.3-2.8-0.6-8.5,1-10.3c0.3-0.4,0.7-0.6,1.2-0.7c0.5,0,0.8,0.1,1.1,0.5c1.4,1.7,0.1,7.8-0.5,10.7c0.5-0.8,1.2-1.8,2-1.9
			c0.4-0.1,0.6,0.1,0.8,0.4c0.5,0.8-0.2,2.9-2,5.1l-0.3-0.2c1.8-2.1,2.3-4,1.9-4.6c-0.1-0.2-0.2-0.2-0.4-0.2c-1,0.1-2.1,2.2-2.4,3
			l-0.3-0.1c0,0,0.7-2.5,1.1-5.2c0.6-3.5,0.5-5.8-0.1-6.7c-0.2-0.3-0.5-0.4-0.8-0.4c-0.4,0-0.7,0.2-0.9,0.5
			c-2,2.4-0.7,11.6-0.7,11.7l-0.4,0.1c-0.6-2.1-2.6-7.4-4.1-7.6c-0.3,0-0.5,0.1-0.8,0.6c-1.8,3.1,3.6,8.8,3.7,8.8L16.2,231.5z"/>
	</g>
</g>
<g>
	<path class="st5" d="M72.2,175.1C72.2,175.1,72.1,175.1,72.2,175.1c-0.1-0.1-0.1-0.1-0.1-0.2c0,0,0.2-0.3,0.6-0.9
		c0-0.1,0.1-0.1,0.2,0c0.1,0,0.1,0.1,0,0.2C72.5,174.7,72.3,175,72.2,175.1C72.3,175,72.2,175.1,72.2,175.1z M73.3,173.2
		C73.3,173.2,73.3,173.2,73.3,173.2c-0.1,0-0.1-0.1-0.1-0.2c0.2-0.3,0.3-0.6,0.5-1c0-0.1,0.1-0.1,0.2-0.1c0.1,0,0.1,0.1,0.1,0.2
		c-0.2,0.3-0.3,0.7-0.5,1C73.4,173.2,73.3,173.2,73.3,173.2z M74.2,171.3C74.2,171.3,74.2,171.3,74.2,171.3c-0.1,0-0.1-0.1-0.1-0.2
		c0.1-0.3,0.3-0.7,0.4-1c0-0.1,0.1-0.1,0.2-0.1c0.1,0,0.1,0.1,0.1,0.2c-0.1,0.3-0.3,0.7-0.4,1C74.3,171.3,74.3,171.3,74.2,171.3z
		 M75,169.3C75,169.3,75,169.3,75,169.3c-0.1,0-0.1-0.1-0.1-0.2c0.1-0.3,0.2-0.7,0.3-1c0-0.1,0.1-0.1,0.1-0.1c0.1,0,0.1,0.1,0.1,0.1
		c-0.1,0.3-0.2,0.7-0.3,1C75.1,169.3,75,169.3,75,169.3z M75.6,167.2C75.6,167.2,75.6,167.2,75.6,167.2c-0.1,0-0.1-0.1-0.1-0.1
		c0.1-0.3,0.2-0.7,0.2-1c0-0.1,0.1-0.1,0.1-0.1c0.1,0,0.1,0.1,0.1,0.1c-0.1,0.3-0.1,0.7-0.2,1.1C75.7,167.2,75.6,167.2,75.6,167.2z
		 M76,165.1C76,165.1,76,165.1,76,165.1c-0.1,0-0.1-0.1-0.1-0.1c0.1-0.4,0.1-0.7,0.1-1.1c0-0.1,0.1-0.1,0.1-0.1
		c0.1,0,0.1,0.1,0.1,0.1c0,0.4-0.1,0.7-0.1,1.1C76.1,165.1,76.1,165.1,76,165.1z M76.2,163C76.2,163,76.2,163,76.2,163
		c-0.1,0-0.1-0.1-0.1-0.1c0-0.4,0-0.7,0.1-1.1c0-0.1,0.1-0.1,0.1-0.1c0.1,0,0.1,0.1,0.1,0.1c0,0.4,0,0.7-0.1,1.1
		C76.4,162.9,76.3,163,76.2,163z M76.3,160.9c-0.1,0-0.1-0.1-0.1-0.1c0-0.4,0-0.7,0-1.1c0-0.1,0-0.1,0.1-0.1c0.1,0,0.1,0,0.1,0.1
		c0,0.4,0,0.7,0,1.1C76.4,160.8,76.4,160.8,76.3,160.9C76.3,160.9,76.3,160.9,76.3,160.9z M76.2,158.7c-0.1,0-0.1,0-0.1-0.1
		c0-0.4-0.1-0.7-0.1-1.1c0-0.1,0-0.1,0.1-0.1c0.1,0,0.1,0,0.1,0.1c0,0.4,0.1,0.7,0.1,1.1C76.3,158.6,76.3,158.7,76.2,158.7
		C76.2,158.7,76.2,158.7,76.2,158.7z M75.9,156.6c-0.1,0-0.1,0-0.1-0.1c-0.1-0.3-0.1-0.7-0.2-1c0-0.1,0-0.1,0.1-0.1
		c0.1,0,0.1,0,0.1,0.1c0.1,0.3,0.1,0.7,0.2,1.1C76.1,156.5,76,156.6,75.9,156.6C75.9,156.6,75.9,156.6,75.9,156.6z M75.5,154.5
		c-0.1,0-0.1,0-0.1-0.1c-0.1-0.3-0.2-0.7-0.3-1c0-0.1,0-0.1,0.1-0.1c0.1,0,0.1,0,0.1,0.1c0.1,0.3,0.2,0.7,0.3,1
		C75.6,154.4,75.6,154.5,75.5,154.5C75.5,154.5,75.5,154.5,75.5,154.5z M74.8,152.4c0,0-0.1,0-0.1-0.1c-0.1-0.3-0.2-0.7-0.4-1
		c0-0.1,0-0.1,0.1-0.2c0.1,0,0.1,0,0.2,0.1c0.1,0.3,0.3,0.7,0.4,1C75,152.3,74.9,152.4,74.8,152.4C74.9,152.4,74.8,152.4,74.8,152.4
		z M74.1,150.4c0,0-0.1,0-0.1-0.1c-0.1-0.3-0.3-0.7-0.4-1c0-0.1,0-0.1,0.1-0.2c0.1,0,0.1,0,0.2,0.1c0.2,0.3,0.3,0.7,0.4,1
		C74.2,150.3,74.2,150.4,74.1,150.4C74.1,150.4,74.1,150.4,74.1,150.4z M73.1,148.5c0,0-0.1,0-0.1-0.1c-0.2-0.3-0.4-0.6-0.6-0.9
		c0-0.1,0-0.1,0-0.2c0.1,0,0.1,0,0.2,0c0.2,0.3,0.4,0.6,0.6,0.9C73.2,148.4,73.2,148.5,73.1,148.5C73.2,148.5,73.1,148.5,73.1,148.5
		z M71.8,146.8C71.8,146.8,71.7,146.8,71.8,146.8c-0.3-0.3-0.6-0.5-0.9-0.8c0,0-0.1-0.1,0-0.2c0,0,0.1-0.1,0.2,0
		c0.3,0.3,0.5,0.5,0.8,0.8C71.9,146.7,71.9,146.8,71.8,146.8C71.8,146.8,71.8,146.8,71.8,146.8z M70.2,145.4
		C70.2,145.4,70.2,145.4,70.2,145.4c-0.3-0.2-0.6-0.5-0.9-0.7c-0.1,0-0.1-0.1,0-0.2c0-0.1,0.1-0.1,0.2,0c0.3,0.2,0.6,0.4,0.8,0.7
		C70.3,145.2,70.3,145.3,70.2,145.4C70.3,145.4,70.2,145.4,70.2,145.4z M68.5,144.1C68.5,144.1,68.4,144.1,68.5,144.1
		c-0.3-0.2-0.6-0.4-1-0.6c-0.1,0-0.1-0.1,0-0.2c0-0.1,0.1-0.1,0.2,0c0.3,0.2,0.6,0.4,0.9,0.6C68.6,143.9,68.6,144,68.5,144.1
		C68.6,144.1,68.5,144.1,68.5,144.1z M66.7,142.9C66.7,142.9,66.7,142.9,66.7,142.9c-0.4-0.2-0.7-0.4-1-0.6c-0.1,0-0.1-0.1,0-0.2
		c0-0.1,0.1-0.1,0.2,0c0.3,0.2,0.6,0.4,0.9,0.6c0.1,0,0.1,0.1,0,0.2C66.8,142.9,66.7,142.9,66.7,142.9z M64.9,141.8
		C64.9,141.8,64.8,141.8,64.9,141.8c-0.4-0.2-0.7-0.4-1-0.6c-0.1,0-0.1-0.1,0-0.2c0-0.1,0.1-0.1,0.2,0c0.3,0.2,0.6,0.4,0.9,0.6
		c0.1,0,0.1,0.1,0,0.2C65,141.7,64.9,141.8,64.9,141.8z M63.1,140.6C63,140.6,63,140.6,63.1,140.6l-1-0.6c-0.1,0-0.1-0.1,0-0.2
		c0-0.1,0.1-0.1,0.2,0l0.9,0.6c0.1,0,0.1,0.1,0,0.2C63.1,140.6,63.1,140.6,63.1,140.6z M61.2,139.5
		C61.2,139.5,61.2,139.5,61.2,139.5c-0.4-0.2-0.7-0.4-1-0.6c-0.1,0-0.1-0.1,0-0.2c0-0.1,0.1-0.1,0.2,0c0.3,0.2,0.6,0.4,0.9,0.6
		c0.1,0,0.1,0.1,0,0.2C61.3,139.5,61.3,139.5,61.2,139.5z M59.4,138.4C59.4,138.4,59.4,138.4,59.4,138.4c-0.4-0.2-0.7-0.4-1-0.6
		c-0.1,0-0.1-0.1,0-0.2c0-0.1,0.1-0.1,0.2,0c0.3,0.2,0.6,0.4,0.9,0.6c0.1,0,0.1,0.1,0,0.2C59.5,138.4,59.4,138.4,59.4,138.4z
		 M57.6,137.2C57.6,137.2,57.6,137.2,57.6,137.2c-0.4-0.2-0.7-0.4-1-0.6c-0.1,0-0.1-0.1,0-0.2c0-0.1,0.1-0.1,0.2,0
		c0.3,0.2,0.6,0.4,0.9,0.6C57.7,137.1,57.7,137.1,57.6,137.2C57.7,137.2,57.6,137.2,57.6,137.2z M55.8,136
		C55.8,136,55.8,136,55.8,136c-0.4-0.2-0.7-0.4-0.9-0.7c-0.1,0-0.1-0.1,0-0.2c0-0.1,0.1-0.1,0.2,0c0.3,0.2,0.6,0.4,0.9,0.6
		C55.9,135.8,56,135.9,55.8,136C55.9,136,55.9,136,55.8,136z M54.1,134.8C54.1,134.8,54,134.7,54.1,134.8c-0.4-0.2-0.6-0.5-0.9-0.7
		c-0.1,0-0.1-0.1,0-0.2c0-0.1,0.1-0.1,0.2,0c0.3,0.2,0.6,0.4,0.8,0.7C54.2,134.6,54.2,134.7,54.1,134.8
		C54.2,134.7,54.1,134.8,54.1,134.8z M52.4,133.4C52.4,133.4,52.4,133.4,52.4,133.4c-0.4-0.3-0.6-0.5-0.9-0.7c0,0-0.1-0.1,0-0.2
		c0,0,0.1-0.1,0.2,0c0.3,0.2,0.5,0.5,0.8,0.7C52.6,133.2,52.6,133.3,52.4,133.4C52.5,133.4,52.5,133.4,52.4,133.4z M50.9,131.9
		C50.8,131.9,50.8,131.9,50.9,131.9c-0.3-0.3-0.6-0.5-0.8-0.8c0,0,0-0.1,0-0.2c0,0,0.1,0,0.2,0c0.2,0.3,0.5,0.5,0.7,0.8
		C51,131.8,51,131.9,50.9,131.9C50.9,131.9,50.9,131.9,50.9,131.9z M49.4,130.4C49.4,130.4,49.3,130.4,49.4,130.4
		c-0.3-0.3-0.6-0.6-0.8-0.9c0-0.1,0-0.1,0-0.2c0.1,0,0.1,0,0.2,0c0.2,0.3,0.4,0.6,0.7,0.8C49.5,130.2,49.5,130.3,49.4,130.4
		C49.4,130.4,49.4,130.4,49.4,130.4z M48.1,128.7C48,128.7,48,128.7,48.1,128.7c-0.3-0.4-0.5-0.7-0.7-1c0-0.1,0-0.1,0-0.2
		c0.1,0,0.1,0,0.2,0c0.2,0.3,0.4,0.6,0.6,0.9C48.2,128.6,48.2,128.6,48.1,128.7C48.1,128.7,48.1,128.7,48.1,128.7z M47,126.9
		c0,0-0.1,0-0.1-0.1c-0.2-0.3-0.3-0.6-0.5-1c0-0.1,0-0.1,0.1-0.2c0.1,0,0.1,0,0.2,0.1c0.1,0.3,0.3,0.6,0.5,1
		C47.1,126.7,47.1,126.8,47,126.9C47,126.8,47,126.9,47,126.9z M46.1,124.9c0,0-0.1,0-0.1-0.1c-0.1-0.3-0.2-0.7-0.3-1
		c0-0.1,0-0.1,0.1-0.1c0.1,0,0.1,0,0.1,0.1c0.1,0.3,0.2,0.7,0.3,1C46.2,124.8,46.2,124.9,46.1,124.9
		C46.1,124.9,46.1,124.9,46.1,124.9z M53,123.7c-0.2,0-0.5,0-0.7,0c-0.1,0-0.1-0.1-0.1-0.1c0-0.1,0.1-0.1,0.1-0.1c0.4,0,0.7,0,1.1,0
		c0.1,0,0.1,0,0.1,0.1c0,0.1,0,0.1-0.1,0.1C53.3,123.7,53.1,123.7,53,123.7z M54.5,123.6c-0.1,0-0.1,0-0.1-0.1c0-0.1,0-0.1,0.1-0.1
		c0.3-0.1,0.7-0.1,1-0.2c0.1,0,0.1,0,0.1,0.1c0,0.1,0,0.1-0.1,0.1C55.2,123.5,54.8,123.5,54.5,123.6
		C54.5,123.6,54.5,123.6,54.5,123.6z M51.3,123.6C51.3,123.6,51.2,123.6,51.3,123.6c-0.4-0.1-0.7-0.1-1.1-0.2
		c-0.1,0-0.1-0.1-0.1-0.1c0-0.1,0.1-0.1,0.1-0.1c0.3,0.1,0.7,0.2,1,0.2c0.1,0,0.1,0.1,0.1,0.1C51.4,123.5,51.3,123.6,51.3,123.6z
		 M49.2,123C49.2,123,49.2,123,49.2,123c-0.4-0.1-0.7-0.3-1-0.4c-0.1,0-0.1-0.1-0.1-0.2c0-0.1,0.1-0.1,0.2-0.1
		c0.3,0.1,0.7,0.3,1,0.4c0.1,0,0.1,0.1,0.1,0.2C49.3,123,49.2,123,49.2,123z M56.5,123c0,0-0.1,0-0.1-0.1c0-0.1,0-0.1,0.1-0.2
		c0.2-0.1,0.4-0.2,0.6-0.3c0.1-0.1,0.3-0.1,0.4-0.2c0.1,0,0.1,0,0.2,0c0,0.1,0,0.1,0,0.2c-0.1,0.1-0.3,0.2-0.4,0.2
		C56.9,122.8,56.7,122.9,56.5,123C56.5,123,56.5,123,56.5,123z M45.5,122.8c-0.1,0-0.1,0-0.1-0.1c-0.1-0.3-0.1-0.7-0.2-1.1
		c0-0.1,0-0.1,0.1-0.1c0.1,0,0.1,0,0.1,0.1c0,0.4,0.1,0.7,0.2,1C45.7,122.8,45.6,122.8,45.5,122.8C45.5,122.8,45.5,122.8,45.5,122.8
		z M47.2,122.2C47.2,122.2,47.2,122.2,47.2,122.2c-0.4-0.2-0.7-0.3-1-0.5c-0.1,0-0.1-0.1,0-0.2c0-0.1,0.1-0.1,0.2,0
		c0.3,0.2,0.6,0.4,0.9,0.5c0.1,0,0.1,0.1,0.1,0.2C47.3,122.2,47.3,122.2,47.2,122.2z M58.3,121.8C58.3,121.8,58.2,121.8,58.3,121.8
		c-0.1-0.1-0.1-0.2-0.1-0.2c0.3-0.2,0.5-0.5,0.8-0.7c0,0,0.1,0,0.2,0c0,0,0,0.1,0,0.2C58.9,121.4,58.7,121.6,58.3,121.8
		C58.4,121.8,58.3,121.8,58.3,121.8z M45.4,121.1C45.4,121.1,45.3,121.1,45.4,121.1c-0.4-0.2-0.7-0.4-0.9-0.6c-0.1,0-0.1-0.1,0-0.2
		c0-0.1,0.1-0.1,0.2,0c0.2,0.1,0.4,0.3,0.6,0.4c0,0,0,0,0-0.1c0-0.3,0-0.6,0-0.9c0-0.1,0-0.1,0-0.2c0-0.1,0.1-0.1,0.1-0.1
		c0,0,0,0,0,0c0.1,0,0.1,0.1,0.1,0.1c0,0.1,0,0.1,0,0.2c0,0.3,0,0.6,0,0.9c0,0.1,0,0.1-0.1,0.1c0,0,0,0,0,0c0.1,0.1,0.2,0.1,0.2,0.2
		C45.5,120.9,45.5,121,45.4,121.1C45.5,121.1,45.4,121.1,45.4,121.1z M59.8,120.3C59.8,120.3,59.8,120.3,59.8,120.3
		c-0.1-0.1-0.1-0.1-0.1-0.2c0.2-0.3,0.4-0.6,0.6-0.9c0-0.1,0.1-0.1,0.2,0c0.1,0,0.1,0.1,0,0.2C60.4,119.7,60.2,120,59.8,120.3
		C59.9,120.3,59.9,120.3,59.8,120.3z M43.6,119.8C43.6,119.8,43.6,119.8,43.6,119.8c-0.4-0.3-0.6-0.5-0.9-0.7c0,0-0.1-0.1,0-0.2
		c0,0,0.1-0.1,0.2,0c0.3,0.2,0.5,0.5,0.8,0.7C43.8,119.7,43.8,119.7,43.6,119.8C43.7,119.8,43.7,119.8,43.6,119.8z M45.3,118.6
		C45.3,118.6,45.3,118.6,45.3,118.6c-0.1,0-0.1-0.1-0.1-0.1c0-0.4,0.1-0.7,0.1-1.1c0-0.1,0.1-0.1,0.1-0.1c0.1,0,0.1,0.1,0.1,0.1
		c0,0.4-0.1,0.7-0.1,1.1C45.4,118.5,45.3,118.6,45.3,118.6z M61,118.5C61,118.5,61,118.5,61,118.5c-0.1,0-0.1-0.1-0.1-0.2
		c0.2-0.3,0.3-0.6,0.4-1c0-0.1,0.1-0.1,0.2-0.1c0.1,0,0.1,0.1,0.1,0.2c-0.1,0.3-0.3,0.7-0.4,1C61.1,118.5,61.1,118.5,61,118.5z
		 M42,118.4C42,118.4,42,118.4,42,118.4c-0.3-0.3-0.6-0.5-0.8-0.8c0,0,0-0.1,0-0.2c0,0,0.1,0,0.2,0c0.2,0.3,0.5,0.5,0.8,0.8
		C42.2,118.2,42.2,118.3,42,118.4C42.1,118.4,42.1,118.4,42,118.4z M40.6,116.9C40.5,116.9,40.5,116.8,40.6,116.9
		c-0.3-0.3-0.6-0.6-0.8-0.9c0-0.1,0-0.1,0-0.2c0.1,0,0.1,0,0.2,0c0.2,0.3,0.5,0.5,0.7,0.8C40.7,116.7,40.7,116.8,40.6,116.9
		C40.6,116.8,40.6,116.9,40.6,116.9z M61.8,116.6C61.8,116.6,61.8,116.6,61.8,116.6c-0.1,0-0.1-0.1-0.1-0.2c0.1-0.3,0.2-0.7,0.3-1
		c0-0.1,0.1-0.1,0.1-0.1c0.1,0,0.1,0.1,0.1,0.1c-0.1,0.4-0.2,0.7-0.3,1.1C61.9,116.5,61.8,116.6,61.8,116.6z M45.6,116.5
		C45.5,116.5,45.5,116.5,45.6,116.5c-0.1,0-0.1-0.1-0.1-0.1c0.1-0.3,0.1-0.7,0.2-1.1c0-0.1,0.1-0.1,0.1-0.1c0.1,0,0.1,0.1,0.1,0.1
		c-0.1,0.3-0.2,0.7-0.2,1C45.7,116.4,45.6,116.5,45.6,116.5z M39.2,115.2C39.2,115.2,39.1,115.2,39.2,115.2
		c-0.3-0.3-0.5-0.6-0.7-0.9c0-0.1,0-0.1,0-0.2c0.1,0,0.1,0,0.2,0c0.2,0.3,0.4,0.6,0.6,0.9C39.3,115.1,39.3,115.1,39.2,115.2
		C39.3,115.2,39.2,115.2,39.2,115.2z M62.2,114.5C62.2,114.5,62.2,114.5,62.2,114.5c-0.1,0-0.1-0.1-0.1-0.1c0-0.3,0.1-0.7,0.1-1.1
		c0-0.1,0.1-0.1,0.1-0.1c0.1,0,0.1,0.1,0.1,0.1c0,0.4,0,0.7-0.1,1.1C62.3,114.4,62.3,114.5,62.2,114.5z M46.1,114.4
		C46.1,114.4,46.1,114.4,46.1,114.4c-0.1,0-0.1-0.1-0.1-0.2c0.1-0.3,0.2-0.7,0.3-1c0-0.1,0.1-0.1,0.2-0.1c0.1,0,0.1,0.1,0.1,0.2
		c-0.1,0.3-0.2,0.7-0.3,1C46.2,114.3,46.1,114.4,46.1,114.4z M38,113.4c0,0-0.1,0-0.1-0.1c-0.2-0.3-0.4-0.6-0.6-0.9
		c0-0.1,0-0.1,0-0.2c0.1,0,0.1,0,0.2,0c0.2,0.3,0.4,0.6,0.6,0.9C38.1,113.3,38.1,113.4,38,113.4C38,113.4,38,113.4,38,113.4z
		 M46.8,112.4C46.8,112.4,46.8,112.4,46.8,112.4c-0.1,0-0.1-0.1-0.1-0.2c0.1-0.3,0.3-0.7,0.4-1c0-0.1,0.1-0.1,0.2-0.1
		c0.1,0,0.1,0.1,0.1,0.2c-0.1,0.3-0.3,0.7-0.4,1C46.9,112.3,46.8,112.4,46.8,112.4z M62.3,112.3c-0.1,0-0.1-0.1-0.1-0.1
		c0-0.4,0-0.7-0.1-1.1c0-0.1,0-0.1,0.1-0.1c0.1,0,0.1,0,0.1,0.1c0,0.4,0.1,0.7,0.1,1.1C62.4,112.3,62.4,112.3,62.3,112.3
		C62.3,112.3,62.3,112.3,62.3,112.3z M36.9,111.6c0,0-0.1,0-0.1-0.1c-0.2-0.3-0.3-0.6-0.5-1c0-0.1,0-0.1,0.1-0.2
		c0.1,0,0.1,0,0.2,0.1c0.2,0.3,0.3,0.6,0.5,1C37,111.5,37,111.5,36.9,111.6C36.9,111.6,36.9,111.6,36.9,111.6z M125.6,111.4
		C125.6,111.4,125.6,111.4,125.6,111.4c-0.4,0-0.7,0-1.1-0.1c-0.1,0-0.1-0.1-0.1-0.1c0-0.1,0.1-0.1,0.1-0.1c0.4,0,0.7,0,1.1,0
		c0.1,0,0.1,0.1,0.1,0.1C125.7,111.3,125.7,111.4,125.6,111.4z M126.7,111.4c-0.1,0-0.1,0-0.1-0.1c0-0.1,0-0.1,0.1-0.1
		c0.4,0,0.7-0.1,1.1-0.1c0.1,0,0.1,0,0.1,0.1c0,0.1,0,0.1-0.1,0.1C127.4,111.3,127,111.3,126.7,111.4
		C126.7,111.4,126.7,111.4,126.7,111.4z M123.5,111.2C123.5,111.2,123.5,111.2,123.5,111.2c-0.4-0.1-0.7-0.1-1.1-0.2
		c-0.1,0-0.1-0.1-0.1-0.1c0-0.1,0.1-0.1,0.1-0.1c0.3,0.1,0.7,0.2,1,0.2c0.1,0,0.1,0.1,0.1,0.1C123.6,111.2,123.5,111.2,123.5,111.2z
		 M128.8,111c-0.1,0-0.1,0-0.1-0.1c0-0.1,0-0.1,0.1-0.1c0.3-0.1,0.7-0.2,1-0.3c0.1,0,0.1,0,0.2,0.1s0,0.1-0.1,0.2
		C129.5,110.8,129.2,110.9,128.8,111C128.8,111,128.8,111,128.8,111z M121.4,110.7C121.4,110.7,121.4,110.7,121.4,110.7
		c-0.4-0.1-0.7-0.3-1-0.4c-0.1,0-0.1-0.1-0.1-0.2c0-0.1,0.1-0.1,0.2-0.1c0.3,0.1,0.7,0.3,1,0.4c0.1,0,0.1,0.1,0.1,0.2
		C121.5,110.6,121.5,110.7,121.4,110.7z M47.7,110.4C47.6,110.4,47.6,110.4,47.7,110.4c-0.1,0-0.1-0.1-0.1-0.2
		c0.2-0.3,0.3-0.6,0.5-1c0-0.1,0.1-0.1,0.2-0.1c0.1,0,0.1,0.1,0.1,0.2c-0.2,0.3-0.3,0.6-0.5,1C47.7,110.4,47.7,110.4,47.7,110.4z
		 M130.8,110.2c0,0-0.1,0-0.1-0.1c0-0.1,0-0.1,0.1-0.2c0.3-0.2,0.6-0.3,0.9-0.5c0.1,0,0.1,0,0.2,0c0,0.1,0,0.1,0,0.2
		C131.5,109.9,131.2,110.1,130.8,110.2C130.8,110.2,130.8,110.2,130.8,110.2z M62.1,110.2c-0.1,0-0.1,0-0.1-0.1
		c-0.1-0.3-0.1-0.7-0.2-1c0-0.1,0-0.1,0.1-0.1c0.1,0,0.1,0,0.1,0.1c0.1,0.3,0.2,0.7,0.2,1.1C62.2,110.1,62.2,110.2,62.1,110.2
		C62.1,110.2,62.1,110.2,62.1,110.2z M119.4,109.8C119.4,109.8,119.4,109.8,119.4,109.8c-0.4-0.2-0.7-0.3-1-0.5
		c-0.1,0-0.1-0.1,0-0.2c0-0.1,0.1-0.1,0.2,0c0.3,0.2,0.6,0.4,0.9,0.5c0.1,0,0.1,0.1,0.1,0.2C119.5,109.8,119.5,109.8,119.4,109.8z
		 M36,109.6c0,0-0.1,0-0.1-0.1c-0.1-0.3-0.3-0.7-0.4-1c0-0.1,0-0.1,0.1-0.2c0.1,0,0.1,0,0.2,0.1c0.1,0.3,0.2,0.7,0.4,1
		C36.1,109.5,36.1,109.6,36,109.6C36,109.6,36,109.6,36,109.6z M84.8,109.2C84.8,109.2,84.8,109.2,84.8,109.2c-0.4,0-0.7,0-1.1,0
		c-0.1,0-0.1-0.1-0.1-0.1s0.1-0.1,0.1-0.1c0.3,0,0.7,0,1.1,0c0.1,0,0.1,0.1,0.1,0.1C84.9,109.1,84.9,109.2,84.8,109.2z M85.9,109.1
		c-0.1,0-0.1,0-0.1-0.1c0-0.1,0-0.1,0.1-0.1c0.3,0,0.7,0,1.1-0.1c0.1,0,0.1,0,0.1,0.1c0,0.1,0,0.1-0.1,0.1
		C86.6,109.1,86.2,109.1,85.9,109.1C85.9,109.1,85.9,109.1,85.9,109.1z M132.6,109.1C132.6,109.1,132.6,109.1,132.6,109.1
		c-0.1-0.1-0.1-0.2-0.1-0.2c0.4-0.3,0.6-0.5,0.6-0.5l0.1,0.1l0.1,0C133.4,108.6,133,108.9,132.6,109.1
		C132.7,109.1,132.7,109.1,132.6,109.1z M82.7,109C82.7,109,82.7,109,82.7,109c-0.4-0.1-0.7-0.1-1.1-0.2c-0.1,0-0.1-0.1-0.1-0.1
		c0-0.1,0.1-0.1,0.1-0.1c0.3,0.1,0.7,0.2,1,0.2c0.1,0,0.1,0.1,0.1,0.1C82.8,109,82.7,109,82.7,109z M88,108.9c-0.1,0-0.1,0-0.1-0.1
		c0-0.1,0-0.1,0.1-0.1c0.3,0,0.7-0.1,1.1-0.2c0.1,0,0.1,0,0.1,0.1c0,0.1,0,0.1-0.1,0.1C88.7,108.8,88.4,108.9,88,108.9
		C88,108.9,88,108.9,88,108.9z M117.6,108.7C117.6,108.7,117.5,108.7,117.6,108.7c-0.4-0.2-0.7-0.4-0.9-0.6c-0.1,0-0.1-0.1,0-0.2
		c0-0.1,0.1-0.1,0.2,0c0.3,0.2,0.6,0.4,0.9,0.6C117.7,108.5,117.7,108.6,117.6,108.7C117.7,108.7,117.6,108.7,117.6,108.7z
		 M90.1,108.5c-0.1,0-0.1,0-0.1-0.1c0-0.1,0-0.1,0.1-0.1c0.3-0.1,0.7-0.2,1-0.2c0.1,0,0.1,0,0.1,0.1c0,0.1,0,0.1-0.1,0.1
		C90.8,108.4,90.5,108.5,90.1,108.5C90.2,108.5,90.1,108.5,90.1,108.5z M48.6,108.5C48.6,108.5,48.6,108.5,48.6,108.5
		c-0.1,0-0.1-0.1-0.1-0.2c0.2-0.3,0.4-0.6,0.5-0.9c0-0.1,0.1-0.1,0.2,0c0.1,0,0.1,0.1,0,0.2c-0.2,0.3-0.4,0.6-0.5,0.9
		C48.7,108.5,48.7,108.5,48.6,108.5z M80.6,108.5C80.6,108.5,80.6,108.4,80.6,108.5c-0.4-0.1-0.7-0.3-1-0.5c-0.1,0-0.1-0.1-0.1-0.2
		c0-0.1,0.1-0.1,0.2-0.1c0.3,0.2,0.6,0.3,1,0.4c0.1,0,0.1,0.1,0.1,0.2C80.7,108.4,80.7,108.5,80.6,108.5z M61.5,108.1
		c0,0-0.1,0-0.1-0.1c-0.1-0.3-0.2-0.7-0.4-1c0-0.1,0-0.1,0.1-0.2c0.1,0,0.1,0,0.2,0.1c0.1,0.3,0.3,0.7,0.4,1
		C61.7,108,61.6,108.1,61.5,108.1C61.5,108.1,61.5,108.1,61.5,108.1z M92.2,108.1c-0.1,0-0.1,0-0.1-0.1c0-0.1,0-0.1,0.1-0.1
		c0.3-0.1,0.7-0.2,1-0.3c0.1,0,0.1,0,0.1,0.1c0,0.1,0,0.1-0.1,0.1C92.9,107.9,92.6,108,92.2,108.1C92.2,108.1,92.2,108.1,92.2,108.1
		z M35.3,107.6c-0.1,0-0.1,0-0.1-0.1c-0.1-0.3-0.2-0.7-0.3-1c0-0.1,0-0.1,0.1-0.1c0.1,0,0.1,0,0.1,0.1c0.1,0.3,0.2,0.7,0.3,1
		C35.4,107.5,35.4,107.6,35.3,107.6C35.3,107.6,35.3,107.6,35.3,107.6z M94.3,107.5c-0.1,0-0.1,0-0.1-0.1c0-0.1,0-0.1,0.1-0.1
		c0.3-0.1,0.7-0.2,1-0.3c0.1,0,0.1,0,0.1,0.1c0,0.1,0,0.1-0.1,0.1C95,107.3,94.7,107.4,94.3,107.5C94.3,107.5,94.3,107.5,94.3,107.5
		z M78.7,107.5C78.7,107.5,78.7,107.5,78.7,107.5c-0.4-0.2-0.7-0.4-1-0.6c-0.1,0-0.1-0.1,0-0.2c0-0.1,0.1-0.1,0.2,0
		c0.3,0.2,0.6,0.4,0.9,0.6c0.1,0,0.1,0.1,0,0.2C78.8,107.5,78.8,107.5,78.7,107.5z M115.9,107.5
		C115.8,107.5,115.8,107.4,115.9,107.5c-0.4-0.2-0.6-0.5-0.9-0.7c-0.1,0-0.1-0.1,0-0.2c0-0.1,0.1-0.1,0.2,0c0.3,0.2,0.6,0.4,0.9,0.6
		C116,107.3,116,107.4,115.9,107.5C115.9,107.4,115.9,107.5,115.9,107.5z M96.4,106.9c-0.1,0-0.1,0-0.1-0.1c0-0.1,0-0.1,0.1-0.1
		c0.3-0.1,0.7-0.2,1-0.3c0.1,0,0.1,0,0.1,0.1c0,0.1,0,0.1-0.1,0.1C97.1,106.7,96.7,106.8,96.4,106.9
		C96.4,106.9,96.4,106.9,96.4,106.9z M49.8,106.7C49.8,106.7,49.7,106.7,49.8,106.7c-0.1-0.1-0.1-0.1-0.1-0.2
		c0.2-0.3,0.4-0.6,0.6-0.9c0-0.1,0.1-0.1,0.2,0c0.1,0,0.1,0.1,0,0.2C50.3,106,50.1,106.3,49.8,106.7
		C49.9,106.7,49.8,106.7,49.8,106.7z M98.4,106.3c-0.1,0-0.1,0-0.1-0.1c0-0.1,0-0.1,0.1-0.1c0.3-0.1,0.7-0.2,1-0.3
		c0.1,0,0.1,0,0.1,0.1c0,0.1,0,0.1-0.1,0.1C99.1,106.1,98.8,106.2,98.4,106.3C98.4,106.3,98.4,106.3,98.4,106.3z M114.1,106.3
		C114.1,106.3,114,106.3,114.1,106.3c-0.4-0.2-0.7-0.3-1-0.5c-0.1,0-0.1-0.1-0.1-0.2c0-0.1,0.1-0.1,0.2-0.1c0.3,0.1,0.7,0.3,1,0.5
		c0.1,0,0.1,0.1,0,0.2C114.2,106.2,114.1,106.3,114.1,106.3z M77,106.2C77,106.2,76.9,106.2,77,106.2c-0.3-0.2-0.6-0.5-0.9-0.7
		c0,0-0.1-0.1,0-0.2c0,0,0.1-0.1,0.2,0c0.3,0.2,0.5,0.5,0.8,0.7C77.1,106,77.1,106.1,77,106.2C77.1,106.2,77,106.2,77,106.2z
		 M60.7,106.2c0,0-0.1,0-0.1-0.1c-0.2-0.3-0.4-0.6-0.6-0.9c0-0.1,0-0.1,0-0.2c0.1,0,0.1,0,0.2,0c0.2,0.3,0.4,0.6,0.6,0.9
		C60.8,106,60.8,106.1,60.7,106.2C60.7,106.1,60.7,106.2,60.7,106.2z M100.5,105.8c-0.1,0-0.1,0-0.1-0.1c0-0.1,0-0.1,0.1-0.1
		c0.4-0.1,0.7-0.2,1-0.2c0.1,0,0.1,0,0.1,0.1c0,0.1,0,0.1-0.1,0.1C101.2,105.6,100.9,105.7,100.5,105.8
		C100.5,105.8,100.5,105.8,100.5,105.8z M34.8,105.5c-0.1,0-0.1,0-0.1-0.1c-0.1-0.4-0.1-0.7-0.2-1.1c0-0.1,0-0.1,0.1-0.1
		c0.1,0,0.1,0,0.1,0.1c0,0.3,0.1,0.7,0.2,1.1C34.9,105.5,34.8,105.5,34.8,105.5C34.8,105.5,34.8,105.5,34.8,105.5z M112.1,105.4
		C112.1,105.4,112.1,105.4,112.1,105.4c-0.4-0.1-0.7-0.2-1.1-0.3c-0.1,0-0.1-0.1-0.1-0.1c0-0.1,0.1-0.1,0.1-0.1
		c0.4,0.1,0.7,0.2,1,0.3c0.1,0,0.1,0.1,0.1,0.2C112.2,105.4,112.2,105.4,112.1,105.4z M102.6,105.3c-0.1,0-0.1,0-0.1-0.1
		c0-0.1,0-0.1,0.1-0.1c0.4-0.1,0.7-0.1,1.1-0.2c0.1,0,0.1,0,0.1,0.1c0,0.1,0,0.1-0.1,0.1C103.3,105.2,103,105.2,102.6,105.3
		C102.6,105.3,102.6,105.3,102.6,105.3z M51.1,105C51.1,105,51.1,105,51.1,105c-0.1-0.1-0.1-0.2-0.1-0.2c0.3-0.3,0.5-0.5,0.8-0.8
		c0,0,0.1,0,0.2,0c0,0,0,0.1,0,0.2C51.7,104.4,51.4,104.7,51.1,105C51.2,105,51.1,105,51.1,105z M104.7,104.9c-0.1,0-0.1,0-0.1-0.1
		c0-0.1,0-0.1,0.1-0.1c0.4,0,0.7-0.1,1.1-0.1c0.1,0,0.1,0,0.1,0.1c0,0.1,0,0.1-0.1,0.1C105.4,104.8,105.1,104.9,104.7,104.9
		C104.7,104.9,104.7,104.9,104.7,104.9z M110,104.9C110,104.9,110,104.9,110,104.9c-0.4-0.1-0.7-0.1-1.1-0.1c-0.1,0-0.1-0.1-0.1-0.1
		c0-0.1,0.1-0.1,0.1-0.1c0.4,0,0.7,0.1,1.1,0.1c0.1,0,0.1,0.1,0.1,0.1C110.2,104.9,110.1,104.9,110,104.9z M75.4,104.8
		C75.4,104.8,75.3,104.8,75.4,104.8c-0.3-0.3-0.6-0.5-0.8-0.8c0,0,0-0.1,0-0.2c0,0,0.1,0,0.2,0c0.3,0.3,0.5,0.5,0.8,0.8
		C75.5,104.6,75.5,104.7,75.4,104.8C75.5,104.8,75.4,104.8,75.4,104.8z M106.8,104.7c-0.1,0-0.1-0.1-0.1-0.1c0-0.1,0-0.1,0.1-0.1
		c0.4,0,0.7,0,1.1,0c0.1,0,0.1,0.1,0.1,0.1c0,0.1-0.1,0.1-0.1,0.1C107.6,104.7,107.2,104.7,106.8,104.7
		C106.8,104.7,106.8,104.7,106.8,104.7z M59.4,104.4C59.4,104.4,59.4,104.4,59.4,104.4c-0.3-0.3-0.6-0.6-0.9-0.8
		c-0.1,0-0.1-0.1,0-0.2c0-0.1,0.1-0.1,0.2,0c0.3,0.2,0.5,0.5,0.8,0.7C59.6,104.3,59.5,104.3,59.4,104.4
		C59.5,104.4,59.4,104.4,59.4,104.4z M52.7,103.6C52.7,103.6,52.6,103.6,52.7,103.6c-0.1-0.1-0.1-0.2-0.1-0.2
		c0.3-0.2,0.6-0.4,0.9-0.5c0.1,0,0.1,0,0.2,0.1c0,0.1,0,0.1-0.1,0.2C53.4,103.2,53.1,103.3,52.7,103.6
		C52.8,103.6,52.7,103.6,52.7,103.6z M34.5,103.4c-0.1,0-0.1,0-0.1-0.1c0-0.3,0-0.7,0-1l0-0.1c0-0.1,0.1-0.1,0.1-0.1
		c0.1,0,0.1,0.1,0.1,0.1l0,0.1c0,0.3,0,0.6,0,1C34.6,103.3,34.6,103.4,34.5,103.4C34.5,103.4,34.5,103.4,34.5,103.4z M73.9,103.2
		C73.9,103.2,73.8,103.2,73.9,103.2c-0.3-0.3-0.6-0.6-0.8-0.8c0,0,0-0.1,0-0.2c0,0,0.1,0,0.2,0c0.2,0.3,0.5,0.5,0.7,0.8
		C74,103.1,74,103.2,73.9,103.2C73.9,103.2,73.9,103.2,73.9,103.2z M57.8,103.1C57.7,103.1,57.7,103.1,57.8,103.1
		c-0.4-0.2-0.7-0.3-1-0.4c-0.1,0-0.1-0.1-0.1-0.1c0-0.1,0.1-0.1,0.1-0.1c0.3,0.1,0.7,0.2,1,0.4c0.1,0,0.1,0.1,0,0.2
		C57.8,103.1,57.8,103.1,57.8,103.1z M54.6,102.7c-0.1,0-0.1,0-0.1-0.1c0-0.1,0-0.1,0.1-0.1c0.4-0.1,0.7-0.1,1.1-0.1l0,0
		c0.1,0,0.1,0.1,0.1,0.1c0,0.1-0.1,0.1-0.1,0.1c0,0,0,0,0,0h0C55.3,102.5,55,102.6,54.6,102.7C54.7,102.7,54.6,102.7,54.6,102.7z
		 M72.4,101.7C72.4,101.7,72.4,101.7,72.4,101.7c-0.3-0.3-0.6-0.6-0.8-0.8c0,0,0-0.1,0-0.2c0,0,0.1,0,0.2,0c0.2,0.3,0.5,0.5,0.7,0.8
		C72.6,101.5,72.6,101.6,72.4,101.7C72.5,101.7,72.5,101.7,72.4,101.7z M34.5,101.3C34.5,101.3,34.5,101.3,34.5,101.3
		c-0.1,0-0.1-0.1-0.1-0.1c0-0.4,0.1-0.7,0.1-1.1c0-0.1,0.1-0.1,0.1-0.1c0.1,0,0.1,0.1,0.1,0.1c-0.1,0.3-0.1,0.7-0.1,1.1
		C34.6,101.2,34.6,101.3,34.5,101.3z M71,100.1C71,100.1,70.9,100.1,71,100.1l-0.8-0.8c0,0,0-0.1,0-0.2c0,0,0.1,0,0.2,0l0.7,0.8
		C71.1,99.9,71.1,100,71,100.1C71.1,100.1,71,100.1,71,100.1z M34.8,99.1C34.8,99.1,34.8,99.1,34.8,99.1c-0.1,0-0.1-0.1-0.1-0.1
		c0.1-0.4,0.2-0.7,0.3-1c0-0.1,0.1-0.1,0.2-0.1c0.1,0,0.1,0.1,0.1,0.2c-0.1,0.3-0.2,0.7-0.3,1C34.9,99.1,34.9,99.1,34.8,99.1z
		 M69.6,98.5C69.5,98.5,69.5,98.5,69.6,98.5c-0.3-0.3-0.6-0.6-0.8-0.8c0,0,0-0.1,0-0.2c0,0,0.1,0,0.2,0c0.2,0.3,0.5,0.5,0.7,0.8
		C69.7,98.3,69.7,98.4,69.6,98.5C69.6,98.5,69.6,98.5,69.6,98.5z M35.5,97.1C35.5,97.1,35.5,97.1,35.5,97.1c-0.1,0-0.1-0.1-0.1-0.2
		c0.1-0.3,0.3-0.7,0.5-1c0-0.1,0.1-0.1,0.2-0.1c0.1,0,0.1,0.1,0.1,0.2c-0.2,0.3-0.3,0.6-0.5,1C35.6,97.1,35.5,97.1,35.5,97.1z
		 M68.1,96.9C68.1,96.9,68.1,96.9,68.1,96.9c-0.3-0.3-0.6-0.6-0.8-0.8c0,0,0-0.1,0-0.2c0,0,0.1,0,0.2,0c0.2,0.3,0.5,0.5,0.7,0.8
		C68.3,96.7,68.2,96.8,68.1,96.9C68.2,96.9,68.1,96.9,68.1,96.9z M66.6,95.3C66.6,95.3,66.6,95.3,66.6,95.3
		c-0.3-0.3-0.6-0.5-0.8-0.8c0,0,0-0.1,0-0.2c0,0,0.1,0,0.2,0c0.3,0.3,0.5,0.5,0.8,0.8C66.8,95.2,66.8,95.2,66.6,95.3
		C66.7,95.3,66.7,95.3,66.6,95.3z M36.5,95.2C36.5,95.2,36.4,95.2,36.5,95.2c-0.1-0.1-0.1-0.1-0.1-0.2c0.2-0.3,0.4-0.6,0.6-0.9
		c0-0.1,0.1-0.1,0.2,0c0.1,0,0.1,0.1,0,0.2c-0.2,0.3-0.4,0.6-0.6,0.9C36.6,95.2,36.5,95.2,36.5,95.2z M65.1,93.8
		C65.1,93.8,65.1,93.8,65.1,93.8c-0.3-0.3-0.6-0.5-0.9-0.8c0,0-0.1-0.1,0-0.2c0,0,0.1-0.1,0.2,0c0.3,0.2,0.5,0.5,0.8,0.7
		C65.2,93.7,65.2,93.7,65.1,93.8C65.2,93.8,65.1,93.8,65.1,93.8z M37.8,93.5C37.7,93.5,37.7,93.5,37.8,93.5
		c-0.1-0.1-0.1-0.1-0.1-0.2c0.2-0.3,0.5-0.5,0.7-0.8c0,0,0.1,0,0.2,0c0,0,0,0.1,0,0.2C38.3,92.9,38.1,93.2,37.8,93.5
		C37.8,93.5,37.8,93.5,37.8,93.5z M63.5,92.4C63.5,92.4,63.5,92.4,63.5,92.4c-0.4-0.3-0.6-0.5-0.9-0.7c-0.1,0-0.1-0.1,0-0.2
		c0-0.1,0.1-0.1,0.2,0c0.3,0.2,0.6,0.5,0.8,0.7C63.7,92.2,63.7,92.3,63.5,92.4C63.6,92.4,63.6,92.4,63.5,92.4z M39.3,92
		C39.3,92,39.2,92,39.3,92c-0.1-0.1-0.1-0.2-0.1-0.2c0.3-0.2,0.5-0.5,0.8-0.7c0.1,0,0.1,0,0.2,0c0,0.1,0,0.1,0,0.2
		C39.9,91.5,39.6,91.7,39.3,92C39.3,92,39.3,92,39.3,92z M61.9,91C61.8,91,61.8,91,61.9,91c-0.4-0.2-0.7-0.4-0.9-0.6
		c-0.1,0-0.1-0.1,0-0.2c0-0.1,0.1-0.1,0.2,0c0.3,0.2,0.6,0.4,0.9,0.6C62,90.9,62,90.9,61.9,91C61.9,91,61.9,91,61.9,91z M41,90.7
		C40.9,90.7,40.9,90.7,41,90.7c-0.1-0.1-0.1-0.2-0.1-0.2c0.3-0.2,0.6-0.4,0.9-0.6c0.1,0,0.1,0,0.2,0c0,0.1,0,0.1,0,0.2
		C41.6,90.3,41.3,90.5,41,90.7C41,90.7,41,90.7,41,90.7z M60.1,89.8C60.1,89.8,60,89.8,60.1,89.8c-0.4-0.2-0.7-0.4-1-0.6
		c-0.1,0-0.1-0.1,0-0.2c0-0.1,0.1-0.1,0.2,0c0.3,0.2,0.6,0.4,0.9,0.5c0.1,0,0.1,0.1,0,0.2C60.2,89.8,60.1,89.8,60.1,89.8z
		 M42.8,89.6c0,0-0.1,0-0.1-0.1c0-0.1,0-0.1,0-0.2c0.3-0.2,0.6-0.3,1-0.5c0.1,0,0.1,0,0.2,0.1c0,0.1,0,0.1-0.1,0.2
		C43.5,89.2,43.2,89.4,42.8,89.6C42.9,89.6,42.8,89.6,42.8,89.6z M58.2,88.8C58.2,88.8,58.2,88.8,58.2,88.8c-0.4-0.2-0.7-0.3-1-0.5
		c-0.1,0-0.1-0.1-0.1-0.2c0-0.1,0.1-0.1,0.2-0.1c0.3,0.1,0.7,0.3,1,0.4c0.1,0,0.1,0.1,0.1,0.2C58.3,88.8,58.3,88.8,58.2,88.8z
		 M44.7,88.6c0,0-0.1,0-0.1-0.1c0-0.1,0-0.1,0.1-0.2c0.3-0.1,0.7-0.3,1-0.4c0.1,0,0.1,0,0.2,0.1c0,0.1,0,0.1-0.1,0.2
		C45.5,88.3,45.1,88.5,44.7,88.6C44.8,88.6,44.8,88.6,44.7,88.6z M56.2,88C56.2,88,56.2,88,56.2,88c-0.4-0.1-0.7-0.2-1.1-0.3
		c-0.1,0-0.1-0.1-0.1-0.1c0-0.1,0.1-0.1,0.1-0.1c0.3,0.1,0.7,0.2,1,0.3c0.1,0,0.1,0.1,0.1,0.2C56.3,87.9,56.3,88,56.2,88z
		 M46.8,87.9c-0.1,0-0.1,0-0.1-0.1c0-0.1,0-0.1,0.1-0.1c0.3-0.1,0.7-0.2,1-0.3c0.1,0,0.1,0,0.1,0.1c0,0.1,0,0.1-0.1,0.1
		C47.5,87.7,47.1,87.8,46.8,87.9C46.8,87.9,46.8,87.9,46.8,87.9z M54.2,87.4C54.2,87.4,54.2,87.4,54.2,87.4
		c-0.4-0.1-0.7-0.1-1.1-0.2c-0.1,0-0.1-0.1-0.1-0.1c0-0.1,0.1-0.1,0.1-0.1c0.4,0,0.7,0.1,1.1,0.2c0.1,0,0.1,0.1,0.1,0.1
		C54.3,87.4,54.2,87.4,54.2,87.4z M48.8,87.4c-0.1,0-0.1,0-0.1-0.1c0-0.1,0-0.1,0.1-0.1c0.4-0.1,0.7-0.1,1.1-0.2
		c0.1,0,0.1,0,0.1,0.1c0,0.1,0,0.1-0.1,0.1C49.6,87.3,49.2,87.3,48.8,87.4C48.9,87.4,48.8,87.4,48.8,87.4z M52,87.2
		C52,87.2,52,87.2,52,87.2c-0.4,0-0.7,0-1.1,0c-0.1,0-0.1,0-0.1-0.1c0-0.1,0-0.1,0.1-0.1c0.4,0,0.7,0,1.1,0c0.1,0,0.1,0.1,0.1,0.1
		C52.2,87.1,52.1,87.2,52,87.2z"/>
</g>
<g>
	<path class="st5" d="M251.6,181C251.6,181,251.6,181,251.6,181c0,0-0.4-0.1-1-0.3c-0.1,0-0.1-0.1-0.1-0.1c0-0.1,0.1-0.1,0.1-0.1
		c0.6,0.2,0.9,0.3,0.9,0.3c0.1,0,0.1,0.1,0.1,0.1C251.7,181,251.7,181,251.6,181z M249.8,180.4C249.7,180.4,249.7,180.4,249.8,180.4
		c-0.3-0.1-0.7-0.2-1-0.4c-0.1,0-0.1-0.1-0.1-0.1c0-0.1,0.1-0.1,0.1-0.1c0.3,0.1,0.6,0.2,0.9,0.3c0.1,0,0.1,0.1,0.1,0.1
		C249.8,180.4,249.8,180.4,249.8,180.4z M247.9,179.7C247.9,179.7,247.9,179.7,247.9,179.7c-0.3-0.1-0.6-0.3-0.9-0.4
		c-0.1,0-0.1-0.1,0-0.1c0-0.1,0.1-0.1,0.1,0c0.3,0.1,0.6,0.3,0.9,0.4C248,179.5,248.1,179.6,247.9,179.7
		C248,179.7,248,179.7,247.9,179.7z M246.2,178.8C246.2,178.8,246.1,178.8,246.2,178.8c-0.3-0.2-0.6-0.3-0.9-0.5
		c-0.1,0-0.1-0.1,0-0.1c0-0.1,0.1-0.1,0.1,0c0.3,0.2,0.6,0.3,0.8,0.5C246.3,178.6,246.3,178.7,246.2,178.8
		C246.2,178.8,246.2,178.8,246.2,178.8z M244.5,177.8C244.5,177.8,244.5,177.8,244.5,177.8c-0.3-0.2-0.6-0.4-0.9-0.6
		c0,0-0.1-0.1,0-0.2c0,0,0.1-0.1,0.2,0c0.2,0.2,0.5,0.4,0.8,0.6C244.6,177.6,244.6,177.7,244.5,177.8
		C244.6,177.8,244.5,177.8,244.5,177.8z M243,176.6C242.9,176.6,242.9,176.6,243,176.6c-0.3-0.3-0.6-0.5-0.8-0.7c0,0,0-0.1,0-0.2
		c0,0,0.1,0,0.2,0c0.2,0.2,0.5,0.5,0.7,0.7C243.1,176.4,243.1,176.5,243,176.6C243,176.6,243,176.6,243,176.6z M241.6,175.1
		C241.6,175.1,241.5,175.1,241.6,175.1c-0.3-0.3-0.5-0.6-0.7-0.8c0-0.1,0-0.1,0-0.2c0.1,0,0.1,0,0.2,0c0.2,0.3,0.4,0.5,0.6,0.8
		C241.7,175,241.7,175.1,241.6,175.1C241.7,175.1,241.6,175.1,241.6,175.1z M240.6,173.5C240.5,173.5,240.5,173.5,240.6,173.5
		c-0.2-0.4-0.4-0.7-0.5-1c0-0.1,0-0.1,0.1-0.1c0.1,0,0.1,0,0.1,0.1c0.1,0.3,0.2,0.6,0.4,0.9C240.7,173.4,240.7,173.4,240.6,173.5
		C240.6,173.5,240.6,173.5,240.6,173.5z M239.9,171.6c0,0-0.1,0-0.1-0.1c0,0,0-0.1,0-0.1c-0.2,0-0.3,0-0.5,0c-0.1,0-0.1,0-0.1-0.1
		c0-0.1,0-0.1,0.1-0.1c0.2,0,0.3,0,0.5,0c0-0.2-0.1-0.4-0.1-0.7c0-0.1,0-0.1,0.1-0.1c0.1,0,0.1,0,0.1,0.1c0,0.2,0.1,0.4,0.1,0.7
		c0.1,0,0.2,0,0.3,0c0.1,0,0.1,0,0.1,0.1c0,0.1,0,0.1-0.1,0.1c-0.1,0-0.2,0-0.2,0c0,0,0,0.1,0,0.1C240,171.6,240,171.6,239.9,171.6
		C239.9,171.6,239.9,171.6,239.9,171.6z M238.3,171.4C238.3,171.4,238.3,171.4,238.3,171.4c-0.3,0-0.7-0.1-1-0.1
		c-0.1,0-0.1-0.1-0.1-0.1c0-0.1,0.1-0.1,0.1-0.1c0.3,0.1,0.6,0.1,1,0.1c0.1,0,0.1,0.1,0.1,0.1C238.4,171.4,238.3,171.4,238.3,171.4z
		 M241.2,171.2c-0.1,0-0.1,0-0.1-0.1c0-0.1,0-0.1,0.1-0.1c0.3-0.1,0.6-0.2,0.9-0.3c0.1,0,0.1,0,0.1,0.1c0,0.1,0,0.1-0.1,0.1
		C241.9,171.1,241.5,171.2,241.2,171.2C241.2,171.2,241.2,171.2,241.2,171.2z M236.3,171.1C236.3,171.1,236.3,171.1,236.3,171.1
		c-0.3-0.1-0.7-0.2-1-0.3c-0.1,0-0.1-0.1-0.1-0.1c0-0.1,0.1-0.1,0.1-0.1c0.3,0.1,0.6,0.2,0.9,0.3c0.1,0,0.1,0.1,0.1,0.1
		C236.4,171.1,236.4,171.1,236.3,171.1z M243.1,170.7c0,0-0.1,0-0.1-0.1c0-0.1,0-0.1,0.1-0.1c0.3-0.1,0.6-0.3,0.9-0.4
		c0.1,0,0.1,0,0.1,0c0,0.1,0,0.1,0,0.1C243.7,170.4,243.4,170.5,243.1,170.7C243.1,170.7,243.1,170.7,243.1,170.7z M234.5,170.4
		C234.5,170.4,234.5,170.4,234.5,170.4c-0.3-0.2-0.6-0.3-0.9-0.5c-0.1,0-0.1-0.1,0-0.1c0-0.1,0.1-0.1,0.1,0c0.3,0.2,0.6,0.3,0.9,0.5
		C234.6,170.2,234.6,170.3,234.5,170.4C234.6,170.4,234.5,170.4,234.5,170.4z M244.8,169.7C244.8,169.7,244.7,169.7,244.8,169.7
		c-0.1-0.1-0.1-0.2-0.1-0.2c0.3-0.2,0.5-0.4,0.8-0.6c0,0,0.1,0,0.2,0c0,0,0,0.1,0,0.2C245.4,169.4,245.1,169.5,244.8,169.7
		C244.8,169.7,244.8,169.7,244.8,169.7z M239.7,169.7C239.7,169.7,239.7,169.7,239.7,169.7c-0.1,0-0.1-0.1-0.1-0.1
		c0-0.3,0-0.7,0.1-1c0-0.1,0.1-0.1,0.1-0.1c0.1,0,0.1,0.1,0.1,0.1c0,0.3-0.1,0.7-0.1,1C239.8,169.7,239.8,169.7,239.7,169.7z
		 M232.8,169.4C232.8,169.4,232.8,169.4,232.8,169.4c-0.3-0.2-0.6-0.4-0.9-0.6c0,0-0.1-0.1,0-0.2c0,0,0.1-0.1,0.2,0
		c0.3,0.2,0.5,0.4,0.8,0.6C232.9,169.3,232.9,169.3,232.8,169.4C232.9,169.4,232.8,169.4,232.8,169.4z M246.4,168.5
		C246.3,168.5,246.3,168.5,246.4,168.5c-0.1-0.1-0.1-0.1-0.1-0.2c0.2-0.2,0.5-0.5,0.7-0.7c0,0,0.1,0,0.2,0c0,0,0.1,0.1,0,0.2
		C246.9,168,246.7,168.3,246.4,168.5C246.4,168.5,246.4,168.5,246.4,168.5z M231.3,168.2C231.2,168.2,231.2,168.2,231.3,168.2
		l-0.1-0.1c0,0,0-0.1,0-0.2c0,0,0.1,0,0.2,0l0,0C231.4,168.1,231.4,168.1,231.3,168.2C231.3,168.2,231.3,168.2,231.3,168.2z
		 M239.9,167.8C239.9,167.8,239.9,167.8,239.9,167.8c-0.1,0-0.1-0.1-0.1-0.1c0.1-0.3,0.2-0.6,0.3-1c0-0.1,0.1-0.1,0.1-0.1
		c0.1,0,0.1,0.1,0.1,0.1c-0.1,0.3-0.2,0.6-0.3,0.9C240,167.7,240,167.8,239.9,167.8z M247.6,167.1
		C247.6,167.1,247.6,167.1,247.6,167.1c-0.1-0.1-0.1-0.1-0.1-0.2c0.2-0.3,0.3-0.6,0.4-0.9c0-0.1,0.1-0.1,0.1-0.1
		c0.1,0,0.1,0.1,0.1,0.1C248.1,166.4,247.9,166.7,247.6,167.1C247.7,167,247.7,167.1,247.6,167.1z M240.5,165.9
		C240.5,165.9,240.5,165.9,240.5,165.9c-0.1,0-0.1-0.1-0.1-0.1c0.1-0.3,0.3-0.6,0.4-0.9c0-0.1,0.1-0.1,0.1-0.1
		c0.1,0,0.1,0.1,0.1,0.1c-0.1,0.3-0.3,0.6-0.4,0.9C240.6,165.9,240.6,165.9,240.5,165.9z M248.1,165.2c0,0-0.1,0-0.1-0.1
		c-0.1-0.3-0.2-0.6-0.4-0.9c0-0.1,0-0.1,0-0.2c0.1,0,0.1,0,0.2,0c0.2,0.3,0.3,0.6,0.4,0.9C248.2,165.1,248.2,165.2,248.1,165.2
		C248.1,165.2,248.1,165.2,248.1,165.2z M241.4,164.1C241.3,164.1,241.3,164.1,241.4,164.1c-0.1,0-0.1-0.1-0.1-0.2
		c0.2-0.3,0.4-0.6,0.6-0.8c0,0,0.1-0.1,0.2,0c0,0,0.1,0.1,0,0.2C241.8,163.5,241.6,163.8,241.4,164.1
		C241.4,164.1,241.4,164.1,241.4,164.1z M247.1,163.6C247,163.6,247,163.5,247.1,163.6c-0.3-0.3-0.5-0.5-0.8-0.7c0,0-0.1-0.1,0-0.2
		c0,0,0.1-0.1,0.2,0c0.3,0.2,0.5,0.4,0.8,0.7C247.2,163.4,247.2,163.5,247.1,163.6C247.1,163.5,247.1,163.6,247.1,163.6z
		 M242.6,162.6C242.6,162.6,242.6,162.6,242.6,162.6c-0.1-0.1-0.1-0.2-0.1-0.2c0.3-0.2,0.6-0.3,0.9-0.4c0.1,0,0.1,0,0.1,0.1
		c0,0.1,0,0.1-0.1,0.1C243.3,162.3,243,162.5,242.6,162.6C242.7,162.6,242.7,162.6,242.6,162.6z M245.5,162.4
		C245.5,162.4,245.4,162.4,245.5,162.4c-0.3-0.1-0.7-0.2-1-0.2c-0.1,0-0.1-0.1-0.1-0.1c0-0.1,0.1-0.1,0.1-0.1c0.3,0,0.7,0.1,1,0.3
		c0.1,0,0.1,0.1,0.1,0.1C245.5,162.4,245.5,162.4,245.5,162.4z"/>
</g>
</svg>
