<?xml version="1.0" encoding="utf-8"?>
<!-- Generator: Adobe Illustrator 22.0.1, SVG Export Plug-In . SVG Version: 6.00 Build 0)  -->
<svg version="1.1" id="Layer_1" xmlns="http://www.w3.org/2000/svg" xmlns:xlink="http://www.w3.org/1999/xlink" x="0px" y="0px"
	 viewBox="0 0 603.5 467" style="enable-background:new 0 0 603.5 467;" xml:space="preserve">
<style type="text/css">
	.st0{opacity:0.26;fill:#29ABE2;enable-background:new    ;}
	.st1{fill:#FFFFFF;}
	.st2{opacity:0.42;fill:#29ABE2;enable-background:new    ;}
	.st3{fill:#EBC421;}
	.st4{fill:#CCCCCC;}
	.st5{fill:#FBB03B;}
	.st6{opacity:0.32;fill:#0071BC;enable-background:new    ;}
	.st7{fill:#29ABE2;}
	.st8{fill:#FFFF00;}
	.st9{opacity:0.6;}
	.st10{fill:#0071BC;}
	.st11{opacity:0.24;fill:#0071BC;enable-background:new    ;}
	.st12{fill:#3D3660;}
	.st13{fill:#E08A68;}
	.st14{fill:#EF9E78;}
	.st15{fill:#330F1D;}
	.st16{fill:#2B203E;}
	.st17{fill:#282247;}
	.st18{fill:#4C2421;}
	.st19{fill:#3F1D1B;}
	.st20{fill:#211E3A;}
	.st21{fill:#F07A6E;}
	.st22{fill:#C1272D;}
	.st23{fill:#262728;}
	.st24{fill:#222A4E;}
	.st25{fill:#DADEEA;}
	.st26{fill:#BABBBF;}
	.st27{fill:#CED0D8;}
	.st28{fill:#C80000;}
	.st29{fill:#362D56;}
	.st30{fill:#4E4575;}
	.st31{fill:#210812;}
	.st32{fill:#434580;}
	.st33{fill:#3B3F72;}
	.st34{fill:#2D3259;}
	.st35{fill:#C0C3CC;}
	.st36{fill:#333333;}
	.st37{fill:#603813;}
	.st38{fill:#3F220A;}
	.st39{fill:#161E3A;}
</style>
<g id="Layer_1_1_">
	<g>
		<rect class="st0" width="603.5" height="342.2"/>
		<path class="st1" d="M63.4,85.5H57v-5.3c0-0.7-0.7-1.2-1.5-1.2c-0.8,0-1.5,0.5-1.5,1.2v5.3h-6.5c-0.8,0-1.5,0.5-1.5,1.2
			s0.7,1.2,1.5,1.2H54v5.3c0,0.7,0.7,1.2,1.5,1.2c0.8,0,1.5-0.5,1.5-1.2v-5.3h6.5c0.8,0,1.5-0.5,1.5-1.2S64.2,85.5,63.4,85.5z"/>
		<path class="st1" d="M356.1,66.6h-6.5v-5.3c0-0.7-0.7-1.2-1.5-1.2c-0.8,0-1.5,0.5-1.5,1.2v5.3h-6.5c-0.8,0-1.5,0.5-1.5,1.2
			s0.7,1.2,1.5,1.2h6.5v5.3c0,0.7,0.7,1.2,1.5,1.2c0.8,0,1.5-0.5,1.5-1.2V69h6.5c0.8,0,1.5-0.5,1.5-1.2S356.9,66.6,356.1,66.6z"/>
		<path class="st1" d="M154.4,99h-4.9v-4c0-0.5-0.5-0.9-1.1-0.9c-0.6,0-1.1,0.4-1.1,0.9v4h-4.9c-0.6,0-1.1,0.4-1.1,0.9
			s0.5,0.9,1.1,0.9h4.9v4c0,0.5,0.5,0.9,1.1,0.9c0.6,0,1.1-0.4,1.1-0.9v-4h4.9c0.6,0,1.1-0.4,1.1-0.9S155,99,154.4,99z"/>
		<path class="st1" d="M245.2,37h-4.9v-4c0-0.5-0.5-0.9-1.1-0.9c-0.6,0-1.1,0.4-1.1,0.9v4h-4.9c-0.6,0-1.1,0.4-1.1,0.9
			s0.5,0.9,1.1,0.9h4.9v4c0,0.5,0.5,0.9,1.1,0.9c0.6,0,1.1-0.4,1.1-0.9v-4h4.9c0.6,0,1.1-0.4,1.1-0.9S245.8,37,245.2,37z"/>
		<path class="st1" d="M540.3,125.2h-4.9v-4c0-0.5-0.5-0.9-1.1-0.9s-1.1,0.4-1.1,0.9v4h-4.9c-0.6,0-1.1,0.4-1.1,0.9s0.5,0.9,1.1,0.9
			h4.9v4c0,0.5,0.5,0.9,1.1,0.9s1.1-0.4,1.1-0.9v-4h4.9c0.6,0,1.1-0.4,1.1-0.9S540.9,125.2,540.3,125.2z"/>
		<path class="st1" d="M250.2,145.9h-4.9v-4c0-0.5-0.5-0.9-1.1-0.9c-0.6,0-1.1,0.4-1.1,0.9v4h-4.9c-0.6,0-1.1,0.4-1.1,0.9
			s0.5,0.9,1.1,0.9h4.9v4c0,0.5,0.5,0.9,1.1,0.9c0.6,0,1.1-0.4,1.1-0.9v-4h4.9c0.6,0,1.1-0.4,1.1-0.9
			C251.3,146.3,250.8,145.9,250.2,145.9z"/>
		<path class="st1" d="M568.1,184.6h-4.9v-4c0-0.5-0.5-0.9-1.1-0.9c-0.6,0-1.1,0.4-1.1,0.9v4h-4.9c-0.6,0-1.1,0.4-1.1,0.9
			s0.5,0.9,1.1,0.9h4.9v4c0,0.5,0.5,0.9,1.1,0.9c0.6,0,1.1-0.4,1.1-0.9v-4h4.9c0.6,0,1.1-0.4,1.1-0.9
			C569.2,185,568.7,184.6,568.1,184.6z"/>
		<path class="st1" d="M232.5,232.4h-4.9v-4c0-0.5-0.5-0.9-1.1-0.9c-0.6,0-1.1,0.4-1.1,0.9v4h-4.9c-0.6,0-1.1,0.4-1.1,0.9
			s0.5,0.9,1.1,0.9h4.9v4c0,0.5,0.5,0.9,1.1,0.9c0.6,0,1.1-0.4,1.1-0.9v-4h4.9c0.6,0,1.1-0.4,1.1-0.9
			C233.6,232.8,233.1,232.4,232.5,232.4z"/>
		<rect y="342.3" class="st2" width="603.5" height="124.7"/>
		<path class="st1" d="M539.2,46.8h-4.9v-4c0-0.5-0.5-0.9-1.1-0.9s-1.1,0.4-1.1,0.9v4h-4.9c-0.6,0-1.1,0.4-1.1,0.9s0.5,0.9,1.1,0.9
			h4.9v4c0,0.5,0.5,0.9,1.1,0.9s1.1-0.4,1.1-0.9v-4h4.9c0.6,0,1.1-0.4,1.1-0.9C540.3,47.2,539.8,46.8,539.2,46.8z"/>
		<path class="st1" d="M46.1,200.8h-4.9v-4c0-0.5-0.5-0.9-1.1-0.9s-1.1,0.4-1.1,0.9v4h-4.9c-0.6,0-1.1,0.4-1.1,0.9s0.5,0.9,1.1,0.9
			H39v4c0,0.5,0.5,0.9,1.1,0.9s1.1-0.4,1.1-0.9v-4h4.9c0.6,0,1.1-0.4,1.1-0.9C47.2,201.2,46.7,200.8,46.1,200.8z"/>
	</g>
	<g>
		<g>
			<path class="st3" d="M366.5,204.5c6.3-13.6,0.4-29.8-13.2-36c-13.6-6.3-29.8-0.4-36,13.2c-3.9,8.4-3.1,17.7,1.2,25.1l-4.6,10
				c-1.4,3-0.1,6.5,2.9,7.9l17.3,8c3,1.4,6.5,0.1,7.9-2.9l4.6-10C355,218.2,362.5,212.8,366.5,204.5z"/>
			<path class="st4" d="M336.7,239.2l-26.8-12.4c-1.7-0.7-2.3-2.7-1.6-4.4l0,0c0.7-1.7,2.7-2.3,4.4-1.6l26.8,12.4
				c1.7,0.7,2.3,2.7,1.6,4.4l0,0C340.3,239.3,338.3,240,336.7,239.2z"/>
			<path class="st4" d="M332.6,244.6l-24.2-11.3c-1.6-0.7-2.3-2.6-1.5-4.1l0.1-0.3c0.7-1.6,2.6-2.3,4.1-1.5l24.2,11.2
				c1.5,0.7,2.3,2.6,1.5,4.1l-0.1,0.3C336,244.6,334.1,245.4,332.6,244.6z"/>
			<path class="st4" d="M327.4,249.4l-19.4-9c-1.7-0.7-2.3-2.7-1.6-4.4l0,0c0.7-1.7,2.7-2.3,4.4-1.6l19.4,9c1.7,0.7,2.3,2.7,1.6,4.4
				l0,0C331,249.5,329.1,250.2,327.4,249.4z"/>
			<path class="st5" d="M352.1,192.3c-2.3-4.4-6.5-0.2-9.2,3.5c-0.8-0.2-1.6-0.7-2.1-1.2c2.9-1.2,5.7-3.4,4.1-6
				c-1.6-2.5-4.1-1.2-5.8,0.9c0.5-1.6,0.7-3.3-0.1-4.9c-2.3-4.4-7.6-1.5-8.7,2.3c-0.9,3.2,0.6,6.3,3.2,7.8c-0.2,0.6-0.4,1.2-0.7,1.7
				c-3.4,8.2-7.1,16.4-11.1,24.4c-0.9,1.9,2,3.3,3,1.4c3.3-6.7,6.5-13.5,9.4-20.4c0.9-2,1.7-4.1,2.5-6.2l0,0c0.2,0,0.4,0,0.7-0.1
				c0.6,1.4,2,2.3,3.5,3c-0.2,0.3-0.4,0.6-0.5,0.8c-4.6,6.6-8.3,13.8-11.1,21.3c-0.7,2,2.3,3.3,3,1.4c3-8.1,7-15.6,12.1-22.6
				c0.6,0.1,1.2,0.1,1.7,0.1C349.4,199.4,354.1,196.2,352.1,192.3z M333.4,188.2c0.1-0.6,0.4-1.2,0.7-1.6c0.7-1.1,1.2-1,1.6,0.1
				c1,1.1,0.2,2.3-0.3,3.4c-0.2,0.6-0.4,1.1-0.7,1.7C333.7,190.9,333.1,189.6,333.4,188.2z M348,195.7c-0.4,0.3-0.9,0.4-1.5,0.5
				c0.7-1,1.5-1.9,2-2C350.1,194,348.4,195.4,348,195.7z"/>
			<circle class="st1" cx="355.3" cy="182.9" r="5.2"/>
		</g>
	</g>
	<g>
		<g>
			<path class="st3" d="M289.8,158.2c-5.7-13.9-21.5-20.5-35.4-14.8c-13.8,5.7-20.5,21.5-14.8,35.4c3.5,8.5,10.8,14.3,19.2,16.2
				l4.1,10.1c1.2,3.1,4.7,4.5,7.8,3.3l17.6-7.2c3.1-1.2,4.5-4.7,3.3-7.8l-4.1-10.1C292.1,176,293.3,166.7,289.8,158.2z"/>
			<path class="st4" d="M295.1,203.7l-27.4,11.3c-1.7,0.7-3.6-0.1-4.3-1.8l0,0c-0.7-1.7,0.1-3.6,1.8-4.3l27.4-11.2
				c1.7-0.7,3.6,0.1,4.3,1.8l0,0C297.6,201,296.8,203,295.1,203.7z"/>
			<path class="st4" d="M296.1,210.4l-24.4,10c-1.7,0.7-3.6-0.1-4.3-1.8l0,0c-0.7-1.7,0.1-3.6,1.8-4.3l24.4-10
				c1.7-0.7,3.6,0.1,4.3,1.8l0,0C298.6,207.8,297.8,209.7,296.1,210.4z"/>
			<path class="st4" d="M296.3,217.4l-19.8,8.1c-1.7,0.7-3.6-0.1-4.3-1.8l0,0c-0.7-1.7,0.1-3.6,1.8-4.3l19.8-8.1
				c1.7-0.7,3.6,0.1,4.3,1.8l0,0C298.8,214.8,298,216.8,296.3,217.4z"/>
			<path class="st5" d="M271.2,160.5c-4.9-1.4-4.5,4.6-3.7,9.2c-0.7,0.4-1.5,0.8-2.3,0.7c1.1-2.9,1.4-6.5-1.6-7.1
				c-3-0.6-3.6,2.2-3.3,4.9c-0.9-1.5-1.9-2.8-3.6-3.3c-4.8-1.3-6.3,4.7-4.2,7.9c1.7,2.8,5,3.9,7.9,2.9c0.3,0.6,0.5,1.1,0.8,1.7
				c3.7,8.1,7.2,16.3,10.3,24.7c0.7,2,3.8,0.7,3.1-1.2c-2.7-7-5.5-13.9-8.6-20.7c-0.9-2-1.8-4.1-2.8-6.1l0,0
				c0.1-0.1,0.3-0.4,0.4-0.6c1.4,0.4,3.1,0.1,4.5-0.5c0.1,0.4,0.1,0.7,0.2,0.9c1.7,7.9,4.4,15.4,8.1,22.6c0.9,1.9,4,0.7,3.1-1.2
				c-3.9-7.6-6.8-15.8-8.4-24.2c0.4-0.4,0.9-0.8,1.2-1.2C274.5,167.3,275.4,161.7,271.2,160.5z M255.4,171.4c-0.4-0.5-0.6-1-0.7-1.6
				c-0.3-1.2,0.1-1.6,1.1-1.1c1.5,0,1.8,1.4,2.3,2.5c0.3,0.5,0.5,1.1,0.8,1.6C257.6,173.1,256.2,172.6,255.4,171.4z M270.9,165.8
				c-0.1,0.5-0.3,0.9-0.6,1.4c-0.2-1.2-0.4-2.3-0.1-2.8C271,163.1,270.9,165.2,270.9,165.8z"/>
			<ellipse class="st1" cx="266.4" cy="151.7" rx="5.2" ry="5.2"/>
		</g>
	</g>
	<ellipse class="st6" cx="306.9" cy="355.2" rx="138.5" ry="21.8"/>
	<ellipse class="st6" cx="404.5" cy="372.8" rx="36.9" ry="13"/>
	<g>
		<g>
			<path class="st7" d="M417.2,293.7c0,0,8.3,0.7,9.8,7.5C426.9,301.2,419,304.2,417.2,293.7z"/>
			<path class="st7" d="M421.7,284.2c0,0,7.4,3.6,6.4,10.5C428.2,294.7,419.7,294.7,421.7,284.2z"/>
			<path class="st7" d="M437.4,293.7c0,0-8.3,0.7-9.8,7.5C427.7,301.2,435.6,304.2,437.4,293.7z"/>
		</g>
		<g>
			<path class="st7" d="M417.2,302.4c0,0,8.3,0.7,9.8,7.5C426.9,309.9,419,312.9,417.2,302.4z"/>
			<path class="st7" d="M437.4,302.4c0,0-8.3,0.7-9.8,7.5C427.7,309.9,435.6,312.9,437.4,302.4z"/>
		</g>
		<g>
			<path class="st7" d="M417.2,312.2c0,0,8.3,0.7,9.8,7.5C426.9,319.7,419,322.6,417.2,312.2z"/>
			<path class="st7" d="M437.4,312.2c0,0-8.3,0.7-9.8,7.5C427.7,319.7,435.6,322.6,437.4,312.2z"/>
		</g>
		<g>
			<path class="st7" d="M417.2,319.3c0,0,8.3,0.7,9.8,7.5C426.9,326.8,419,329.8,417.2,319.3z"/>
			<path class="st7" d="M437.4,319.3c0,0-8.3,0.7-9.8,7.5C427.7,326.8,435.6,329.8,437.4,319.3z"/>
		</g>
		<rect x="426.8" y="293.1" class="st7" width="1.2" height="35.9"/>
	</g>
	<g>
		<g>
			<path class="st8" d="M351.6,133.2c0.1-24.9-19.9-45.2-44.7-45.3c-24.9-0.1-45.2,19.9-45.3,44.7c-0.1,15.4,7.4,28.9,19.1,37.1
				l-0.1,18.2c-0.1,5.5,4.4,9.9,9.8,10l31.7,0.2c5.5,0.1,9.9-4.4,10-9.8l0.1-18.2C343.8,162,351.5,148.4,351.6,133.2z"/>
			<path class="st4" d="M330.6,206.3l-49.1-0.4c-3,0-5.5-2.5-5.5-5.5l0,0c0-3,2.5-5.5,5.5-5.5l49.1,0.4c3,0,5.5,2.5,5.5,5.5l0,0
				C336.1,203.9,333.7,206.3,330.6,206.3z"/>
			<path class="st4" d="M328.1,217.2l-44.2-0.3c-2.8,0-5.2-2.4-5.2-5.2v-0.5c0-2.8,2.4-5.2,5.2-5.2l44.2,0.3c2.8,0,5.2,2.4,5.2,5.2
				v0.5C333.3,214.9,331,217.2,328.1,217.2z"/>
			<path class="st4" d="M324.3,228l-36.8-0.2c-2.6,0-4.8-2.2-4.8-4.8v-1.3c0-2.6,2.2-4.8,4.8-4.8l36.9,0.2c2.6,0,4.8,2.2,4.8,4.8
				v1.3C329.1,225.9,327,228.1,324.3,228z"/>
			<path class="st5" d="M321.5,124.8c-6.5-5.2-9.9,4.1-11.6,11.6c-1.4,0.2-2.9,0.1-3.9-0.3c3.6-3.8,6.3-9.1,2.1-11.9s-7,1-8.2,5.4
				c-0.4-2.8-1.2-5.5-3.6-7.3c-6.5-5.1-12.6,3.1-11.5,9.5c0.9,5.5,5.2,9.2,10.3,9.5c0.1,1,0.1,2,0.1,3.1c0.5,14.8,0.6,29.6,0.1,44.4
				c-0.1,3.5,5.4,3.6,5.5,0.1c0.4-12.4,0.4-24.9,0.1-37.3c-0.1-3.7-0.2-7.4-0.4-11.1l0,0c0.3-0.1,0.7-0.3,1-0.6
				c1.8,1.6,4.5,2.2,7.3,2.1c-0.1,0.7-0.2,1.2-0.3,1.5c-2.4,13.2-3.1,26.6-2.1,39.9c0.3,3.5,5.7,3.6,5.5,0.1
				c-1-14.2-0.2-28.5,2.7-42.5c0.9-0.3,1.8-0.7,2.6-1C322.3,137.3,327.3,129.3,321.5,124.8z M290.4,131.4c-0.3-1-0.3-2-0.1-3
				c0.3-2.1,1.1-2.4,2.4-1c2.3,1,1.8,3.3,2,5.4c0.1,1,0.1,2,0.1,3C292.8,135.3,291,133.7,290.4,131.4z M317.7,132.7
				c-0.4,0.7-1.1,1.3-1.8,1.7c0.4-2,0.9-3.9,1.7-4.3C319.7,128.6,318.2,131.9,317.7,132.7z"/>
			
				<ellipse transform="matrix(0.3795 -0.9252 0.9252 0.3795 105.221 370.5695)" class="st1" cx="328.9" cy="106.8" rx="6.8" ry="6.8"/>
		</g>
	</g>
	<g>
		<g>
			<path class="st8" d="M400.3,198.7c6.3-13.6,0.4-29.8-13.2-36c-13.6-6.3-29.8-0.4-36,13.2c-3.9,8.4-3.1,17.7,1.2,25.1l-4.6,10
				c-1.4,3-0.1,6.5,2.9,7.9l17.3,8c3,1.4,6.5,0.1,7.9-2.9l4.6-10C388.8,212.5,396.4,207.1,400.3,198.7z"/>
			<path class="st4" d="M370.6,233.5l-26.8-12.4c-1.7-0.7-2.3-2.7-1.6-4.4l0,0c0.7-1.7,2.7-2.3,4.4-1.6l26.8,12.4
				c1.7,0.7,2.3,2.7,1.6,4.4l0,0C374.1,233.6,372.2,234.3,370.6,233.5z"/>
			<path class="st4" d="M366.4,238.9l-24.2-11.2c-1.5-0.7-2.3-2.6-1.5-4.1l0.1-0.3c0.7-1.6,2.6-2.3,4.1-1.5l24.2,11.2
				c1.6,0.7,2.3,2.6,1.5,4.1l-0.1,0.3C369.8,238.9,367.9,239.6,366.4,238.9z"/>
			<path class="st4" d="M361.2,243.7l-19.4-8.9c-1.7-0.7-2.3-2.7-1.6-4.4l0,0c0.7-1.7,2.7-2.3,4.4-1.6l19.4,9
				c1.7,0.7,2.3,2.7,1.6,4.4l0,0C364.9,243.8,362.9,244.5,361.2,243.7z"/>
			<path class="st5" d="M385.9,186.6c-2.3-4.4-6.5-0.2-9.2,3.5c-0.8-0.2-1.6-0.7-2.1-1.2c2.9-1.2,5.7-3.4,4.1-6
				c-1.6-2.5-4.1-1.2-5.8,0.9c0.5-1.6,0.7-3.3-0.1-4.9c-2.3-4.4-7.6-1.5-8.7,2.3c-0.9,3.2,0.6,6.3,3.2,7.8c-0.2,0.6-0.4,1.2-0.7,1.7
				c-3.4,8.2-7.1,16.4-11.1,24.4c-0.9,1.9,2,3.3,3,1.4c3.3-6.7,6.5-13.5,9.4-20.4c0.9-2,1.7-4.1,2.5-6.2l0,0c0.2,0,0.4,0,0.7-0.1
				c0.6,1.4,2,2.3,3.5,3c-0.2,0.3-0.4,0.6-0.5,0.8c-4.6,6.6-8.3,13.8-11.1,21.3c-0.7,2,2.3,3.3,3,1.4c3-8.1,7-15.6,12.1-22.6
				c0.6,0.1,1.2,0.1,1.7,0.1C383.2,193.6,387.9,190.5,385.9,186.6z M367.2,182.4c0.1-0.6,0.4-1.2,0.7-1.6c0.7-1.1,1.2-1,1.6,0.1
				c1,1.1,0.2,2.3-0.3,3.4c-0.2,0.6-0.4,1.1-0.7,1.7C367.5,185.2,366.9,183.9,367.2,182.4z M381.8,190c-0.4,0.3-0.9,0.4-1.5,0.5
				c0.7-1,1.5-1.9,2-2C383.9,188.2,382.3,189.6,381.8,190z"/>
			<circle class="st1" cx="389.2" cy="177.2" r="5.2"/>
		</g>
	</g>
	<g>
		<g>
			<path class="st8" d="M273.3,176.4c-6.4-13.5-22.6-19.4-36.1-13c-13.5,6.4-19.4,22.6-13,36.1c3.9,8.4,11.6,13.8,20,15.2l4.7,9.9
				c1.4,3,4.9,4.2,7.9,2.8l17.2-8.1c3-1.4,4.2-4.9,2.8-7.9l-4.7-9.9C276.5,194.1,277.2,184.7,273.3,176.4z"/>
			<path class="st4" d="M280.8,221.6l-26.8,12.6c-1.7,0.8-3.6,0.1-4.4-1.6l0,0c-0.8-1.7-0.1-3.6,1.6-4.4l26.8-12.6
				c1.7-0.8,3.6-0.1,4.4,1.6l0,0C283.2,218.8,282.5,220.8,280.8,221.6z"/>
			<path class="st4" d="M282.3,228.2l-24.1,11.3c-1.5,0.7-3.4,0.1-4.1-1.5l-0.1-0.3c-0.7-1.5-0.1-3.4,1.5-4.1l24.1-11.4
				c1.5-0.7,3.4-0.1,4.1,1.5l0.1,0.3C284.5,225.6,283.8,227.5,282.3,228.2z"/>
			<path class="st4" d="M283.1,235l-20.1,9.5c-1.5,0.7-3.2,0.1-3.9-1.4l-0.4-0.7c-0.7-1.5-0.1-3.2,1.4-3.9l20.1-9.5
				c1.5-0.7,3.2-0.1,3.9,1.4l0.4,0.7C285.1,232.6,284.5,234.4,283.1,235z"/>
			<path class="st5" d="M254.7,179.7c-4.9-1.1-4.3,4.9-3.3,9.3c-0.7,0.4-1.5,0.9-2.3,0.9c0.9-3,1-6.5-2-7c-3-0.4-3.6,2.4-3.1,5
				c-0.9-1.5-2-2.7-3.9-3.1c-4.9-1.1-6,4.9-3.8,8.1c1.9,2.7,5.2,3.6,8.1,2.5c0.3,0.6,0.6,1.1,0.9,1.7c4.1,7.9,8,15.9,11.6,24.1
				c0.9,2,3.9,0.5,3-1.4c-3.1-6.8-6.2-13.6-9.6-20.3c-1-2-2-3.9-3.1-6l0,0c0.1-0.1,0.3-0.4,0.4-0.6c1.5,0.4,3.1,0,4.5-0.7
				c0.1,0.4,0.2,0.7,0.3,0.9c2.1,7.8,5.2,15.2,9.2,22.2c1,1.8,4,0.4,3-1.4c-4.3-7.5-7.5-15.4-9.5-23.8c0.4-0.4,0.8-0.8,1.2-1.2
				C258.4,186.3,259,180.6,254.7,179.7z M239.5,191.3c-0.4-0.4-0.7-1-0.8-1.6c-0.4-1.2,0-1.6,1-1.2c1.5-0.1,1.8,1.3,2.5,2.4
				c0.3,0.5,0.6,1.1,0.9,1.6C241.8,192.9,240.5,192.5,239.5,191.3z M254.7,185c-0.1,0.5-0.3,1-0.5,1.5c-0.3-1.2-0.5-2.3-0.2-2.8
				C254.7,182.3,254.8,184.4,254.7,185z"/>
			<ellipse class="st1" cx="249.6" cy="171.1" rx="5.2" ry="5.2"/>
		</g>
	</g>
	<g>
		<g>
			<path class="st7" d="M145.9,294.4c0,0,10.9,1,13,10C158.8,304.4,148.4,308.4,145.9,294.4z"/>
			<path class="st7" d="M152,281.7c0,0,9.8,4.9,8.5,13.9C160.5,295.7,149.3,295.6,152,281.7z"/>
			<path class="st7" d="M172.8,294.4c0,0-10.9,1-13,10C159.8,304.4,170.3,308.4,172.8,294.4z"/>
		</g>
		<g>
			<path class="st7" d="M145.9,305.9c0,0,10.9,1,13,10C158.8,315.8,148.4,319.8,145.9,305.9z"/>
			<path class="st7" d="M172.8,305.9c0,0-10.9,1-13,10C159.8,315.8,170.3,319.8,172.8,305.9z"/>
		</g>
		<g>
			<path class="st7" d="M145.9,318.8c0,0,10.9,1,13,10C158.8,328.7,148.4,332.7,145.9,318.8z"/>
			<path class="st7" d="M172.8,318.8c0,0-10.9,1-13,10C159.8,328.7,170.3,332.7,172.8,318.8z"/>
		</g>
		<g>
			<path class="st7" d="M145.9,328.2c0,0,10.9,1,13,10C158.8,338.2,148.4,342.1,145.9,328.2z"/>
			<path class="st7" d="M172.8,328.2c0,0-10.9,1-13,10C159.8,338.2,170.3,342.1,172.8,328.2z"/>
		</g>
		<rect x="158.7" y="293.6" class="st7" width="1.6" height="47.6"/>
	</g>
	<g class="st9">
		<g>
			<path class="st7" d="M177.5,293.5c0,0,4,0.4,4.7,3.6C182.2,297.2,178.4,298.6,177.5,293.5z"/>
			<path class="st7" d="M179.7,288.9c0,0,3.6,1.7,3.1,5C182.8,294,178.8,294,179.7,288.9z"/>
			<path class="st7" d="M187.3,293.5c0,0-4,0.4-4.7,3.6C182.5,297.2,186.3,298.6,187.3,293.5z"/>
		</g>
		<g>
			<path class="st7" d="M177.5,297.7c0,0,4,0.4,4.7,3.6C182.2,301.3,178.4,302.8,177.5,297.7z"/>
			<path class="st7" d="M187.3,297.7c0,0-4,0.4-4.7,3.6C182.5,301.3,186.3,302.8,187.3,297.7z"/>
		</g>
		<g>
			<path class="st7" d="M177.5,302.4c0,0,4,0.4,4.7,3.6C182.2,306,178.4,307.4,177.5,302.4z"/>
			<path class="st7" d="M187.3,302.4c0,0-4,0.4-4.7,3.6C182.5,306,186.3,307.4,187.3,302.4z"/>
		</g>
		<g>
			<path class="st7" d="M177.5,305.8c0,0,4,0.4,4.7,3.6C182.2,309.5,178.4,310.9,177.5,305.8z"/>
			<path class="st7" d="M187.3,305.8c0,0-4,0.4-4.7,3.6C182.5,309.5,186.3,310.9,187.3,305.8z"/>
		</g>
		<rect x="182.1" y="293.2" class="st7" width="0.6" height="17.3"/>
	</g>
	<g class="st9">
		<g>
			<path class="st7" d="M449.1,290.1c0,0,4.8,0.4,5.7,4.4C454.8,294.5,450.2,296.2,449.1,290.1z"/>
			<path class="st7" d="M451.8,284.5c0,0,4.4,2.1,3.8,6.1C455.5,290.6,450.6,290.6,451.8,284.5z"/>
			<path class="st7" d="M461,290.1c0,0-4.8,0.4-5.7,4.4C455.2,294.5,459.9,296.2,461,290.1z"/>
		</g>
		<g>
			<path class="st7" d="M449.1,295.1c0,0,4.8,0.4,5.7,4.4C454.8,299.5,450.2,301.2,449.1,295.1z"/>
			<path class="st7" d="M461,295.1c0,0-4.8,0.4-5.7,4.4C455.2,299.5,459.9,301.2,461,295.1z"/>
		</g>
		<g>
			<path class="st7" d="M449.1,300.8c0,0,4.8,0.4,5.7,4.4C454.8,305.2,450.2,307,449.1,300.8z"/>
			<path class="st7" d="M461,300.8c0,0-4.8,0.4-5.7,4.4C455.2,305.2,459.9,307,461,300.8z"/>
		</g>
		<g>
			<path class="st7" d="M449.1,305c0,0,4.8,0.4,5.7,4.4C454.8,309.4,450.2,311.1,449.1,305z"/>
			<path class="st7" d="M461,305c0,0-4.8,0.4-5.7,4.4C455.2,309.4,459.9,311.1,461,305z"/>
		</g>
		<rect x="454.8" y="289.8" class="st7" width="0.7" height="21"/>
	</g>
	<g>
		<polygon class="st10" points="246.5,205 212.9,205 169,263.3 205.7,263.3 		"/>
		<polygon class="st10" points="366.2,205 399.9,205 443.8,263.3 406.9,263.3 		"/>
		<rect x="212.1" y="204.9" class="st7" width="187.5" height="152.2"/>
		<path class="st11" d="M373.3,322.3c-4.3,0.4-8.6,0.7-12.9,0.7c-8.2,0.1-16.4-0.3-24.6-0.7c-16.3-0.9-32.4-3.5-48.5-5.7
			c-7.3-1-14.5-2.3-21.5-4.1c-7.1-1.7-14-3.8-20.9-6.3c-1.7-0.7-3.3-1.3-5-2c-9.3-3.9-18.6-7.6-27.8-11.7v64.5h187.5V319
			C390.8,320.2,382,321.5,373.3,322.3z"/>
	</g>
	<g>
		<path class="st1" d="M240.2,238.4h10.6v41.5h-10.6V238.4z"/>
		<path class="st1" d="M256,238.4h14.9c4.6,0,8.5,0.8,11.9,2.5c3.4,1.7,6,4.1,7.9,7.1c1.8,3.1,2.8,6.8,2.8,10.9c0,6.9-2,12.2-6,15.6
			c-4.1,3.6-9.7,5.3-16.8,5.3H256V238.4z M271.5,271c3.6,0,6.4-1.1,8.3-3.3c1.9-2.2,2.9-5.2,2.9-8.9c0-3.4-0.9-6.2-2.9-8.4
			c-1.9-2.2-4.6-3.3-7.9-3.3h-5.4V271H271.5L271.5,271z"/>
		<path class="st1" d="M297.7,238.4h29.5v8.9h-19v7.8H322v8.3h-13.8v7.8h19v8.9h-29.5V238.4z"/>
		<path class="st1" d="M346.8,238.4h10.3l16.6,41.5H363l-3.3-8.6h-15.4l-3.3,8.6h-10.8L346.8,238.4z M357.1,263.3l-5-14l-5.1,14
			H357.1z"/>
	</g>
	<g>
		<polygon class="st12" points="160,371.2 156.1,371.2 206.7,200.8 210.5,200.8 		"/>
		<polygon class="st12" points="197.3,371.2 193.5,371.2 244,200.8 247.9,200.8 		"/>
		<polygon class="st12" points="245.1,209.3 204.8,209.3 205.7,206.4 246.1,206.4 		"/>
		<polygon class="st12" points="239.2,229.2 198.9,229.2 199.8,226.2 240.1,226.2 		"/>
		<polygon class="st12" points="233.3,249.1 193,249.1 193.9,246.2 234.2,246.2 		"/>
		<polygon class="st12" points="227.4,269 187,269 188,266 228.3,266 		"/>
		<polygon class="st12" points="221.5,288.9 181.2,288.9 182,286 222.4,286 		"/>
		<polygon class="st12" points="215.6,308.8 175.3,308.8 176.1,305.8 216.5,305.8 		"/>
		<polygon class="st12" points="209.7,328.7 169.4,328.7 170.2,325.8 210.6,325.8 		"/>
		<polygon class="st12" points="203.8,348.6 163.5,348.6 164.3,345.6 204.7,345.6 		"/>
	</g>
	<g>
		<path class="st13" d="M217.5,161c0,0-2.7,7.3-3.8,8.9c-1.1,1.5-4.1,2.6-4.1,2.6s5.3,8.1,8.7,7.6c3.4-0.5,4.7-0.9,4.7-0.9
			s-2-1.2-1.9-2.5s4.6-12,4.6-12L217.5,161z"/>
		<path class="st14" d="M227.4,157.8c0,0,1.1,5.2,1.2,7.1c0.1,1.9-2.9,5.8-3.7,6.6c-0.8,0.8-2.3,0.9-2.3,0.9s-5.5-1.8-6.5-2.9
			c-1-1.1-3.7-6.2-3.7-6.2s-3.3-6.7-2.5-8.8c0.7-2.2,3.3-7,7.9-7.2s6.2-0.1,7.5,3.3C225.7,152.2,227.4,157.8,227.4,157.8z"/>
		<path class="st15" d="M225.5,155.4l-3.4,1.1c0,0-0.4-0.1-0.3-0.6c0.1-0.4,2.3-1.5,2.9-1.3C225.2,154.7,225.6,155.1,225.5,155.4z"
			/>
		<path class="st15" d="M213.7,159.1l3.9-1.2c0,0,0.3-0.3-0.1-0.7c-0.4-0.4-3.1,0.1-3.6,0.7S213.5,159,213.7,159.1z"/>
		
			<ellipse transform="matrix(0.9548 -0.2972 0.2972 0.9548 -36.7245 74.1157)" class="st16" cx="225.4" cy="157.8" rx="0.8" ry="1.2"/>
		<g>
			<rect x="253.6" y="202.9" class="st13" width="7.5" height="1.9"/>
			<path class="st14" d="M247.6,200.5c0,0,2.1,0.8,3.6,0.8s8.8,0.5,9.2,0.8c0.5,0.3,3.5,3.3,3.5,3.3s0.1,0.5-0.8,0.5
				c-0.9,0-2.5-1.3-2.5-1.3l-2.7-0.9l-3.3,0.3l3.2,4.8c0,0-0.1,0.9-1.3,0.7l-2.7-2.3c0,0-1.5-0.8-2.8-1.3s-4-1.1-4-2.1L247.6,200.5z
				"/>
			<path class="st17" d="M224.1,179.2l5.7,12.7l19.4,8.8c0,0,0.7,2.8-2.5,6l-21.1-7.1c0,0-1.7-1.7-3.3-4.1l-3.2-7.6L224.1,179.2z"/>
		</g>
		<path class="st18" d="M206.8,276.8c0,0,7.1,5.5,10,5.3c0,0,3.1,1.2,2.3,3.1c-0.8,1.8-3,2.5-4.5,2.8c-1.5,0.1-7.9-3-7.9-3l-0.6-0.7
			l0,0c-0.1,0.5-0.7,0.8-1.1,0.7l-2.8-1c-0.6-0.2-0.9-0.8-0.8-1.4l0.9-5.7L206.8,276.8z"/>
		<g>
			<path class="st19" d="M207.3,277.9c0.6,0.2,1.2,0.2,1.8,0.3c0.7,0.1,2.2,0.2,2.5,0.9c0.1,0.3,0,0.2-0.3,0.2c-0.2,0-0.4,0-0.6-0.1
				c-0.4-0.1-0.9-0.2-1.2-0.4c-0.6-0.4-0.9-0.9-1.5-1.2c-0.2-0.1-0.4,0.1-0.4,0.4c0.2,0.4,0.4,0.8,0.5,1.3c0.1,0.3,0.1,0.6,0.1,0.9
				c0,0.2,0.1,0.7-0.1,0.5c-0.3-0.3-0.4-1-0.5-1.4c-0.1-0.5-0.1-1.1-0.2-1.6c0-0.3-0.5-0.3-0.5,0c0,0.9,0.1,1.8,0.5,2.7
				c0.1,0.4,0.3,1.1,0.8,1c0.5,0,0.4-0.9,0.4-1.2c0-0.9-0.3-1.7-0.7-2.4c-0.1,0.1-0.2,0.2-0.4,0.4c0.5,0.2,0.8,0.7,1.2,0.9
				s0.9,0.5,1.5,0.7c0.5,0.1,1.7,0.4,2-0.1c0.2-0.7-0.9-1.2-1.4-1.4c-1.2-0.4-2.4-0.4-3.5-0.7C207.1,277.4,207,277.8,207.3,277.9
				L207.3,277.9z"/>
		</g>
		<path class="st16" d="M217.5,160.4c0.2,0.6,0.7,1,1.2,0.9c0.4-0.1,0.7-0.7,0.4-1.4c-0.2-0.6-0.7-1-1.2-0.9
			C217.5,159.1,217.2,159.7,217.5,160.4z"/>
		<g>
			<path class="st18" d="M189.8,278.1c0,0,6.4,5,9,4.8c0,0,2.8,1.2,2,2.8c-0.7,1.7-2.7,2.3-4.1,2.5c-1.4,0.1-7.1-2.7-7.1-2.7
				l-0.6-0.7l0,0c-0.1,0.4-0.6,0.7-1,0.6l-2.5-0.9c-0.5-0.2-0.8-0.7-0.7-1.2l0.9-5.2L189.8,278.1z"/>
			<g>
				<path class="st19" d="M190.2,279.1c0.6,0.2,1.2,0.2,1.8,0.3c0.5,0.1,1.7,0.2,2,0.7c0.2,0.1,0.1,0.2-0.1,0.1
					c-0.2,0-0.4,0-0.7-0.1c-0.4-0.1-0.7-0.1-1-0.4c-0.5-0.3-0.9-0.8-1.5-1.1c-0.2-0.1-0.4,0.1-0.4,0.4c0.2,0.4,0.4,0.7,0.5,1.2
					c0.1,0.2,0.1,0.5,0.1,0.7c0,0.2,0.1,0.7-0.1,0.5c-0.5-0.6-0.6-2-0.6-2.7c0-0.3-0.5-0.3-0.5,0c0,0.9,0.1,1.7,0.5,2.5
					c0.1,0.3,0.3,0.9,0.7,0.9c0.4,0,0.4-0.7,0.4-1c0-0.8-0.2-1.5-0.7-2.3c-0.1,0.1-0.2,0.2-0.4,0.4c0.5,0.2,0.8,0.7,1.2,0.9
					c0.4,0.3,0.9,0.4,1.3,0.5c0.4,0.1,1.5,0.4,1.7-0.2c0.2-0.6-0.7-1-1.2-1.2c-1.1-0.4-2.3-0.4-3.3-0.7
					C190.1,278.5,190,279,190.2,279.1L190.2,279.1z"/>
			</g>
			<path class="st20" d="M193,224.8l4.3,17.4c0,0,0,2.4,0,3.9s-11.9,32.7-11.9,32.7s4.3,3.3,7.3,2.4c0,0,13-24.7,13.5-27.4
				c0.7-2.7,2.5-9.1,2.1-12.7c-0.5-3.6-1.1-15.5-1.1-15.5L193,224.8z"/>
		</g>
		<g>
			<path class="st21" d="M222.8,163.7c0.4-0.2,0.9-0.5,0.9-0.9c0.1-0.3-0.1-0.6-0.7-0.9c-0.9-0.5-1.5-4.4-1.6-5.8l-0.4,0.1
				c0,0,0.1,1.3,0.4,2.7c0.4,1.9,0.8,3,1.3,3.3c0.4,0.2,0.6,0.4,0.6,0.7c0,0.2-0.3,0.4-0.7,0.7L222.8,163.7z"/>
		</g>
		<path class="st22" d="M225.1,165l-6,1.7c0,0-0.6,0.4,0.7,1.2c1.3,0.8,4.6-0.5,4.6-0.5S225.7,166.2,225.1,165z"/>
		<path class="st1" d="M225.1,164.9l-5.9,1.7c0,0-0.6,0.3,0.5,0.4c1.1,0.1,4.4-1,4.4-1S225.4,165.3,225.1,164.9z"/>
		<g>
			<path class="st17" d="M208.7,226.7c0,0,12.6,13,13.8,15.6c1.1,2.7-13.1,34.3-13.8,35.6s-8.1,1.2-6.5-2.7
				c0.3-0.8,6.5-30.9,6.5-30.9s-13.9-11.4-16.9-14.3c-4.8-4.7-5.2-7.7-2.4-10.6c0.7-0.7,5.5-5.9,5.5-5.9l17.7,5.9L208.7,226.7z"/>
			<g>
				<path class="st23" d="M211.3,212c0,0,0,2.5-2.8,4.1s-7,2.3-9.2,1.8c-2.2-0.5-8.5-3.6-8.8-5.5l0.1,0.1L211.3,212z"/>
				
					<rect x="196.1" y="215.8" transform="matrix(0.2234 -0.9747 0.9747 0.2234 -57.3117 360.635)" class="st24" width="3.1" height="1"/>
				
					<rect x="206.6" y="213.9" transform="matrix(0.9124 -0.4092 0.4092 0.9124 -70.0462 103.6392)" class="st24" width="1" height="3.1"/>
				
					<rect x="192.9" y="214.6" transform="matrix(0.4314 -0.9022 0.9022 0.4314 -83.4708 297.7434)" class="st24" width="3.1" height="1"/>
				
					<rect x="209.8" y="212.4" transform="matrix(0.733 -0.6802 0.6802 0.733 -89.3796 200.1862)" class="st24" width="1" height="3.1"/>
				<path class="st25" d="M222.3,177.3l-4.9,2.7l-5.5-7.6l-11.4,0.9c0,0-2,16.7-3.1,19.9c-0.7,2-2.5,6.5-3.9,9.6
					c-0.9,2.1-0.4,4.7,1.4,6.2c2.3,1.9,5.3,4.3,7.9,5c2,0.7,4.4,1,6.4,1.2c2.3,0.2,4.6-0.9,5.6-3.1c2.8-5.7,8.2-17,9.2-21.4
					c1.2-6,0.4-11,0.4-11L222.3,177.3z"/>
				<polygon class="st26" points="217.5,180 220.5,179.9 222.1,181.8 221.3,177.9 				"/>
				<polygon class="st25" points="216.7,180.2 217.2,177.3 213.7,169.8 209.8,172.5 212.8,180.1 				"/>
				<path class="st25" d="M221.8,174.3l0.9,1.8c0.1,1.7-0.7,5.7-0.7,5.7l-0.9-3.1l-3.3,1.2C217.8,179.9,221.5,177.9,221.8,174.3z"/>
				<polygon class="st26" points="213,178.6 217.2,177.4 217.3,179.9 215.9,178.6 				"/>
				<g>
					<path class="st27" d="M202.6,218.4l1.7-0.2c0.8-0.1,1.3-0.8,1.2-1.5l0,0c-0.1-0.8-0.8-1.3-1.5-1.2l-1.7,0.2
						c-0.8,0.1-1.3,0.8-1.2,1.5l0,0C201.2,218,201.9,218.5,202.6,218.4z"/>
					<path class="st23" d="M202.6,218.1l1.7-0.2c0.7-0.1,1.1-0.7,1-1.3l0,0c-0.1-0.7-0.7-1.1-1.3-1l-1.7,0.2c-0.7,0.1-1.1,0.7-1,1.3
						l0,0C201.5,217.8,202,218.2,202.6,218.1z"/>
				</g>
				<path class="st28" d="M220.7,179.1c0,0-2.3,0.1-3.3-1.7l-1.9,0.6l0.5,3.4l-4,8.1l1.2,6.3c0,0,2.9-2.8,3.1-3.1
					c0.1-0.4,2.2-10.4,2.2-10.4l2.2-2.1L220.7,179.1z"/>
				<path class="st29" d="M209.5,172.5c0,0,4.7,18.3,4.1,21c0,0,7.1-9.8,9.1-14.3c0.2-0.4,0.1-1,0.4-1.2l1.5,1.9c0,0,2.3,5.5-3,18.3
					c-4,9.8-7.4,14.6-7.3,17.2c0.4,6.8-0.8,13-0.8,13s-4,7-6.4-9.6c-3.8,4.7-12.2,5.3-14.8,4.7c-7.6-1.8-5.9-5.2-5.9-5.2l6.5-13.5
					c0,0,4.9-13.8,5.1-17.2c0.1-1.7,0.2-4.9,0.7-7.9c0.6-3.9,3.9-6.9,7.9-7L209.5,172.5z"/>
			</g>
			<g>
				<path class="st30" d="M207.1,218.7c5.7-9.2,5.9-17.8,5.8-19.6c-0.2-5-7-13.4-8-14.6l5.2-0.1l-4.5-4.3l2.2-7.1l-0.1-0.1l-2.2,7.3
					l4.3,4l-5.2,0.1l0.1,0.1c0.1,0.1,7.8,9.3,8.1,14.6C212.7,200.9,212.7,209.6,207.1,218.7L207.1,218.7z"/>
			</g>
			<g>
				<path class="st30" d="M212.9,199.2c2.5-4,5-6.4,6.6-7.7c1.7-1.5,2.9-1.9,2.9-1.9l0.1-0.1l-3.3-2.4l4.1-0.5l0.7-7.3h-0.2
					l-0.7,7.2l-4.4,0.6l3.4,2.5c-0.4,0.1-1.4,0.7-2.8,1.9c-1.6,1.3-4.1,3.7-6.7,7.7H212.9z"/>
			</g>
		</g>
		<path class="st15" d="M212.1,161.1c0,0-1-3.9,0-4.9l-0.8-4.1c0,0,5.7,1.2,8.6,0.9c2.9-0.2,5.8-0.9,5.8-0.9l1.4,4.5l-0.4-5.2
			c0,0,0.4-3.3-0.1-4.4c-0.5-1.1-2-5-9.4-3c-7.4,2-12.2,3.3-13,6.8c-0.8,3.5-0.4,7.1,0.6,8.4c1,1.2,2.5,5.5,8.8,8.7
			c0.1,0,2,1.3,2,1.3L212.1,161.1z"/>
		<path class="st14" d="M212.1,161.5c0,0-1.1-1.5-2.3-0.3c-1.2,1.2-0.1,3.6,0.9,4.1c1,0.6,3,1.7,3.3,1.5c0.3-0.3,0.4-0.9,0.4-0.9
			L212.1,161.5z"/>
		<path class="st14" d="M233.2,176.1l1.5-1.5c0,0-0.7-1.8-0.7-2.9c0-1.2,2.8-5.2,3.6-5.6c0.8-0.4,1.5-0.2,1.2,0.9
			c0,0,1.5,0.1,1.2,1.1c0,0,1.3-0.9,1.1,0.8c0,0,1.1-0.8,0.8,1.3c0,0-1.7,2.5-2,3.8c-0.3,1.3,0.2,2.2,0.2,2.2s-0.2,1.8-0.7,2
			c-0.5,0.2-2,0.3-2,0.3l-1.8,0.9L233.2,176.1z"/>
		<path class="st12" d="M202.4,183.4c0,0,17.8,7.9,21,7.2c3.1-0.7,4.3,0.3,10-5.2c5.4-5.2,5.5-6.9,5.5-6.9l-4.6-3.7
			c0,0-7.7,7.9-9.4,8.6c-1.7,0.7-3.1,0.4-4.5-0.4c-1.5-0.7-14.2-9-14.2-9S195.8,174.6,202.4,183.4z"/>
	</g>
	<g>
		<path class="st31" d="M391.3,248.1c0,0,1-1.9,3.9-1.5c0.1,0,0.2,0,0.4,0.1c3.1,0.6-3.7-17.4-3.7-17.4S387.4,243.5,391.3,248.1z"/>
		<path class="st13" d="M403.7,240.6c0,0-1.5,8.5-0.9,10.4c0.5,1.9,4.2,3.5,4.2,3.5s-8.1,5.7-11.1,4c-3.1-1.7-2.8-0.9-2.8-0.9
			s3.2-2,3.6-3.3c0.4-1.4,0.1-13.2,0.1-13.2L403.7,240.6z"/>
		<path class="st14" d="M391.3,235.8c0,0-0.9,5.5-0.8,7.3c0,2,3.3,5.7,4.1,6.5c0.9,0.7,2.5,0.8,2.5,0.8s5.5-2.1,6.5-3.3
			c1-1.2,3.4-6.5,3.4-6.5s2.2-6.8,2.2-9.2c-0.1-4.7-3.7-6.9-8.4-6.9c-4.8,0-6.3,0.2-7.5,3.7C392.7,229.9,391.3,235.8,391.3,235.8z"
			/>
		<path class="st15" d="M392.2,232l2.5,2.6c0,0,0.3,0.1,0.3-0.1c0-0.3-1.7-2.1-2.1-2.4C392.5,231.8,392.2,231.8,392.2,232z"/>
		<path class="st15" d="M404.1,233.2l-4,1c0,0-0.4,0-0.2-0.3c0.1-0.2,2.9-1.1,3.5-1.1C404,232.8,404.3,233.1,404.1,233.2z"/>
		<path class="st32" d="M394.6,363.4c0,0-3.3,5.1-5.8,6.6c-0.7,0.4-1.3,1.2-1.4,2.1c-0.1,0.7,0,1.3,0.4,1.8c1.2,1.3,2.3,0.9,3.6,0.6
			c1.3-0.3,5.6-4.6,5.6-4.6l0.3-0.7l1.2-2.3c0.4-0.6,0.4-1.3,0.3-2l-0.4-2L394.6,363.4z"/>
		<path class="st14" d="M394.5,362.8c0,0-2.8,5.2-5.1,6.7c-0.7,0.4-1.2,1.2-1.2,2.1c-0.1,0.7,0.1,1.5,0.5,2c1.2,1.3,1.6,0.4,2.6,0.3
			c1.3-0.2,5.6-4.6,5.6-4.6l0.3-0.7l1.2-2.3c0.4-0.6,0.4-1.3,0.3-2l-0.4-2L394.5,362.8z"/>
		<path class="st32" d="M410,366.8l-0.5,3.9l0.9,2.4l0.3,0.1c0,0,0.6,5.5,0.7,5.8s0.1,1,1,1.7c0.9,0.7,2.7,0.8,4.1-0.7
			c1.4-1.4,1.5-2.8,1.5-2.8s-3.6-8.3-3.8-9.2c-0.1-0.9-0.7-2.8-0.7-2.8L410,366.8z"/>
		<path class="st14" d="M409,365.6l0.8,2.6c0.1,1.9-0.1,2.9,0.9,4.5l0,0l0.3,0.1c0,0,0.6,5.5,0.7,5.8s0.1,1,1,1.7
			c0.9,0.7,2.5,0,4-1.4c1.4-1.4,0.7-3.3,0.7-3.3s-3-6.6-3.1-7.5c-0.1-0.9-0.4-3.3-0.4-3.3L409,365.6z"/>
		<g>
			<path class="st21" d="M396,242.2c-0.4-0.2-0.9-0.4-1-0.9c-0.1-0.3,0.1-0.7,0.7-0.9c0.9-0.6,1.2-4.6,1.3-6l0.4,0.1
				c0,0-0.1,1.4-0.3,2.8c-0.3,2-0.7,3.1-1.2,3.4c-0.4,0.3-0.6,0.5-0.5,0.7s0.3,0.4,0.8,0.6L396,242.2z"/>
		</g>
		<path class="st33" d="M387,292.8c0,0-3,10-2.9,16.3c0,1.5,8.1,30,8.9,53.2c0,0.8,0.7,1.4,1.5,1.5l2,0.1c1.3,0.1,2.5-0.8,2.3-2.2
			l1.1-27.7l-2.3-22.6l7.9,27.9l2.4,27.1c0,0,5.2,2.3,6.7-0.7c0.4-0.7-0.8-13.3-0.8-27c0-6,4.5-29.5,3.9-32.2
			c-1.2-5.3-10.9-16-10.9-16L387,292.8z"/>
		<path class="st34" d="M399.6,341.6c-2.6,1.3-5.5,2.1-8.4,2.5c0.9,6,1.5,12.3,1.7,18.2c0,0.8,0.7,1.4,1.5,1.5l2,0.1
			c1.3,0.1,2.5-0.8,2.3-2.2L399.6,341.6z"/>
		<path class="st34" d="M414.6,330.2c-1,1.5-2.2,2.8-3.6,4c-1.7,1.9-3.6,3.4-5.7,4.7l0.1,0.3l2.4,27.1c0,0,5.2,2.3,6.7-0.7
			c0.4-0.7-0.8-13.3-0.8-27C413.8,336.9,414.1,333.8,414.6,330.2z"/>
		<path class="st14" d="M411.2,296.1l-3.6,2.3c0,0-1.5,0.9-0.9,3.8c0.7,2.9,4.9,5.3,4.9,5.3l1-7.7l0.9-1.5L411.2,296.1z"/>
		<path class="st25" d="M394.1,256.1l2.3-1.5c-0.1,4.3,2.5,4.9,4.6,2.8l3.1-4.7l6,4.1c0,0-5,23.7-5.2,27.1c-0.1,2.1,4.5,7.1,2.3,7.8
			c-2.8,0.9-6.7,0.9-9.4,0.7c-2.2-0.1-5.4,0-7.3-0.5c-2.3-0.7,0.2-7.4,0.4-11.9c0.2-6.3-1.1-9.9-1.1-9.9L394.1,256.1z"/>
		<path class="st35" d="M405.8,283.8c0.1-1.5,2.2-7.5,2.8-13c-3.9,1.9-8.1,2.8-12.5,2.6c-1.8,0-3.6-0.1-5.4-0.4
			c-0.1,2.4-0.5,4.7-0.2,6.2c0.9,4.3-2.3,12,0,12.7c2,0.5,5.1,0.4,7.3,0.5c2.7,0.2,6.5,0.3,9.4-0.7
			C409.5,291,405.7,285.9,405.8,283.8z"/>
		<g>
			<path class="st13" d="M386.2,259.5c0,0,0-2.3,0-3.1c0-1.5,1.1-4.4,0.5-6.3c-0.6-1.7-3-1.4-3-1.4s-1-2.7-2-2.5
				c-1,0.2-3.1,3.6-3.1,3.6s-1.2,2.5,0.5,4.9c1.7,2.3,2.7,2.7,2.7,2.7l-0.2,3.8L386.2,259.5z"/>
			<g>
				<path class="st36" d="M379.3,257.9L379.3,257.9c-0.9-0.4-1.5-1-1.3-1.4l5.5-11.8l3.3,1.5l-5.5,11.8
					C381.1,258.4,380.2,258.4,379.3,257.9z"/>
			</g>
			<path class="st14" d="M381.7,246.2c0,0,1.7,0.3,2.5,0.9c0.8,0.7,0.7,2.6,0.7,2.6l-2.3,5.2c0,0-1.2,0.6-1.5-0.6
				c-0.1-0.4,0.2-1.7-1.4-1.2c-1.1,0.4-1.1,0.9-1.1,0.9s-1.7-2.6-0.7-4.2C379.3,248.4,381.7,246.2,381.7,246.2z"/>
			<path class="st14" d="M383.8,252.6L383.8,252.6c0.5,0.3,1.2,0.1,1.4-0.4l0.9-1.8c0.3-0.5,0.1-1.2-0.4-1.4l0,0
				c-0.5-0.3-1.2-0.1-1.4,0.4l-0.9,1.8C383.1,251.7,383.3,252.3,383.8,252.6z"/>
		</g>
		<path class="st33" d="M391.9,256.4l-4.4,14.4l-1.3-14.1c0,0-3.7,0.4-5.9,2.4l1.4,15.9c0,0,0.4,2.1,1.4,2.9
			c0.1,0.1,0.4,0.2,0.7,0.3c2.2,0.6,4.5-0.7,5.3-2.7l0.7-1.7L391.9,256.4z"/>
		<g>
			
				<ellipse transform="matrix(0.2473 -0.9689 0.9689 0.2473 71.3064 566.4411)" class="st15" cx="400.2" cy="237.3" rx="1.2" ry="0.9"/>
			<path class="st15" d="M401.1,237.3c0,0,0.4,0.3,1.2-0.2c0,0-0.7,1.5-2.3,1L401.1,237.3z"/>
		</g>
		<g>
			<path class="st15" d="M392.8,236.3c-0.1,0.7,0.3,1.2,0.7,1.2c0.4,0.1,0.9-0.4,0.9-1.1c0.1-0.7-0.3-1.2-0.7-1.2
				C393.3,235.1,392.8,235.6,392.8,236.3z"/>
			<path class="st15" d="M392.8,236c0,0-0.5,0.1-1.1-0.6c0,0,0.1,1.7,1.8,1.7L392.8,236z"/>
		</g>
		<path class="st37" d="M393.2,231c0,0-4.8,8.7-1.9,17.1c0,0-4.5-4.6-3.1-13.3c1.4-8.7,4.7-12.7,6.6-14.3c2.2-1.8,5.6-2.3,7.3-2.1
			c7.8,0.7,8.1,5.1,8.1,5.1s4.1,0.4,4.2,5.7c0.1,3.6-2.6,14.3-5.5,17.6c-2.2,2.5-5.9,2.8-7.6,3.5c0,0,7.3-10,7-15.9
			c0,0,0-1.5-0.7-2.5c-1.9-2.4-0.4-4.9-0.4-4.9C399.7,232.8,394.1,229.6,393.2,231z"/>
		<path class="st38" d="M414.3,229.1c-0.1-3.2-1.6-4.6-2.8-5.2c-1.4,2-3.1,3.7-4.9,5.2c0,0.8,0.2,1.8,0.9,2.8
			c0.7,0.9,0.7,2.5,0.7,2.5c0.3,5.9-7,15.9-7,15.9c1.7-0.7,5.7-0.9,7.5-2.6C411.8,244.5,414.4,232.6,414.3,229.1z"/>
		<path class="st38" d="M391.4,235.2c-1.1,0.3-2.3,0.4-3.3,0.6c-0.8,8,3.3,12.2,3.3,12.2C389.6,243.3,390.4,238.6,391.4,235.2z"/>
		<path class="st14" d="M409.6,238.1c0,0,1-1.6,2.3-0.4c1.3,1.2,0.3,3.6-0.7,4.2c-1,0.6-3,1.9-3.3,1.7c-0.3-0.2-0.5-0.8-0.5-0.8
			L409.6,238.1z"/>
		<path class="st1" d="M409.6,243.8c-0.1,0.6-0.7,0.9-1.4,0.8c-0.7-0.1-0.9-0.7-0.8-1.4c0.1-0.6,0.7-0.9,1.4-0.8
			C409.3,242.6,409.7,243.2,409.6,243.8z"/>
		<path class="st32" d="M404.4,252.9c0,0-11,14.4-11.9,35c0,0,1.2,3.9,2.3,6.4c1.2,2.5,4.5,13.5,7.9,16.5c3.4,3,15.1-4.3,15.1-4.3
			s-0.4-10.6-11.1-22.5c0,0,7.8-17.6,7.6-21.8C414,258.1,410,254.2,404.4,252.9z"/>
		<path class="st32" d="M396.5,254.6c0,0-6.6,13.5-5.7,19.3c0.9,5.8,1.9,12.2,1.7,14.7c-0.2,2.5-4.7,18.8-6.2,20.2
			c-1.5,1.3-2.5,0.3-2.5,0.3s1.1-15.9,6.5-25.8c0,0,0.2-5.8-0.4-7.7c-0.6-1.9-4.4-3.4-4.1-6.3c0.2-2.8,4.9-7.3,5.4-10.4
			C392.1,254.3,394.1,256.5,396.5,254.6z"/>
		<polygon class="st32" points="398.9,365.9 398.9,368.6 397.7,369.6 397.3,368.8 		"/>
		<path class="st32" d="M388.5,370.1c0,0-2.6,5.5,3.1,4.1l2.3-2c0,0-0.2-2.6-3.1-3.9L388.5,370.1z"/>
		<path class="st32" d="M411.5,378.4c0,0,0.7,3.4,2.4,2.6c5.2-2.3,3.4-5.1,3.4-5.1l-0.9-2.3c0,0-2-1.1-3.1-0.3c-1.1,0.8-2.2,2-2.2,2
			L411.5,378.4z"/>
		<path class="st33" d="M406.9,253.5c0,0-2.9,7.2-3.3,11l-4.9,2.5l3.1,3.4c0,0-7.9,9.9-8.8,14.9c0,0,5-11.5,10.5-14.8l-3.1-3.4
			l4.1-2.2C404.6,265.1,405,259.6,406.9,253.5z"/>
		<path class="st33" d="M395.1,255.4l-3.8,6.2l0.7,2.8l-2.6,1.7c0,0,2.5,15.1,2.8,16.2l-3.7-16.4l2.7-1.6l-0.4-2.9L395.1,255.4z"/>
		
			<rect x="404.4" y="297.3" transform="matrix(0.9023 -0.4312 0.4312 0.9023 -88.4732 205.548)" class="st33" width="9.5" height="1.2"/>
		<path class="st22" d="M400.2,243.4l-6-0.1c0,0-0.4-0.2,0.1,1.5c0.4,1.4,2,1.3,2,1.3S400.2,245.9,400.2,243.4z"/>
		<path class="st1" d="M400.2,243.3h-6c0,0-0.7,0.1,0.4,0.7c0.9,0.6,4.4,0.4,4.4,0.4S400.4,244,400.2,243.3z"/>
		<path class="st39" d="M391.3,239.8l-5.2-2.2l-8.4-8.4l-6.7,15.1l11.4,0.1l5.9,2.5c0.9,0.4,1.8-0.1,2.2-0.9l1.7-4.1
			C392.6,241.1,392.2,240.2,391.3,239.8z"/>
		<path class="st1" d="M370.6,244.9L370.6,244.9c-0.4-0.1-0.6-0.7-0.4-1l6.5-15.1c0.1-0.4,0.7-0.6,1-0.4l0,0c0.4,0.1,0.6,0.7,0.4,1
			l-6.5,15.1C371.4,244.9,371,245.1,370.6,244.9z"/>
		<path class="st32" d="M409.5,255l13.5,9.6l3-12.8c0,0,3.2-1,5.2,1.2l-2.9,16.5c0,0-0.7,2-1.7,2.7s-3.3,0.7-3.3,0.7l-11.1-7.1
			L409.5,255z"/>
		<path class="st14" d="M430.6,253.7c0,0-0.4-1.5,0.3-2.2c0.7-0.7,2.3-2.5,2.4-3.1c0.1-0.6-2.5-4.4-3.3-5.2c-0.7-0.9-1.5-1.4-2.7-1
			c-1.2,0.4-3.1,0.4-3.1,2.8s0.9,3.9,1.5,4.8c0.7,0.9,0.3,3.1,0.3,3.1S427.9,255.1,430.6,253.7z"/>
		<path class="st13" d="M425.6,248.3l-2-1.8c-0.4-0.4-0.5-1.1-0.1-1.6l0,0c0.4-0.4,1.1-0.5,1.6-0.1l2,1.8c0.4,0.4,0.5,1.1,0.1,1.6
			l0,0C426.8,248.6,426.1,248.6,425.6,248.3z"/>
	</g>
</g>
<g id="Layer_2_1_">
</g>
</svg>
