<?xml version="1.0" encoding="utf-8"?>
<!-- Generator: Adobe Illustrator 22.0.1, SVG Export Plug-In . SVG Version: 6.00 Build 0)  -->
<svg version="1.1" id="Layer_1" xmlns="http://www.w3.org/2000/svg" xmlns:xlink="http://www.w3.org/1999/xlink" x="0px" y="0px"
	 viewBox="0 0 551.2 438.7" style="enable-background:new 0 0 551.2 438.7;" xml:space="preserve">
<style type="text/css">
	.st0{fill:#74DAEE;}
	.st1{fill:#4A2C6A;}
	.st2{fill:#7C409C;}
	.st3{fill:#FFB792;}
	.st4{fill:#4A2C76;}
	.st5{fill:#EAEAEA;}
	.st6{fill:#FF4A1E;}
	.st7{fill:#F2AC8C;}
	.st8{fill:url(#SVGID_1_);}
	.st9{fill:#6139BC;}
	.st10{fill:#E2A188;}
	.st11{fill:#A16D3C;}
	.st12{fill:#FF7042;}
	.st13{fill:#744DA5;}
	.st14{fill:#EE8914;}
	.st15{fill:url(#SVGID_2_);}
	.st16{fill:#1E3D70;}
	.st17{fill:#C8D1CE;}
</style>
<g>
	<g>
		<g>
			<g>
				<path class="st0" d="M76.2,373.6c0,0-53.9-73.1-9.1-152.2c39.7-70.2,86-65.4,120-36.9c14.5,12.1,56.2,1.5,91.7-69.9
					c48.4-97.4,216.3-38.3,185.7,111.5c-14.8,72.5,45.1,75.2,14.6,147.7L76.2,373.6z"/>
				<path class="st1" d="M502.8,374.4H48.4c-0.2,0-0.4-0.2-0.4-0.4v-0.4c0-0.2,0.2-0.4,0.4-0.4h454.4c0.2,0,0.4,0.2,0.4,0.4v0.4
					C503.2,374.2,503,374.4,502.8,374.4z"/>
			</g>
		</g>
		
			<ellipse transform="matrix(0.7471 -0.6647 0.6647 0.7471 -23.6846 160.9885)" class="st0" cx="199.7" cy="111.6" rx="55.3" ry="39.8"/>
		
			<ellipse transform="matrix(0.7471 -0.6647 0.6647 0.7471 -59.0597 113.7813)" class="st0" cx="120" cy="134.5" rx="12.3" ry="17.1"/>
		<path class="st0" d="M460.5,114.3c-2.1-9.2,1.6-17.9,8.2-19.4c6.6-1.5,13.7,4.7,15.8,13.9c2.1,9.2-1.6,17.9-8.2,19.4
			C469.6,129.8,462.5,123.5,460.5,114.3z"/>
	</g>
	<g>
		<path class="st2" d="M303.2,360.6c-12.7-2-22.3,2.4-31.5,1.1c-7.3-1-11.2-8.5-21.1-10.6c2.3-1.4,5.1-3.1,6.4-4.4
			c2.5-2.4,6.2-7.3,0-7.5c-4.5-0.1-7.9,7.3-9.5,11.5c-1.5-0.1-3-0.1-4.8,0c2-6.6,6-19.3,7-21.7c1.3-3.3-4.2-14.4-10.8-2
			c-4.6,8.7-1.5,18.8,0.8,24c-1.8,0.3-3.5,0.7-5.1,1.2c-5.4-12.3-22.6-47.6-41.3-43.2c-20.3,4.8,23.2,28.4,34.2,46
			c-9,4.2-16.9,9.2-30.5,5.5c-36.3-9.8-39.1,12.3-39.1,12.3l162,0.1C319.9,373,315.9,362.7,303.2,360.6z"/>
		<g>
			<path class="st3" d="M259.1,281.2c0.2,1.6,2.4,1.5,4.9,1.1c2.5-0.4,1.8,0.3,5.4,0.2c3.5-0.1,4.7-1.3,4.8-1.8
				c0.1-0.4-1.6-0.8-3.4-1.1c-0.2,0-0.5-0.1-0.7-0.1c-2.1-0.4-3.5-1.9-5.2-3.2c-1.7-1.2-2.8-6.7-2.8-6.7l-5,0c0,0,1.6,5,2.4,6.7
				c0.5,1,0,2.3-0.2,3.3C259.1,280.1,259,280.6,259.1,281.2z"/>
			<path class="st4" d="M264,282.3c2.5-0.4,1.8,0.3,5.4,0.2c3.5-0.1,4.7-1.3,4.8-1.8c0.1-0.4-1.6-0.8-3.4-1.1l0,0
				c0,0-2.2,1.3-5.1,1.1c-2.4-0.2-4.8-1.1-6.4-1.2c-0.1,0.5-0.2,1.1-0.1,1.6C259.3,282.7,261.5,282.7,264,282.3z"/>
			<path class="st3" d="M220.1,280.9c0.1,1.6,2.3,1.6,4.8,1.3c2.5-0.3,1.8,0.4,5.3,0.4c3.5,0.1,4.7-1.1,4.9-1.6
				c0.2-0.4-1.5-0.8-3.3-1.3c-0.2-0.1-0.5-0.1-0.7-0.2c-2-0.5-3.4-2.1-5.1-3.4c-1.6-1.3-0.3-6.5-0.3-6.5l-3.8-1.8
				c0,0-0.5,5.4-0.8,8.2c-0.1,1.1-0.7,2.3-0.9,3.2C220.2,279.8,220.1,280.4,220.1,280.9z"/>
			<path class="st4" d="M224.9,282.2c2.5-0.3,1.8,0.4,5.3,0.4c3.5,0.1,4.7-1.1,4.9-1.6c0.2-0.4-1.5-0.8-3.3-1.3l0,0
				c0,0-2.3,1.2-5.1,0.9c-2.4-0.2-4.7-1.2-6.4-1.4c-0.1,0.5-0.2,1.1-0.2,1.6C220.2,282.5,222.4,282.5,224.9,282.2z"/>
			<path class="st5" d="M228.6,202.8c0,0-1,5.1-2.1,30.8c0,0-1.9,4.8-3.4,10.6c-1.4,5.8-2.4,30.1-2.4,30.1s0.6,0.8,2.3,0.9
				c1.4,0.1,2.5-0.5,2.5-0.5s9.8-31.8,14.6-44.2c4.8-12.4,7.6-30,7.6-30L228.6,202.8z"/>
			<path class="st5" d="M240.4,205c0,0,0.8,5.1,8.7,29.6c0,0-0.2,5.1,0.5,11.1c0.7,6,8.7,29.4,8.7,29.4s1.1,0.4,2.7-0.1
				c1.5-0.4,2.6-1.3,2.6-1.3s-3.1-33.5-2.9-46.7c0.2-13.2-3.3-30.8-3.3-30.8L240.4,205z"/>
			<path class="st6" d="M254.5,134.1c-1.2-0.8-2.8-0.9-3.8-0.9c0.3-0.3,0.8-0.3,0.8-0.3c-0.7-0.1-2.2,0.5-2.2,0.5
				c-9.1-4-11.2,9.5-11.2,12.7c0,3.2-0.1,6.8-4.9,9.4c-9.4,5.1-2.2,15.2-2.2,15.2c-1.7,4.8,4.5,10.8,4.5,10.8
				c-0.1-2.6,11.7-18.9,18-22.6c1.6-2.1,2.3-6,2.4-6.3c-0.4,3.1-1,4.8-1.5,5.7C259.9,153.6,257.7,136.2,254.5,134.1z"/>
			<path class="st3" d="M252.5,156.9c0,0-3,1.6-5.2,1c-2.1-0.6-3.5-3.3-3.5-3.3c0.9-0.2,1.2-1.4,1.1-6.7l0.4,0.1l6.6,1.3l0.2,0
				c0,0-0.2,2.2-0.2,4.2c0,0.4,0,0.9,0,1.2C252.1,155.9,252.2,156.8,252.5,156.9z"/>
			<path class="st7" d="M252,153.4c0,0.4,0,0.9,0,1.2c-3.8-0.2-6-4.5-6.9-6.5l6.8,1l0.2,0C252.1,149.3,252,151.4,252,153.4z"/>
			<path class="st6" d="M244.6,147.2c0,0-2-3.2-2.5-5.9c-0.3-1.9,0.6-9.1,7.8-8.1c0,0,2.1,0.2,4.1,1.5c1.6,1.1,3.8,3.3,1.3,9.6
				l-0.7,2.1L244.6,147.2z"/>
			<path class="st3" d="M252.6,152.4c0,0-9-1.2-8.2-6.8c0.8-5.6,0.2-9.5,6-9c5.8,0.5,6.6,2.8,6.7,4.7
				C257.3,143.4,254.9,152.6,252.6,152.4z"/>
			<path class="st6" d="M254.5,137.2c0,0-3.4,6.2-7.3,6.6c-3.9,0.4-5.4-0.8-5.4-0.8s3.2-1.9,4.4-5.8
				C246.2,137.1,253.1,133.8,254.5,137.2z"/>
			<path class="st6" d="M253.8,137.6c0,0,1.6,1.7,1.8,3.2c0.2,1.5,0,4.4,0.9,4.5c0,0,2.5-4.2,0.8-7
				C255.5,135.3,253.8,137.6,253.8,137.6z"/>
			<path class="st6" d="M313.4,213.4c-1.9-4-7.1-7.3-11.5-7.3c-3.3,0-6.1,1.1-8.4,2.9c-1.3,1-3.2,0.4-3.5-1.3l-3.9-17.9
				c-0.6-2.6-3.1-4.3-5.8-3.7l-62.5,13.4c-2.6,0.6-4.2,3.1-3.6,5.6l13.4,62.4c0.4,1.8,1.7,3.1,3.3,3.6l-0.8,0.2h2.4l0,0
				c0.3,0,0.6,0,0.9-0.1l1.4-0.3l0,0l0,0l16-3.5c2.3-0.5,3.2-3.2,1.7-4.9c-1.5-1.7-2.5-3.8-3-6.1c-1.3-6.6,2.8-13.2,9.4-15
				c7.2-2,14.6,2.6,16.1,9.8c0.6,2.7,0.3,5.4-0.7,7.8c-0.4,0.9-0.1,1.9,0.6,2.4l-0.9,0.5l2.2,0l0,0c0.2,0,0.3,0,0.5,0l19.2-4.1
				c2.6-0.6,4.3-3.1,3.7-5.8l-3.8-17.8c-0.4-1.7,1.1-3.1,2.8-2.7c1.9,0.5,3.9,0.6,6,0.1C312.5,230.1,317.2,221.4,313.4,213.4z"/>
			<linearGradient id="SVGID_1_" gradientUnits="userSpaceOnUse" x1="211.9514" y1="228.7835" x2="312.5314" y2="228.7835">
				<stop  offset="0" style="stop-color:#FED747"/>
				<stop  offset="1" style="stop-color:#F94E43"/>
			</linearGradient>
			<path class="st8" d="M299.7,206.1c-3.3,0-6.1,1.1-8.4,2.9c-1.3,1-3.2,0.4-3.5-1.3l-3.9-17.9c-0.6-2.6-3.1-4.3-5.8-3.7l-62.5,13.4
				c-2.6,0.6-4.2,3.1-3.6,5.6l13.4,62.4c0.6,2.7,3.2,4.3,5.8,3.8l17.4-3.7c2.3-0.5,3.2-3.2,1.7-4.9c-1.5-1.7-2.5-3.8-3-6.1
				c-1.3-6.6,2.8-13.2,9.4-15c7.2-2,14.6,2.6,16.1,9.8c0.6,2.7,0.3,5.4-0.7,7.8c-0.7,1.5,0.7,3.2,2.3,2.8l19.2-4.1
				c2.6-0.6,4.3-3.1,3.7-5.8l-3.8-17.8c-0.4-1.7,1.2-3.1,2.8-2.7c1.9,0.5,3.9,0.6,6,0.1c8-1.7,12.7-10.5,9-18.4
				C309.3,209.4,304.1,206.1,299.7,206.1z"/>
			<path class="st3" d="M276.8,182.4c0,0,3.9,0.6,4.9,3.2c1,2.5-0.4,4.3-1,4.2c-0.5,0-1.6-0.4-2.1-1.7
				C278.2,186.8,276.8,182.4,276.8,182.4z"/>
			<path class="st3" d="M223.2,193.7c0,0,4.4,0,5.9,2.6c1.6,2.6,0.3,4.7-0.3,4.8c-0.6,0.1-1.8-0.2-2.6-1.5
				C225.5,198.3,223.2,193.7,223.2,193.7z"/>
			<path class="st9" d="M276.9,185.3c-0.4-0.1-2.1-0.3-4.2-0.6c-4-0.6-9.5-1.7-11.4-3.4c-0.5-0.5-1.7-3-2.9-6
				c-1.2,6.5-1.3,11.5-1,15.3l-26.9,5.8c2.3-4.7,5.9-10.4,5.2-15.1c-0.2-1.7-1.2-4.1-1.6-6.8c0-0.2-0.1-0.5-0.1-0.7
				c-3.8,3.1-8.1,6.5-8.2,7.2c-0.2,1.1,2.8,13.8,2.8,13.8c-0.7,1.7-3.9,1.3-3.9,1.3c-3-2.1-7.3-14.1-7-16.8
				c0.3-2.7,11.2-17.8,13.8-21.4c2.6-3.6,12-3.5,12.2-3.5h0c0,0,0,0,0,0c7.5,4.5,8.2,0.8,8.2,0.8s6.8,1.3,7.9,3.3
				c1.2,2,6.3,17.2,6.6,17.7c0.8,1.1,13.1,5.6,13.3,6.9C280.1,184.4,278,185.6,276.9,185.3z"/>
			<path class="st4" d="M240,194.4l-9.4,2c2.3-4.6,5.4-10.4,4.7-15.1c-0.3-1.7-0.8-3.8-1.1-6.5c0-0.3-0.1-1-0.1-1s6.6,5.2,6.7,10.9
				C241,187.6,240.5,191.4,240,194.4z"/>
			<path class="st4" d="M272.9,184.8c-4-0.6-9.6-1.7-11.5-3.4c-0.5-0.5-1.7-3-2.9-6c0,0-0.4-4.7,0.8-4.5c1.2,0.2,3.1,8.6,4.3,9.1
				C264.8,180.4,271.2,182.8,272.9,184.8z"/>
		</g>
		<g id="man_2_">
			<g>
				<path class="st4" d="M471,364.8c-0.6,1.9-3.2,3.2-3.5,5.5c-0.2,1.1-0.6,2-1.1,2.6h-8.1c0.1-0.4,0.4-0.9,1.5-1.2
					c2.3-0.5,3.1-3.2,3-5.8c-0.1-1.1,0-2.3,0-3.3c0.1-1.5,0.2-2.6,0.2-2.6l4.8-1.1l0.5,0.6l0.5,0.6
					C468.7,360.2,471.6,362.8,471,364.8z"/>
				<path class="st4" d="M433.1,372.9h-16.5c0.4-0.4,1-0.9,2.1-1c2.5-0.4,6.9-1.9,7.9-5.1c0-0.1,0.1-0.2,0.1-0.3
					c0.8-3.5,6.4,1.1,6.4,1.1s0,0.1,0,0.4C433.3,368.8,433.5,371.5,433.1,372.9z"/>
				<path class="st9" d="M419.4,281.1c0,0,0.9,10.7,1.9,23.6c1.4,17.5,3,39,3.2,43.1c0.3,7.1,1.4,18.4,1.4,18.4s2.7,2.7,8.1,1.6
					c0,0,4.8-16.2,6.2-33.2c0-0.3,0-0.6,0.1-0.8c1.3-17.4,3.3-54,3.3-54L419.4,281.1z"/>
				<path class="st4" d="M419.4,281.1c0,0,0.9,10.7,1.9,23.6l18.8,29.8c0-0.3,0-0.6,0.1-0.8c1.3-17.4,3.3-54,3.3-54L419.4,281.1z"/>
				<path class="st9" d="M423.3,282.4c0,0,15.5,38.8,25.7,57.1c10.2,18.2,13.4,23.3,13.4,23.3s5.8-2.3,6.4-3.9
					c0,0-3.9-35.2-10.7-43.8c-3.9-4.9-8.4-19.4-8.6-24.5c-0.2-5.1-1.4-15.2-1.4-15.2L423.3,282.4z"/>
			</g>
			<path class="st10" d="M431.2,222.4c-0.7-4.1-0.7-6.5-0.7-6.5l7.9-6.3c-0.3,8.7,5.3,12.9,5.3,12.9s-10.5,5.2-16.5,3.2
				C427.1,225.8,428.6,223.8,431.2,222.4z"/>
			<path class="st7" d="M428.7,215.8c0,0,10,1.7,10.9-4.6c0.9-6.2,2.9-10.2-3.5-11.6c-6.3-1.3-7.9,0.9-8.8,2.9
				C426.5,204.5,426.1,215.2,428.7,215.8z"/>
			<g>
				<path class="st11" d="M393.5,228.7l-2.1-1.3c0,0-2.7-3.9-7.2-1.5c0,0-1.8,1.1-0.6,2.1c1.2,1,0.9,0.4,2.6,1.8
					c1.7,1.4,3.8,1.9,5.2,1.1l1.8-0.2L393.5,228.7z"/>
				<path class="st6" d="M391,229.1c0.5-1.7,0.8-1.9,0.8-1.9s17.2,2,18.8,2.2c1.6,0.1,24.2-4.5,24.2-4.5l10.6,12.9
					c0,0-31.4,1.2-35.5,0.8c-6.8-0.6-19.1-7-19.1-7S390.6,230.4,391,229.1z"/>
			</g>
			<path class="st12" d="M449.2,277.3c0,0.7-1.3,1.4-1.9,1.7c-4.5,2-8.7,3.4-13.4,3.9c-5.6,0.6-12.2-0.7-14.5-0.7
				c-0.2,0-0.5-0.1-0.6-0.2c-0.2-0.1-0.3-7-0.2-15.6c0-0.3,0-0.7,0-1v-0.1c0-0.9,0-1.8,0-2.7c0.1-2.5,0.2-5.1,0.3-7.7
				c0.2-3.8,0.4-7.5,0.7-10.8c0.3-3.5,0.7-6.4,1.3-8.6c1.2-4.9,4-8.1,6.5-10.5l2.1-1.8c2.1,0.4,4.3,0.3,6.5-0.8
				c2.4-1.2,5-2.5,5.4-2.2c3.2,2.4,5.4,7.9,6.5,14.9c0.6,3.8,0.9,7.9,0.9,12.3c0,1.7-0.1,3.4-0.2,5.1c-0.5,9.2,0,17.2,0.3,21.8
				C449.1,275.6,449.2,276.6,449.2,277.3z"/>
			<path class="st4" d="M396,192.3l-63.2-10c-2.7-0.4-5.2,1.4-5.6,4.1l-2.8,17.6c-0.1,0.8,0.1,3.1,0.1,3.1l2.3,0.3
				c0.1,0,0.3,0,0.4,0.1l0,0l0,0c0.4,0,0.8,0,1.3-0.2c2.1-0.8,4.4-1,6.8-0.6c6.7,1.2,11.3,7.4,10.6,14.2c-0.8,7.5-7.7,12.7-15,11.5
				c-2.8-0.4-5.2-1.7-7-3.5c-0.4-0.4-0.8-0.5-1.2-0.6l0,0l-2.4-0.4l-3,21.5c-0.4,2.7,1.4,5.1,4,5.6l18.1,2.9
				c1.7,0.3,2.5,2.2,1.5,3.6c-1.1,1.6-1.9,3.5-2.3,5.5c-1.3,8.1,5.2,15.7,14,15c4.4-0.3,9.4-4,11-8.1c1.2-3,1.2-6.1,0.3-8.9
				c-0.5-1.6,0.8-3.1,2.4-2.9l18.2,2.9c2.7,0.4,5.1-1.4,5.6-4l10.1-63.3C400.4,195.1,398.6,192.7,396,192.3z"/>
			<path class="st6" d="M441.7,234.8c0,0-4.8,22.6-23,27.7c0.1-2.5,0.2-5.1,0.3-7.7c0.2-3.8,0.4-7.5,0.7-10.8
				c0.3-0.2,0.6-0.3,0.9-0.4C426.7,241.5,441.7,234.8,441.7,234.8z"/>
			<path class="st13" d="M361.1,273.5c1.2-3,1.2-6.1,0.3-8.9c-0.5-1.6,0.8-3.1,2.4-2.9l18.2,2.9c2.7,0.4,5.1-1.4,5.6-4l10.1-63.3
				c0.4-2.6-1.4-5-3.9-5.4l-63.2-10c-2.7-0.4-5.2,1.4-5.6,4.1l-2.8,17.6c-0.4,2.3,1.9,4.1,4,3.3c2.1-0.8,4.4-1,6.8-0.6
				c6.7,1.2,11.3,7.4,10.6,14.2c-0.8,7.5-7.7,12.7-15,11.5c-2.8-0.4-5.2-1.7-7-3.5c-1.2-1.2-3.2-0.5-3.5,1.2l-3.1,19.4
				c-0.4,2.7,1.4,5.1,4,5.6l18.1,2.9c1.7,0.3,2.5,2.2,1.5,3.6c-1.1,1.6-1.9,3.5-2.3,5.5c-1.3,8.1,5.2,15.7,14,15
				C354.5,281.3,359.5,277.6,361.1,273.5z"/>
			<g>
				<path class="st7" d="M393.6,243.3l-2.6-0.4c0,0-3-4.3-8.1-1.9c0,0-2,1.1-0.7,2.2c1.4,1.1,1,0.5,2.9,2c1.9,1.6,4.3,2.2,5.9,1.4
					l2-0.1L393.6,243.3z"/>
				<path class="st12" d="M391.6,244.6c0.1-1.9,1.1-2.1,1.1-2.1s19.7-1.3,21.4-1.6c1.7-0.3,17.4-13.3,17.4-13.3s6.1-5.5,10.3-3.6
					c3.7,1.6,4.8,4.8,5,7.7c0.2,3.5-1.7,6.7-4.9,8.2c-7,3.3-21.1,9.7-24.3,10.3c-7.1,1.2-25.5-2.7-25.5-2.7S391.6,246.1,391.6,244.6
					z"/>
			</g>
			<path class="st4" d="M427.4,202.5c0,0-4.1-3-1.4-7.7c0,0,3.2,1.1,7.7,0c4.5-1.1,8.6,0.4,9.1,2c0,0,1.8,0.7,1.9,3.4
				c0.2,2.6-5.1,11-5.1,11s-1.1-1.4-0.8-2.4c0.3-1,1.3-3.1,0.1-3.1c-1.2,0-1.6,1.8-2.1,1.1c-0.5-0.7,0.4-3.7-1-4.1
				C434.4,202.1,428.9,203.4,427.4,202.5z"/>
		</g>
		<path class="st14" d="M289.4,370.7l-17.9-81.2h4.9c1.2,0,2.1-1,2.1-2.1v-2.7c0-1.2-1-2.1-2.1-2.1h-62.4c-1.2,0-2.1,1-2.1,2.1v2.7
			c0,1.2,1,2.1,2.1,2.1h6.3l-17.9,81.2c-0.2,1.1,0.5,2.2,1.5,2.4c1.1,0.2,2.2-0.5,2.4-1.5l18.1-82h42.9l18.1,82
			c0.2,1.1,1.3,1.8,2.4,1.5l0,0C289,372.8,289.7,371.7,289.4,370.7z"/>
		<g>
			<path class="st2" d="M408,321c-6.6-6.4-30.4,33.7-30.4,33.7S414.6,327.3,408,321z"/>
			<path class="st2" d="M407.2,339.5c-5.9-2.3-24.6,17.4-28.8,21.9c-3.2-0.4-6.8-0.7-10.6-0.8c-29.6-0.5-43.1,12.9-43.1,12.9
				l82.7,0.3c0,0-7.3-9.3-28.1-12.3c5.1-2.4,20.1-9.4,25.6-10.7C411.4,349.2,413.8,342.1,407.2,339.5z"/>
		</g>
		<g>
			<path class="st6" d="M383.8,299.3H366c-2.3,0-3.8,2.5-2.7,4.5c1.1,2-2.7,18.9-10.7,19.3c-7.5,0.4-13.7-5.6-13.7-13
				c0-2.8,0.9-5.4,2.4-7.5c1-1.4,0-3.3-1.7-3.3h-19.6c-2.7,0-4.9,2.2-4.9,4.9c0,0-1.8,21.1-3.3,20.3c-1.6-0.8-3.3-1.3-5.1-1.3l0,0h0
				c-0.2,0-0.4,0-0.7,0c-0.2,0-3.5-0.1-3.5-0.1l-0.5,26.1l2.8,0c2.7-0.1,5-0.3,7-1.4c1.5-0.7,3.2,0.3,3.2,2v18.4
				c0,2.7,2.2,4.9,4.9,4.9H384c2.6,0,4.7-2.1,4.7-4.7v-64C388.8,301.5,386.6,299.3,383.8,299.3z"/>
			<linearGradient id="SVGID_2_" gradientUnits="userSpaceOnUse" x1="289.4766" y1="336.058" x2="385.314" y2="336.058">
				<stop  offset="0" style="stop-color:#FED747"/>
				<stop  offset="1" style="stop-color:#F94E43"/>
			</linearGradient>
			<path class="st15" d="M299.6,348.8c3.2,0.7,6.2,0.2,8.8-1.1c1.5-0.7,3.2,0.3,3.2,2V368c0,2.7,2.2,4.9,4.9,4.9h64.1
				c2.6,0,4.7-2.1,4.7-4.7v-64c0-2.7-2.2-4.9-4.9-4.9h-17.8c-2.3,0-3.8,2.5-2.7,4.5c1.1,2,1.7,4.2,1.6,6.6
				c-0.2,6.8-5.6,12.3-12.3,12.7c-7.5,0.4-13.7-5.6-13.7-13c0-2.8,0.9-5.4,2.4-7.5c1-1.4,0-3.3-1.7-3.3h-19.6
				c-2.7,0-4.9,2.2-4.9,4.9v18.3c0,1.7-1.8,2.8-3.3,2c-1.8-0.9-3.7-1.4-5.8-1.4c-8.2,0-14.7,7.6-12.7,16.2
				C290.8,343.5,295.3,347.8,299.6,348.8z"/>
		</g>
		<path class="st2" d="M114,373.3l11.5,0.1c0,0-0.4-2.8-8.2-3.5l0,0c-3-8.4-11.8-30.8-19.5-29.8c-7.6,1,10.4,21.7,17.7,29.7
			c-1,0-2,0.1-2.9,0.2c-1.8-3.5-5.2-8.4-10.8-8.2c-6,0.2,2.2,5.7,7.7,9c-2.8,1-4.4,2.4-4.4,2.4l8.7,0.1
			C114,373.3,114.1,373.4,114,373.3C114.1,373.4,114.1,373.3,114,373.3z"/>
		<g>
			<g>
				<path class="st7" d="M155.2,280.2l1.7,1.4c0,0,4.7-1.7,5.7,3.9c0,0,0.3,2.4-1.2,2.4c-1.5,0-0.9-0.3-3-0.2s-3.9-1.1-4.2-2.8
					l-1-1.5L155.2,280.2z"/>
				<path class="st16" d="M155,283.2c1.4-1.4,1.3-2.5,1.3-2.5s-15.7-12.9-17.3-13.9c-1.1-0.7-12.7-11-18.1-17.3
					c-2.7-3.1-6-1.9-9.8-0.8l-3.1,0.9c-3.8,1.1-4.8,6.4-1.7,9c8.8,7.3,23.3,15.4,26,17.1c6.8,4.3,20,9.3,20,9.3
					S153.8,284.4,155,283.2z"/>
			</g>
			<path class="st5" d="M173.4,362.2c0,0,3.8,2.9,9.7,1.4c0,0,4.7-1.1,5.8,1.3c0,0-7.2,3.7-9.1,4.7c-1.4,0.8-2.8,2-3.8,2.9
				c-0.8,0.7-2.1,0.6-2.7-0.2c-0.3-0.4-0.7-0.9-1.1-1.4c-1.1-1.5-3.7-6.4-3.7-6.4L173.4,362.2z"/>
			<path class="st12" d="M175.2,360.9c0,0-2.3,5.4-7.7,4.4c0,0-11-9.1-18.5-18.5c-2.4-3.1-4.5-6.1-5.7-9c-5-11.5-18.4-28.8-27-37.5
				l21.4-7.7c0,0,6.9,13.8,16,30.7C160.3,335.6,168,349.4,175.2,360.9z"/>
			<path class="st6" d="M153.7,323.4l-4.6,23.5c-2.4-3.1-4.5-6.1-5.7-9c-5-11.5-18.4-28.8-27-37.5l21.4-7.7
				C137.7,292.6,144.6,306.4,153.7,323.4z"/>
			<path class="st5" d="M136.1,365.3c0,0-0.2,4.3,5,4.9c0,0,3,0,3,2.7l-15.1,0c0,0-0.4-1.1-0.5-3.5c-0.1-1.8,1.8-6.5,1.8-6.5
				L136.1,365.3z"/>
			<path class="st12" d="M130.7,292.6c0,0,9.5,10.5,15.6,29.4c3.3,10.3-6,36.1-7.9,45.1c0,0-6.3,0.5-10.5-1.1c0,0-0.3-18.5,2.2-32.8
				c1.4-8-12.6-17.1-18.7-31.5c-4.1-9.8,0.9-9.7,7.1-9.9L130.7,292.6z"/>
			<path class="st3" d="M119.7,245.9c-5.3,3-16.2,0.2-16.2,0.2s4.4-5,2.4-13.2l4.2,2.1l4.5,2.3c0,0,0.3,1.4,0.5,4
				c0.1,0.7,0.1,1.4,0.1,2.2C117.9,244.4,119.7,245.9,119.7,245.9z"/>
			<path class="st5" d="M139.1,292.1c0,0.9-1.1,1.4-1.3,1.4c-2.1,0.4-8.1,2.7-13.5,3.2c-4.5,0.5-8.7,0-13.4-0.9
				c-0.6-0.1-2-0.5-2.2-1.1c-0.1-0.6-17.8-36.1-4.1-51.3c0.3-0.4,3,0.3,5.5,0.9c2.3,0.5,4.4,0.2,6.3-0.5l2.3,1.2
				c2.9,1.6,8.3,7.3,8.9,11.7c0.3,2.3,1.6,3.9,2,5.9c0.1,0.7,0.3,1.5,0.4,2.2c0.3,1.4,0.6,2.7,0.9,3.9c0.8,3.4,1.7,6.3,2.5,8.8
				c0.9,2.7,1.8,4.9,2.6,6.7c1,2.4,1.9,4.2,2.4,5.6C138.9,290.7,139.1,291.5,139.1,292.1z"/>
			<path class="st17" d="M138.5,289.8c-25-11.8-33.6-34.4-33.6-34.4s20.3,7.5,25.3,9.4c0.3,1.4,0.6,2.7,0.9,3.9
				c0.8,3.4,1.7,6.3,2.5,8.8c0.9,2.7,1.8,4.9,2.6,6.7C137.1,286.6,138,288.4,138.5,289.8z"/>
			<path class="st4" d="M209.1,264.7l-5.4-17c-0.5-1.6-2.2-2.4-3.7-2l0,0l0,0c-0.1,0-0.2,0-0.2,0.1l-1.9,0.6c0,0-2.9,3-5,3.6
				c-6.5,1.9-12.6-1.6-15-7.9c-2.6-7,0.4-14.8,7.5-17c2.4-0.8,7.2,0.7,7.2,0.7l1.9-0.6c1-0.3,1.7-1.4,1.4-2.6l-5.9-18.7
				c-0.8-2.6-3.5-4-6.1-3.2l-17.4,5.5c-1.6,0.5-3.2-0.9-2.9-2.5c0.3-1.9,0.2-4-0.4-5.9c-2.5-7.8-11.6-11.7-19.2-7.2
				c-3.8,2.2-6.6,7.8-6.2,12.2c0.3,3.2,1.7,6,3.7,8c1.1,1.2,0.6,3.1-0.9,3.6L123,220c-2.6,0.8-4,3.5-3.2,6.1l19.2,61
				c0.8,2.5,3.4,3.9,5.9,3.1l60.9-19.2C208.5,270.1,209.9,267.3,209.1,264.7z"/>
			<path class="st13" d="M135.9,203.4c0.3,3.2,1.7,6,3.7,8c1.1,1.2,0.6,3.1-0.9,3.6l-17.5,5.5c-2.6,0.8-4,3.5-3.2,6.1l19.2,61
				c0.8,2.5,3.4,3.9,5.9,3.1l60.9-19.2c2.6-0.8,4-3.6,3.2-6.2l-5.4-17c-0.7-2.2-3.5-2.9-5.1-1.2c-1.5,1.6-3.5,2.9-5.8,3.5
				c-6.5,1.9-13.4-1.6-15.8-7.9c-2.6-7,1.2-14.7,8.3-17c2.7-0.8,5.4-0.8,7.9,0c1.6,0.5,3.1-1,2.6-2.6l-5.9-18.7
				c-0.8-2.6-3.5-4-6.1-3.2l-17.4,5.5c-1.6,0.5-3.2-0.9-2.9-2.5c0.3-1.9,0.2-4-0.4-5.9c-2.5-7.8-11.6-11.7-19.2-7.2
				C138.3,193.5,135.5,199,135.9,203.4z"/>
			<g>
				<path class="st3" d="M153.2,282.9l2.2,0.8c0,0,4.3-3.1,7,1.9c0,0,1,2.2-0.6,2.6c-1.5,0.5-1,0-3.1,0.7c-2.2,0.7-4.3,0.2-5.1-1.3
					l-1.5-1.1L153.2,282.9z"/>
				<path class="st5" d="M154.9,286c0.8-2.1,1.2-3,1.2-3s-16.3-13.3-18-14.4c-1.1-0.8-12.4-9.2-17.9-15.8c-2.7-3.3-7-4.7-11.2-3.9
					l-3.4,0.7c-4.1,0.9-5.5,6.1-2.3,8.9c9,7.7,24.3,16.7,27.1,18.6c7.1,4.6,22.7,11.1,22.7,11.1S154.3,287.6,154.9,286z"/>
			</g>
			<path class="st7" d="M115,241.4c-5.2,0.3-8.6-4-8.6-4s2.4-1.3,3.6-2.3l4.5,2.3C114.6,237.3,114.8,238.8,115,241.4z"/>
			<path class="st3" d="M117.3,236c0,0-7.9,5.7-11.4,0.7c-3.5-5-6.8-7.6-1.9-11.4c4.9-3.8,7.2-2.6,8.8-1.2
				C114.3,225.4,119.2,234.4,117.3,236z"/>
			<path class="st4" d="M113.6,219.5c-0.3-1.9-0.9-3.3-0.9-3.3s-0.5,2.1-4.3,1.8c-3.8-0.3-9.7,0.4-11.7,4.6
				c-0.1,0.3-0.2,0.6-0.3,0.8c-0.4-0.9-0.4-2.4-0.4-2.4c-0.7,1.8,0,4.1,0,4.1h0c0,0.1,0,0.1,0,0.2c-0.8,0.7-1.5,2.9-1.5,2.9
				c0.3-0.6,0.9-1,1.4-1.2c0,3.3,1.3,6.6,3.7,7.6c3.5,1.4,3.4,0.3,6.9,2.6c0,0,0.9-1.2,0.3-1.9c-0.6-0.8-3-1.9-1.7-3
				c1.3-1.1,1.8,0.1,2.3-0.6c0.5-0.8-2-3,1.2-5.2C111.8,224.4,113.9,221.4,113.6,219.5z"/>
		</g>
		<path class="st5" d="M317.1,372.9c0,0-4-5.9-10.3-5.4c-1.9,0.1-5,0.6-8.6,1.1c-2.7-9.4-10.2-31.9-20.2-33.2
			c-10.3-1.3,9.8,23.7,18.1,33.5c-1.5,0.2-3.1,0.4-4.6,0.6c-4.4-4.6-11.9-11.5-18.3-11c-6.4,0.5,5.5,7.1,14.1,11.4
			c-5.3,0.4-10.3,0.4-13.3-0.8c-7.5-2.9-14.3,3.9-14.3,3.9H317.1z"/>
	</g>
</g>
</svg>
