<?xml version="1.0" encoding="utf-8"?>
<!-- Generator: Adobe Illustrator 22.0.1, SVG Export Plug-In . SVG Version: 6.00 Build 0)  -->
<svg version="1.1" id="Layer_1" xmlns="http://www.w3.org/2000/svg" xmlns:xlink="http://www.w3.org/1999/xlink" x="0px" y="0px"
	 viewBox="0 0 204 46" style="enable-background:new 0 0 204 46;" xml:space="preserve">
<style type="text/css">
	.st0{clip-path:url(#SVGID_2_);fill:#0126B0;}
	.st1{clip-path:url(#SVGID_2_);fill:#1C134B;}
	.st2{clip-path:url(#SVGID_2_);fill:#37FFE7;}
	.st3{clip-path:url(#SVGID_2_);fill:#028EEB;}
	.st4{clip-path:url(#SVGID_2_);fill:#002BE9;}
	.st5{clip-path:url(#SVGID_2_);fill:#0325B1;}
</style>
<g>
	<defs>
		<rect id="SVGID_1_" x="35.5" width="132.9" height="46"/>
	</defs>
	<clipPath id="SVGID_2_">
		<use xlink:href="#SVGID_1_"  style="overflow:visible;"/>
	</clipPath>
	<path class="st0" d="M65.1,45.5c-4.9,0-8.9-1.5-12.1-4.6c-3.2-3.2-4.7-7.3-4.7-12.1c0-3.1,0.7-5.9,2.2-8.4c1.4-2.4,3.4-4.4,6.1-5.9
		c2.7-1.5,5.6-2.2,8.7-2.2c2.5,0,5,0.5,7.6,1.6c2.4,1.2,4.4,2.7,6.2,4.7l-4.1,4c-2.9-3.1-6.2-4.6-9.7-4.6c-3.1,0-5.7,1-7.7,3.1
		c-2.1,2.2-3.1,4.7-3.1,7.7c0,2.2,0.4,4.1,1.3,5.6c0.9,1.6,2.2,2.9,4,3.8c1.7,1,3.5,1.5,5.6,1.5c1.7,0,3.2-0.3,4.7-1
		c1.5-0.6,3.1-1.8,4.9-3.5l4,4.3c-1.2,1.2-2.3,2.1-3.4,2.9c-1.1,0.8-2.2,1.4-3.2,1.8C70.2,45.1,67.8,45.5,65.1,45.5"/>
	<polygon class="st1" points="119,44.8 112.6,44.8 110.2,38.3 97.2,38.3 94.6,44.8 88.4,44.8 100.6,13 106.7,13 106.8,13.4 
		103.7,21.4 99.4,32.4 108,32.4 105.9,27.2 109.1,19.2 	"/>
	<path class="st0" d="M76.5,34.9h-3.1V23.3h2.9v1.6c0.5-0.8,0.9-1.3,1.3-1.5c0.4-0.2,0.8-0.4,1.3-0.4c0.7,0,1.4,0.2,2,0.6l-1,2.7
		c-0.5-0.3-1-0.5-1.4-0.5c-0.4,0-0.8,0.1-1.1,0.4c-0.3,0.2-0.5,0.7-0.7,1.3c-0.2,0.6-0.3,1.9-0.3,3.9V34.9z"/>
	<path class="st0" d="M88.9,31.2l3.1,0.5c-0.4,1.1-1,2-1.9,2.6c-0.8,0.6-1.9,0.9-3.2,0.9c-2,0-3.5-0.7-4.5-2c-0.8-1.1-1.1-2.4-1.1-4
		c0-1.9,0.5-3.4,1.5-4.5c1-1.1,2.3-1.6,3.8-1.6c1.7,0,3.1,0.6,4.1,1.7c1,1.1,1.5,2.9,1.4,5.2h-7.7c0,0.9,0.3,1.6,0.7,2.1
		c0.5,0.5,1.1,0.8,1.8,0.8c0.5,0,0.9-0.1,1.2-0.4S88.8,31.8,88.9,31.2 M89.1,28.1c0-0.9-0.3-1.6-0.7-2c-0.4-0.5-1-0.7-1.6-0.7
		c-0.7,0-1.2,0.2-1.7,0.7c-0.4,0.5-0.7,1.2-0.6,2H89.1z"/>
	<path class="st1" d="M126.7,26.7l-3,0.5c-0.1-0.6-0.3-1.1-0.7-1.4c-0.4-0.3-0.8-0.5-1.4-0.5c-0.8,0-1.4,0.3-1.8,0.8
		c-0.5,0.5-0.7,1.4-0.7,2.6c0,1.4,0.2,2.3,0.7,2.9c0.5,0.6,1.1,0.9,1.9,0.9c0.6,0,1.1-0.2,1.4-0.5c0.4-0.3,0.6-0.9,0.8-1.7l3,0.5
		c-0.3,1.4-0.9,2.4-1.8,3.1c-0.9,0.7-2.1,1.1-3.6,1.1c-1.7,0-3-0.5-4.1-1.6c-1-1.1-1.5-2.6-1.5-4.4c0-1.9,0.5-3.4,1.5-4.5
		c1-1.1,2.4-1.6,4.1-1.6c1.4,0,2.5,0.3,3.4,0.9C125.7,24.5,126.3,25.4,126.7,26.7"/>
	<path class="st1" d="M134.3,23.3v2.4h-2.1v4.7c0,0.9,0,1.5,0.1,1.7c0,0.2,0.1,0.3,0.3,0.4c0.1,0.1,0.3,0.2,0.5,0.2
		c0.3,0,0.7-0.1,1.2-0.3l0.3,2.4c-0.7,0.3-1.5,0.5-2.4,0.5c-0.6,0-1.1-0.1-1.5-0.3c-0.4-0.2-0.8-0.4-1-0.7c-0.2-0.3-0.4-0.7-0.4-1.2
		c-0.1-0.4-0.1-1.1-0.1-2.2v-5.1h-1.4v-2.4h1.4V21l3.1-1.8v4.1H134.3z"/>
	<path class="st1" d="M147,34.9l-4.7-11.6h3.2l2.2,5.9l0.6,2c0.2-0.5,0.3-0.8,0.3-1c0.1-0.3,0.2-0.7,0.3-1l2.2-5.9h3.2l-4.6,11.6
		H147z"/>
	<path class="st1" d="M162.9,31.2l3.1,0.5c-0.4,1.1-1,2-1.9,2.6c-0.8,0.6-1.9,0.9-3.2,0.9c-2,0-3.5-0.7-4.5-2
		c-0.8-1.1-1.1-2.4-1.1-4c0-1.9,0.5-3.4,1.5-4.5c1-1.1,2.3-1.6,3.8-1.6c1.7,0,3.1,0.6,4.1,1.7c1,1.1,1.5,2.9,1.4,5.2h-7.7
		c0,0.9,0.3,1.6,0.7,2.1c0.5,0.5,1.1,0.8,1.8,0.8c0.5,0,0.9-0.1,1.2-0.4C162.5,32.2,162.8,31.8,162.9,31.2 M163.1,28.1
		c0-0.9-0.3-1.6-0.7-2c-0.4-0.5-1-0.7-1.6-0.7c-0.7,0-1.2,0.2-1.7,0.7c-0.4,0.5-0.7,1.2-0.6,2H163.1z"/>
	<polygon class="st1" points="142.9,29.1 139.5,34.9 136.2,34.9 139.6,29.1 136.2,23.3 139.5,23.3 	"/>
	<rect x="136.2" y="19.4" class="st1" width="3.2" height="3.2"/>
	<path class="st2" d="M70.5,10.5l2.9-8.5c0-0.1,0.2-0.2,0.4-0.2l1.5,0.5c0.1,0,0.2,0.2,0.2,0.4l-2.9,8.5c0,0.1-0.2,0.2-0.4,0.2
		l-1.5-0.5C70.5,10.8,70.4,10.6,70.5,10.5"/>
	<path class="st2" d="M64.4,9.8l0.1-9c0-0.2,0.1-0.3,0.3-0.3l1.6,0c0.2,0,0.3,0.1,0.3,0.3l-0.1,9c0,0.2-0.1,0.3-0.3,0.3l-1.6,0
		C64.5,10.1,64.4,9.9,64.4,9.8"/>
	<path class="st3" d="M58.2,10.2L56,3.2c-0.2-0.6,0.1-1.2,0.7-1.3c0.6-0.2,1.2,0.1,1.3,0.7l2.2,7.1c0.2,0.6-0.1,1.2-0.7,1.3
		C59,11.1,58.4,10.8,58.2,10.2"/>
	<path class="st3" d="M52.7,13.3l-4.3-6.1c-0.3-0.5-0.2-1.2,0.3-1.5c0.5-0.3,1.2-0.2,1.5,0.3l4.3,6.1c0.3,0.5,0.2,1.2-0.3,1.5
		C53.7,13.9,53,13.8,52.7,13.3"/>
	<path class="st4" d="M48.4,18l-5.9-4.4c-0.5-0.4-0.6-1-0.2-1.5c0.4-0.5,1-0.6,1.5-0.2l5.9,4.4c0.5,0.4,0.6,1,0.2,1.5
		C49.5,18.3,48.8,18.4,48.4,18"/>
	<path class="st4" d="M45.7,23.8l-7-2.4c-0.6-0.2-0.9-0.8-0.7-1.4c0.2-0.6,0.8-0.9,1.4-0.7l7,2.4c0.6,0.2,0.9,0.8,0.7,1.4v0
		C46.9,23.7,46.3,24,45.7,23.8"/>
	<path class="st5" d="M45,30.1L37.6,30c-0.6,0-1.1-0.5-1.1-1.1c0-0.6,0.5-1.1,1.1-1.1L45,28c0.6,0,1.1,0.5,1.1,1.1
		C46.1,29.6,45.6,30.1,45,30.1"/>
	<path class="st5" d="M46.2,36.3l-7.1,2.2c-0.6,0.2-1.2-0.1-1.3-0.7c-0.2-0.6,0.1-1.2,0.7-1.3l7.1-2.2c0.6-0.2,1.2,0.1,1.3,0.7
		C47.1,35.6,46.8,36.2,46.2,36.3"/>
	<polygon class="st0" points="130.4,40.7 130.4,44.3 128.7,44.3 128.7,35.9 134.6,35.9 134.6,37.4 130.4,37.4 130.4,39.2 
		134.1,39.2 134.1,40.7 	"/>
	<path class="st0" d="M136.1,43.3c-0.7-0.8-1.1-1.9-1.1-3.1c0-1.3,0.4-2.3,1.1-3.1c0.7-0.8,1.7-1.2,2.9-1.2c1.2,0,2.2,0.4,2.9,1.2
		c0.7,0.8,1.1,1.9,1.1,3.2c0,1.2-0.4,2.3-1.1,3.1c-0.7,0.8-1.7,1.2-2.9,1.2C137.8,44.5,136.8,44.1,136.1,43.3 M139,37.3
		c-0.7,0-1.2,0.3-1.7,0.8c-0.4,0.5-0.6,1.2-0.6,2.1c0,0.9,0.2,1.6,0.6,2.1c0.4,0.5,1,0.8,1.7,0.8c0.7,0,1.2-0.3,1.7-0.8
		c0.4-0.5,0.6-1.2,0.6-2.1c0-0.9-0.2-1.6-0.6-2.1C140.2,37.5,139.7,37.3,139,37.3"/>
	<path class="st0" d="M149,42.8c0-0.2,0-0.4,0-0.5c0-0.1,0-0.2,0-0.3c0-0.3-0.1-0.6-0.3-0.8c-0.2-0.2-0.4-0.2-0.8-0.2h-2v3.3h-1.7
		v-8.3h4.5c0.4,0,0.8,0.1,1.1,0.2c0.3,0.1,0.5,0.3,0.7,0.6c0.2,0.2,0.3,0.5,0.3,0.7c0.1,0.2,0.1,0.5,0.1,0.7c0,1-0.5,1.7-1.4,2.1
		c0.2,0.1,0.4,0.2,0.5,0.2c0.1,0,0.2,0.1,0.3,0.2c0.1,0.1,0.2,0.2,0.2,0.3c0,0.1,0.1,0.3,0.1,0.5c0,0.2,0.1,0.5,0.1,0.7
		c0,0.2,0,0.6,0,1c0,0.3,0.1,0.5,0.4,0.7v0.3h-1.8c-0.1-0.2-0.2-0.4-0.2-0.6C149,43.5,149,43.2,149,42.8 M149.3,38.4
		c0-0.4-0.1-0.7-0.3-0.8c-0.2-0.1-0.5-0.2-0.9-0.2H146v2.2h2.1c0.4,0,0.7-0.1,0.9-0.2C149.2,39.2,149.3,38.9,149.3,38.4"/>
	<path class="st0" d="M157.7,38.8c-0.2-1-0.8-1.5-1.8-1.5c-0.7,0-1.2,0.3-1.6,0.8c-0.4,0.5-0.6,1.2-0.6,2.2c0,0.9,0.2,1.6,0.6,2.1
		c0.4,0.5,0.9,0.8,1.5,0.8c0.5,0,1-0.1,1.3-0.4c0.3-0.3,0.5-0.7,0.6-1.2h1.7c-0.1,1-0.4,1.7-1,2.3c-0.6,0.6-1.5,0.8-2.5,0.8
		c-1.2,0-2.1-0.4-2.7-1.2c-0.7-0.8-1-1.8-1-3.2c0-1.3,0.3-2.4,1-3.2c0.7-0.8,1.6-1.2,2.8-1.2c1,0,1.8,0.3,2.4,0.8
		c0.6,0.5,1,1.2,1.1,2.2H157.7z"/>
	<polygon class="st0" points="161.8,40.7 161.8,42.8 166.3,42.8 166.3,44.3 160.1,44.3 160.1,35.9 166.1,35.9 166.1,37.4 
		161.8,37.4 161.8,39.2 165.8,39.2 165.8,40.7 	"/>
</g>
</svg>
